# Blender v2.92.0 OBJ File: 'minecraft_assets.blend'
# www.blender.org
mtllib daylight_detector.mtl
o Cube
v -0.500000 -0.197983 0.500000
v -0.500000 0.197983 0.500000
v -0.500000 -0.197983 -0.500000
v -0.500000 0.197983 -0.500000
v 0.500000 -0.197983 0.500000
v 0.500000 0.197983 0.500000
v 0.500000 -0.197983 -0.500000
v 0.500000 0.197983 -0.500000
vt 0.001314 0.498273
vt 0.001314 0.325398
vt 0.999485 0.325398
vt 0.999485 0.498273
vt 0.998454 0.325879
vt 0.998454 0.492480
vt 0.004313 0.492480
vt 0.004313 0.325879
vt 0.998279 0.326381
vt 0.998279 0.497279
vt 0.003162 0.497280
vt 0.003162 0.326381
vt 0.999154 0.327140
vt 0.999154 0.498279
vt 0.001461 0.498279
vt 0.001461 0.327140
vt 0.437821 0.483565
vt 0.495277 0.483565
vt 0.495277 0.515435
vt 0.437821 0.515435
vt 0.001391 0.497201
vt 0.999043 0.497201
vt 0.999043 0.999453
vt 0.001391 0.999453
vn -1.0000 0.0000 0.0000
vn 0.0000 0.0000 -1.0000
vn 1.0000 0.0000 0.0000
vn 0.0000 0.0000 1.0000
vn 0.0000 -1.0000 0.0000
vn 0.0000 1.0000 0.0000
usemtl main
s off
f 1/1/1 2/2/1 4/3/1 3/4/1
f 3/5/2 4/6/2 8/7/2 7/8/2
f 7/9/3 8/10/3 6/11/3 5/12/3
f 5/13/4 6/14/4 2/15/4 1/16/4
f 3/17/5 7/18/5 5/19/5 1/20/5
f 8/21/6 4/22/6 2/23/6 6/24/6
