# Blender v2.92.0 OBJ File: 'minecraft_assets.blend'
# www.blender.org
mtllib Hopper_down.mtl
o Hopper_mid
v 0.337852 -0.179428 0.081587
v 0.337852 -0.262106 0.081587
v 0.337852 -0.262106 0.000004
v 0.337852 -0.179428 0.000004
v 0.150021 -0.262106 0.081587
v 0.150021 -0.262106 0.000004
v 0.337852 -0.179428 -0.081579
v 0.337852 -0.262106 -0.081579
v 0.150021 -0.262106 -0.081579
v 0.150021 -0.179428 -0.081579
v 0.150021 -0.096749 0.000004
v 0.150021 -0.096749 0.081587
v 0.337852 -0.096749 0.081587
v 0.337852 -0.096749 0.000004
v 0.150021 -0.179428 0.081587
v 0.150021 -0.179428 0.000004
v 0.337852 -0.096749 -0.081579
v 0.150021 -0.096749 -0.081579
v -0.075703 0.304725 0.500004
v -0.575703 0.304725 0.500004
v -0.575703 0.043053 0.500004
v -0.075703 0.043053 0.500004
v -0.075703 0.161842 -0.429996
v -0.505703 0.161842 -0.429996
v -0.505703 0.161842 0.000004
v -0.075703 0.161842 0.000004
v -0.075703 0.043054 -0.499996
v -0.575703 0.043054 -0.499996
v -0.575703 0.304726 -0.499996
v -0.075703 0.304726 -0.499996
v -0.575703 0.304726 0.000004
v -0.575703 0.043054 0.000004
v 0.424297 0.043054 -0.499996
v 0.424297 0.304726 -0.499996
v 0.424297 0.304726 0.000004
v 0.424297 0.043054 0.000004
v -0.301427 -0.179429 0.240171
v -0.301427 -0.280383 0.240171
v -0.075703 -0.280383 0.240171
v -0.075703 -0.179429 0.240171
v -0.301427 -0.179428 -0.240164
v -0.301427 -0.280383 -0.240164
v -0.301427 -0.280383 0.000004
v -0.301427 -0.179428 0.000004
v -0.075703 -0.280383 -0.240164
v -0.075703 -0.179428 -0.240164
v 0.150021 -0.280383 -0.240164
v 0.150021 -0.179428 -0.240164
v 0.150021 -0.179428 0.000004
v 0.150021 -0.280383 0.000004
v -0.075703 0.304725 0.430004
v -0.505703 0.304725 0.430004
v -0.505703 0.304726 0.000004
v -0.505703 0.304726 -0.429996
v -0.075703 0.304726 -0.429996
v 0.354297 0.304726 -0.429996
v 0.354297 0.304726 0.000004
v -0.075703 0.161841 0.430004
v -0.505703 0.161841 0.430004
v 0.354297 0.161842 -0.429996
v 0.354297 0.161842 0.000004
v -0.301427 0.063998 0.240171
v -0.075703 0.063998 0.240171
v -0.301427 0.063998 -0.240164
v -0.301427 0.063998 0.000004
v -0.075703 0.063998 -0.240164
v 0.150021 0.063998 0.000004
v 0.150021 0.063998 -0.240164
v 0.150021 -0.179429 0.240171
v 0.150021 -0.280383 0.240171
v 0.424297 0.043053 0.500004
v 0.150021 0.063998 0.240171
v 0.424297 0.304725 0.500004
v 0.354297 0.304725 0.430004
v 0.354297 0.161841 0.430004
v -0.075703 -0.280383 0.000004
vt 0.433975 0.510072
vt 0.433975 0.432580
vt 0.510440 0.432580
vt 0.510440 0.510072
vt 0.583855 0.425561
vt 0.583855 0.594584
vt 0.510441 0.594584
vt 0.510441 0.425561
vt 0.510441 0.422049
vt 0.587933 0.422049
vt 0.587933 0.598096
vt 0.510441 0.598096
vt 0.510441 0.594584
vt 0.437026 0.594584
vt 0.437026 0.425561
vt 0.510441 0.425561
vt 0.510440 0.598096
vt 0.432949 0.598096
vt 0.432949 0.422049
vt 0.510440 0.422049
vt 0.510441 0.432580
vt 0.586906 0.432580
vt 0.586906 0.510072
vt 0.510441 0.510072
vt 0.437026 0.594584
vt 0.437026 0.425561
vt 0.433975 0.432580
vt 0.433975 0.510072
vt 0.583855 0.425561
vt 0.583855 0.594584
vt 0.586907 0.432580
vt 0.586907 0.510072
vt 0.432949 0.598096
vt 0.432949 0.422049
vt 0.510441 0.587564
vt 0.433975 0.587564
vt 0.586906 0.587564
vt 0.587933 0.422049
vt 0.587933 0.598096
vt 0.510440 0.587564
vt 0.433975 0.587564
vt 0.586907 0.587564
vt 0.504582 0.802402
vt 0.085619 0.802402
vt 0.085619 0.577118
vt 0.504582 0.577118
vt 0.516300 0.365462
vt 0.177799 0.365462
vt 0.177799 0.006470
vt 0.516300 0.006470
vt 0.502628 0.575674
vt 0.925085 0.575674
vt 0.925085 0.807752
vt 0.502628 0.807752
vt 0.504582 0.799852
vt 0.078886 0.799852
vt 0.078886 0.575761
vt 0.504582 0.575761
vt 0.928368 0.574101
vt 0.928368 0.805418
vt 0.502629 0.805418
vt 0.502629 0.574101
vt 0.443674 0.721637
vt 0.349051 0.721637
vt 0.349051 0.510072
vt 0.443674 0.510072
vt 0.443674 0.735174
vt 0.349051 0.735174
vt 0.349052 0.510072
vt 0.443674 0.510072
vt 0.671829 0.510072
vt 0.671829 0.721637
vt 0.577207 0.721637
vt 0.577207 0.510072
vt 0.349051 0.284970
vt 0.443674 0.284970
vt 0.443674 0.510072
vt 0.349051 0.510072
vt 0.510441 0.931961
vt 0.095149 0.931961
vt 0.027543 0.881399
vt 0.510441 0.881399
vt 0.512518 0.942651
vt 0.927811 0.942651
vt 0.995416 0.995462
vt 0.512518 0.995462
vt 0.027543 0.997038
vt 0.095149 0.944734
vt 0.510441 0.944734
vt 0.510441 0.997038
vt 0.981497 0.948180
vt 0.913892 0.993839
vt 0.498599 0.993839
vt 0.498599 0.948180
vt 0.526066 0.758216
vt 0.923665 0.758216
vt 0.923665 0.871304
vt 0.526066 0.871304
vt 0.526066 0.871304
vt 0.128467 0.871304
vt 0.128467 0.758215
vt 0.526066 0.758215
vt 0.923665 0.758215
vt 0.923665 0.871304
vt 0.526066 0.871304
vt 0.526066 0.758215
vt 0.923665 0.758216
vt 0.923665 0.871304
vt 0.526066 0.871304
vt 0.526066 0.758216
vt 0.960376 0.960007
vt 0.726561 0.713195
vt 0.726561 0.510072
vt 0.960376 0.510072
vt 0.060506 0.960007
vt 0.294320 0.713195
vt 0.510441 0.713195
vt 0.510441 0.960007
vt 0.294320 0.510072
vt 0.060506 0.510072
vt 0.510441 0.306950
vt 0.294320 0.306950
vt 0.060506 0.060137
vt 0.510441 0.060137
vt 0.443674 0.735174
vt 0.349051 0.735174
vt 0.960376 0.060137
vt 0.726561 0.306950
vt 0.076889 0.805418
vt 0.076889 0.574101
vt 0.083307 0.993839
vt 0.015701 0.948180
vt 0.128467 0.871304
vt 0.128467 0.758216
vt 0.502629 0.369439
vt 0.137447 0.369439
vt 0.137447 0.009855
vt 0.502629 0.009855
vt 0.923665 0.758215
vt 0.923665 0.871304
vt 0.029620 0.995462
vt 0.097226 0.942651
vt 0.930277 0.575761
vt 0.930277 0.799852
vt 0.349052 0.284970
vt 0.443674 0.284970
vt 0.577207 0.298508
vt 0.671829 0.298508
vt 0.080172 0.807752
vt 0.080172 0.575674
vt 0.925734 0.944734
vt 0.993338 0.997038
vt 0.128467 0.871304
vt 0.128467 0.758215
vt 0.854802 0.006470
vt 0.854802 0.365462
vt 0.867810 0.009855
vt 0.867810 0.369439
vt 0.128467 0.871304
vt 0.128467 0.758216
vt 0.993338 0.881399
vt 0.925734 0.931961
vt 0.923545 0.577118
vt 0.923545 0.802402
vt 0.349051 0.298508
vt 0.443674 0.298508
vt 0.510441 0.510072
vt 0.713563 0.510072
vt 0.713563 0.726192
vt 0.510441 0.726192
vt 0.671829 0.510072
vt 0.671829 0.735174
vt 0.671830 0.284970
vt 0.671829 0.510072
vt 0.671829 0.721637
vt 0.671829 0.298508
vt 0.671830 0.510072
vt 0.671829 0.735174
vt 0.671830 0.284970
vt 0.349052 0.298508
vt 0.349052 0.510072
vt 0.349052 0.721637
vt 0.510441 0.293952
vt 0.713563 0.293952
vt 0.307318 0.510072
vt 0.307318 0.293952
vt 0.307318 0.726192
vn 1.0000 0.0000 0.0000
vn 0.0000 -1.0000 0.0000
vn 0.0000 0.0000 -1.0000
vn 0.0000 1.0000 0.0000
vn 0.0000 -0.0000 1.0000
vn -1.0000 0.0000 0.0000
vn 0.0408 -0.9985 -0.0374
vn 0.0391 -0.9985 -0.0392
vn 0.0000 -0.9968 -0.0803
vn 0.0408 -0.9985 0.0374
vn 0.0391 -0.9985 0.0392
vn 0.0761 -0.9971 -0.0000
vn 0.0000 -0.9968 0.0803
vn -0.0761 -0.9971 -0.0000
vn -0.0391 -0.9985 0.0391
vn -0.0408 -0.9985 0.0374
vn -0.0408 -0.9985 -0.0374
vn -0.0391 -0.9985 -0.0392
usemtl lambert46SG.001
s 1
f 1/1/1 2/2/1 3/3/1 4/4/1
f 2/5/2 5/6/2 6/7/2 3/8/2
f 7/9/3 8/10/3 9/11/3 10/12/3
f 11/13/4 12/14/4 13/15/4 14/16/4
f 15/17/5 5/18/5 2/19/5 1/20/5
f 6/21/6 5/22/6 15/23/6 16/24/6
f 6/7/2 9/25/2 8/26/2 3/8/2
f 9/27/6 6/21/6 16/24/6 10/28/6
f 17/29/4 18/30/4 11/13/4 14/16/4
f 4/4/1 3/3/1 8/31/1 7/32/1
f 18/33/3 17/34/3 7/9/3 10/12/3
f 16/24/6 11/35/6 18/36/6 10/28/6
f 15/23/6 12/37/6 11/35/6 16/24/6
f 13/38/5 12/39/5 15/17/5 1/20/5
f 14/40/1 13/41/1 1/1/1 4/4/1
f 17/42/1 14/40/1 4/4/1 7/32/1
f 19/43/5 20/44/5 21/45/5 22/46/5
f 23/47/4 24/48/4 25/49/4 26/50/4
f 27/51/3 28/52/3 29/53/3 30/54/3
f 31/55/6 29/56/6 28/57/6 32/58/6
f 33/59/1 34/60/1 35/61/1 36/62/1
f 37/63/5 38/64/5 39/65/5 40/66/5
f 41/67/6 42/68/6 43/69/6 44/70/6
f 45/71/3 42/72/3 41/73/3 46/74/3
f 47/75/1 48/76/1 49/77/1 50/78/1
f 51/79/4 52/80/4 20/81/4 19/82/4
f 53/83/4 54/84/4 29/85/4 31/86/4
f 29/87/4 54/88/4 55/89/4 30/90/4
f 34/91/4 56/92/4 57/93/4 35/94/4
f 58/95/3 59/96/3 52/97/3 51/98/3
f 25/99/1 24/100/1 54/101/1 53/102/1
f 54/103/5 24/104/5 23/105/5 55/106/5
f 56/107/6 60/108/6 61/109/6 57/110/6
f 21/111/7 62/112/8 63/113/9 22/114/9
f 28/115/10 64/116/11 65/117/12 32/118/12
f 66/119/13 64/116/11 28/115/10 27/120/13
f 67/121/14 68/122/15 33/123/16 36/124/14
f 69/125/1 70/126/1 50/78/1 49/77/1
f 71/127/17 72/128/18 67/121/14 36/124/14
f 35/61/1 73/129/1 71/130/1 36/62/1
f 57/93/4 74/131/4 73/132/4 35/94/4
f 61/109/6 75/133/6 74/134/6 57/110/6
f 26/135/4 25/136/4 59/137/4 58/138/4
f 52/139/1 59/140/1 25/99/1 53/102/1
f 20/141/4 52/142/4 53/83/4 31/86/4
f 21/143/6 20/144/6 31/55/6 32/58/6
f 65/117/12 62/112/8 21/111/7 32/118/12
f 38/145/6 37/146/6 44/70/6 43/69/6
f 48/147/3 47/148/3 45/71/3 46/74/3
f 33/123/16 68/122/15 66/119/13 27/120/13
f 34/149/3 33/150/3 27/51/3 30/54/3
f 55/89/4 56/151/4 34/152/4 30/90/4
f 23/105/5 60/153/5 56/154/5 55/106/5
f 61/155/4 60/156/4 23/47/4 26/50/4
f 75/157/4 61/158/4 26/135/4 58/138/4
f 74/159/3 75/160/3 58/95/3 51/98/3
f 73/161/4 74/162/4 51/79/4 19/82/4
f 71/163/5 73/164/5 19/43/5 22/46/5
f 63/113/9 72/128/18 71/127/17 22/114/9
f 70/165/5 69/166/5 40/66/5 39/65/5
f 76/167/2 50/168/2 70/169/2 39/170/2
f 65/171/6 64/172/6 41/67/6 44/70/6
f 37/146/6 62/173/6 65/171/6 44/70/6
f 63/174/5 62/175/5 37/63/5 40/66/5
f 69/166/5 72/176/5 63/174/5 40/66/5
f 67/177/1 72/178/1 69/125/1 49/77/1
f 48/76/1 68/179/1 67/177/1 49/77/1
f 68/180/3 48/147/3 46/74/3 66/181/3
f 41/73/3 64/182/3 66/181/3 46/74/3
f 45/183/2 47/184/2 50/168/2 76/167/2
f 43/185/2 42/186/2 45/183/2 76/167/2
f 43/185/2 76/167/2 39/170/2 38/187/2
