# Blender v2.92.0 OBJ File: 'minecraft_assets.blend'
# www.blender.org
mtllib Hopper.mtl
o Hopper_Right
v 0.000003 0.350879 0.500013
v -0.499998 0.350879 0.500013
v -0.499998 0.089207 0.500013
v 0.000003 0.089207 0.500013
v 0.000003 0.207995 -0.429987
v -0.429997 0.207995 -0.429987
v -0.429997 0.207995 0.000013
v 0.000003 0.207995 0.000013
v 0.000003 0.089207 -0.499987
v -0.499998 0.089207 -0.499987
v -0.499998 0.350879 -0.499987
v 0.000003 0.350879 -0.499987
v -0.499998 0.350879 0.000013
v -0.499998 0.089207 0.000013
v 0.500003 0.089207 -0.499987
v 0.500003 0.350879 -0.499987
v 0.500003 0.350879 0.000013
v 0.500003 0.089207 0.000013
v -0.225723 -0.133275 0.240181
v -0.225723 -0.234230 0.240181
v 0.000003 -0.234230 0.240181
v 0.000003 -0.133275 0.240181
v -0.225723 -0.133275 -0.240154
v -0.225723 -0.234230 -0.240154
v -0.225723 -0.234230 0.000013
v -0.225723 -0.133275 0.000013
v 0.000003 -0.234230 -0.240154
v 0.000003 -0.133275 -0.240154
v 0.225727 -0.234230 -0.240154
v 0.225727 -0.133275 -0.240154
v 0.225727 -0.133275 0.000013
v 0.225727 -0.234230 0.000013
v 0.000003 0.350879 0.430014
v -0.429997 0.350879 0.430014
v -0.429997 0.350879 0.000013
v -0.429997 0.350879 -0.429987
v 0.000003 0.350879 -0.429987
v 0.430002 0.350879 -0.429987
v 0.430002 0.350879 0.000013
v 0.000003 0.207995 0.430014
v -0.429997 0.207995 0.430014
v 0.430002 0.207995 -0.429987
v 0.430002 0.207995 0.000013
v -0.225723 0.110151 0.240181
v 0.000003 0.110151 0.240181
v -0.225723 0.110151 -0.240154
v -0.225723 0.110151 0.000013
v 0.000003 0.110151 -0.240154
v 0.225727 0.110151 0.000013
v 0.225727 0.110151 -0.240154
v 0.225727 -0.133275 0.240181
v 0.225727 -0.234230 0.240181
v 0.500003 0.089207 0.500013
v 0.225727 0.110151 0.240181
v 0.500003 0.350879 0.500013
v 0.430002 0.350879 0.430014
v 0.430002 0.207995 0.430014
v 0.000003 -0.234230 0.000013
v 0.000003 -0.422060 0.081596
v -0.082675 -0.422060 0.081596
v -0.082675 -0.422060 0.000013
v 0.000003 -0.422060 0.000013
v -0.082675 -0.234230 0.081596
v -0.082675 -0.234230 0.000013
v 0.000003 -0.422060 -0.081570
v -0.082675 -0.422060 -0.081570
v -0.082675 -0.234230 -0.081570
v 0.000003 -0.234230 -0.081570
v 0.082681 -0.234230 0.000013
v 0.082681 -0.234230 0.081596
v 0.082681 -0.422060 0.081596
v 0.082681 -0.422060 0.000013
v 0.000003 -0.234230 0.081596
v 0.000003 -0.234230 0.000013
v 0.082681 -0.422060 -0.081570
v 0.082681 -0.234230 -0.081570
vt 0.497539 0.806823
vt 0.004436 0.806823
vt 0.004436 0.567239
vt 0.497539 0.567239
vt 0.619958 0.303249
vt 0.323282 0.303249
vt 0.323282 0.006574
vt 0.619958 0.006574
vt 0.500001 0.568904
vt 0.993104 0.568904
vt 0.993104 0.807618
vt 0.500001 0.807618
vt 0.500000 0.804077
vt 0.006897 0.804077
vt 0.006897 0.569985
vt 0.500000 0.569985
vt 0.736745 0.569624
vt 0.736745 0.807661
vt 0.265209 0.807661
vt 0.265209 0.569624
vt 0.429747 0.719329
vt 0.330184 0.719329
vt 0.330184 0.496718
vt 0.429747 0.496718
vt 0.429747 0.733573
vt 0.330185 0.733573
vt 0.330185 0.496718
vt 0.429747 0.496718
vt 0.669816 0.496718
vt 0.669816 0.719329
vt 0.570253 0.719329
vt 0.570253 0.496718
vt 0.330185 0.259862
vt 0.429747 0.259862
vt 0.429747 0.496718
vt 0.330185 0.496718
vt 0.498047 0.930535
vt 0.073978 0.930535
vt 0.004943 0.880103
vt 0.498047 0.880103
vt 0.508211 0.818489
vt 0.932280 0.818489
vt 1.001314 0.870258
vt 0.508211 0.870258
vt 0.010802 0.993646
vt 0.079837 0.940399
vt 0.503906 0.940399
vt 0.503906 0.993646
vt 0.988799 0.878785
vt 0.919765 0.934962
vt 0.495696 0.934962
vt 0.495696 0.878785
vt 0.425782 0.882232
vt 0.849851 0.882232
vt 0.849851 0.997923
vt 0.425782 0.997923
vt 0.425782 0.997923
vt 0.001713 0.997923
vt 0.001713 0.882232
vt 0.425782 0.882232
vt 0.849851 0.882232
vt 0.849851 0.997923
vt 0.425782 0.997923
vt 0.425782 0.882232
vt 0.849851 0.882232
vt 0.849851 0.997923
vt 0.425782 0.997923
vt 0.425782 0.882232
vt 0.006897 0.989821
vt 0.277389 0.733573
vt 0.500000 0.733573
vt 0.500000 0.989821
vt 0.006897 0.003614
vt 0.277389 0.259862
vt 0.277389 0.496718
vt 0.006897 0.496718
vt 0.500000 0.259862
vt 0.500000 0.003614
vt 0.722611 0.496718
vt 0.722611 0.259862
vt 0.993104 0.003614
vt 0.993104 0.496718
vt 0.429747 0.733573
vt 0.330185 0.733573
vt 0.993104 0.989821
vt 0.722611 0.733573
vt 0.991292 0.807516
vt 0.507595 0.807516
vt 0.507595 0.568224
vt 0.991292 0.568224
vt 0.071627 0.934962
vt 0.002592 0.878785
vt 0.001713 0.997923
vt 0.001713 0.882232
vt 0.304457 0.305080
vt 0.005850 0.305080
vt 0.005850 0.006474
vt 0.304457 0.006474
vt 0.849851 0.882232
vt 0.849851 0.997923
vt 0.015107 0.870258
vt 0.084142 0.818490
vt 0.993104 0.569984
vt 0.993104 0.804077
vt 0.330185 0.259862
vt 0.429747 0.259862
vt 0.570253 0.274107
vt 0.669816 0.274107
vt 0.006897 0.807618
vt 0.006897 0.568904
vt 0.927975 0.940399
vt 0.997010 0.993646
vt 0.001713 0.997923
vt 0.001713 0.882232
vt 0.615155 0.010711
vt 0.615155 0.301325
vt 0.324541 0.301325
vt 0.324541 0.010711
vt 0.927606 0.006363
vt 0.927606 0.302161
vt 0.631808 0.302161
vt 0.631808 0.006363
vt 0.001713 0.997923
vt 0.001713 0.882232
vt 0.991151 0.880103
vt 0.922116 0.930535
vt 0.990643 0.567239
vt 0.990643 0.806823
vt 0.330184 0.274107
vt 0.429747 0.274107
vt 0.500001 0.496718
vt 0.722611 0.496718
vt 0.722611 0.733573
vt 0.500001 0.733573
vt 0.669816 0.496718
vt 0.669816 0.733573
vt 0.669816 0.259862
vt 0.669816 0.496718
vt 0.669816 0.719329
vt 0.669816 0.274107
vt 0.669816 0.496718
vt 0.669816 0.733573
vt 0.669816 0.259862
vt 0.330185 0.274107
vt 0.330185 0.496718
vt 0.330185 0.719329
vt 0.500001 0.259862
vt 0.722611 0.259862
vt 0.277389 0.496718
vt 0.277389 0.259862
vt 0.277389 0.733573
vt 0.580459 0.496718
vt 0.580459 0.578256
vt 0.500000 0.578256
vt 0.500000 0.496718
vt 0.580459 0.404098
vt 0.580459 0.589338
vt 0.500000 0.589338
vt 0.500000 0.404098
vt 0.500001 0.589338
vt 0.418462 0.589338
vt 0.418462 0.404098
vt 0.500001 0.404098
vt 0.500000 0.589338
vt 0.419541 0.589338
vt 0.419541 0.404098
vt 0.500000 0.404098
vt 0.500000 0.589338
vt 0.418462 0.589338
vt 0.418462 0.404098
vt 0.500000 0.404098
vt 0.500000 0.578256
vt 0.419542 0.578256
vt 0.419542 0.496718
vt 0.500000 0.496718
vt 0.419541 0.589338
vt 0.419541 0.404098
vt 0.580459 0.578256
vt 0.580459 0.496718
vt 0.580459 0.404098
vt 0.580459 0.589338
vt 0.419542 0.578256
vt 0.419542 0.496718
vt 0.581538 0.404098
vt 0.581538 0.589338
vt 0.500000 0.415180
vt 0.580459 0.415180
vt 0.419542 0.415180
vt 0.581539 0.404098
vt 0.581539 0.589338
vt 0.500000 0.415180
vt 0.580459 0.415180
vt 0.419542 0.415180
vn 0.0000 -0.0000 1.0000
vn 0.0000 1.0000 0.0000
vn 0.0000 0.0000 -1.0000
vn -1.0000 -0.0000 0.0000
vn 1.0000 -0.0000 0.0000
vn 0.0407 -0.9985 -0.0375
vn 0.0390 -0.9985 -0.0393
vn 0.0000 -0.9968 -0.0803
vn 0.0408 -0.9985 0.0374
vn 0.0390 -0.9985 0.0393
vn 0.0761 -0.9971 -0.0000
vn 0.0000 -0.9968 0.0803
vn -0.0761 -0.9971 -0.0000
vn -0.0390 -0.9985 0.0393
vn -0.0408 -0.9985 0.0374
vn -0.0407 -0.9985 -0.0375
vn -0.0390 -0.9985 -0.0393
vn 0.0000 -1.0000 -0.0000
usemtl lambert46SG.002
s 1
f 1/1/1 2/2/1 3/3/1 4/4/1
f 5/5/2 6/6/2 7/7/2 8/8/2
f 9/9/3 10/10/3 11/11/3 12/12/3
f 13/13/4 11/14/4 10/15/4 14/16/4
f 15/17/5 16/18/5 17/19/5 18/20/5
f 19/21/1 20/22/1 21/23/1 22/24/1
f 23/25/4 24/26/4 25/27/4 26/28/4
f 27/29/3 24/30/3 23/31/3 28/32/3
f 29/33/5 30/34/5 31/35/5 32/36/5
f 33/37/2 34/38/2 2/39/2 1/40/2
f 35/41/2 36/42/2 11/43/2 13/44/2
f 11/45/2 36/46/2 37/47/2 12/48/2
f 16/49/2 38/50/2 39/51/2 17/52/2
f 40/53/3 41/54/3 34/55/3 33/56/3
f 7/57/5 6/58/5 36/59/5 35/60/5
f 36/61/1 6/62/1 5/63/1 37/64/1
f 38/65/4 42/66/4 43/67/4 39/68/4
f 3/69/6 44/70/7 45/71/8 4/72/8
f 10/73/9 46/74/10 47/75/11 14/76/11
f 48/77/12 46/74/10 10/73/9 9/78/12
f 49/79/13 50/80/14 15/81/15 18/82/13
f 51/83/5 52/84/5 32/36/5 31/35/5
f 53/85/16 54/86/17 49/79/13 18/82/13
f 17/87/5 55/88/5 53/89/5 18/90/5
f 39/51/2 56/91/2 55/92/2 17/52/2
f 43/67/4 57/93/4 56/94/4 39/68/4
f 8/95/2 7/96/2 41/97/2 40/98/2
f 34/99/5 41/100/5 7/57/5 35/60/5
f 2/101/2 34/102/2 35/41/2 13/44/2
f 3/103/4 2/104/4 13/13/4 14/16/4
f 47/75/11 44/70/7 3/69/6 14/76/11
f 20/105/4 19/106/4 26/28/4 25/27/4
f 30/107/3 29/108/3 27/29/3 28/32/3
f 15/81/15 50/80/14 48/77/12 9/78/12
f 16/109/3 15/110/3 9/9/3 12/12/3
f 37/47/2 38/111/2 16/112/2 12/48/2
f 5/63/1 42/113/1 38/114/1 37/64/1
f 43/115/2 42/116/2 5/117/2 8/118/2
f 57/119/2 43/120/2 8/121/2 40/122/2
f 56/123/3 57/124/3 40/53/3 33/56/3
f 55/125/2 56/126/2 33/37/2 1/40/2
f 53/127/1 55/128/1 1/1/1 4/4/1
f 45/71/8 54/86/17 53/85/16 4/72/8
f 52/129/1 51/130/1 22/24/1 21/23/1
f 58/131/18 32/132/18 52/133/18 21/134/18
f 47/135/4 46/136/4 23/25/4 26/28/4
f 19/106/4 44/137/4 47/135/4 26/28/4
f 45/138/1 44/139/1 19/21/1 22/24/1
f 51/130/1 54/140/1 45/138/1 22/24/1
f 49/141/5 54/142/5 51/83/5 31/35/5
f 30/34/5 50/143/5 49/141/5 31/35/5
f 50/144/3 30/107/3 28/32/3 48/145/3
f 23/31/3 46/146/3 48/145/3 28/32/3
f 27/147/18 29/148/18 32/132/18 58/131/18
f 25/149/18 24/150/18 27/147/18 58/131/18
f 25/149/18 58/131/18 21/134/18 20/151/18
f 59/152/18 60/153/18 61/154/18 62/155/18
f 60/156/4 63/157/4 64/158/4 61/159/4
f 65/160/3 66/161/3 67/162/3 68/163/3
f 69/164/5 70/165/5 71/166/5 72/167/5
f 73/168/1 63/169/1 60/170/1 59/171/1
f 64/172/2 63/173/2 73/174/2 74/175/2
f 64/158/4 67/176/4 66/177/4 61/159/4
f 67/178/2 64/172/2 74/175/2 68/179/2
f 75/180/5 76/181/5 69/164/5 72/167/5
f 62/155/18 61/154/18 66/182/18 65/183/18
f 76/184/3 75/185/3 65/160/3 68/163/3
f 74/175/2 69/186/2 76/187/2 68/179/2
f 73/174/2 70/188/2 69/186/2 74/175/2
f 71/189/1 70/190/1 73/168/1 59/171/1
f 72/191/18 71/192/18 59/152/18 62/155/18
f 75/193/18 72/191/18 62/155/18 65/183/18
