# Blender v2.91.2 OBJ File: ''
# www.blender.org
mtllib flower pot.mtl
o flower_pot.001
v -0.296484 -0.410984 0.296487
v 0.296488 -0.410984 0.296487
v 0.296488 0.181990 0.296488
v -0.296484 0.181990 0.296488
v -0.250023 0.047004 0.250027
v 0.250029 0.047004 0.250027
v 0.250029 0.047004 -0.250028
v -0.250023 0.047004 -0.250028
v -0.296484 0.181990 -0.296487
v 0.296488 0.181990 -0.296487
v 0.296488 -0.410984 -0.296488
v -0.296484 -0.410984 -0.296488
v 0.250029 0.181990 0.250028
v -0.250023 0.181990 0.250028
v 0.250029 0.181990 -0.250027
v -0.250023 0.181990 -0.250027
vt 0.194707 0.198457
vt 0.809821 0.198457
vt 0.809821 0.813571
vt 0.194707 0.813571
vt 0.242904 0.246651
vt 0.761625 0.246651
vt 0.761625 0.765377
vt 0.242904 0.765377
vt 0.194708 0.813571
vt 0.194708 0.198457
vt 0.809821 0.198457
vt 0.809821 0.813571
vt 0.194707 0.198457
vt 0.809821 0.813571
vt 0.194707 0.813571
vt 0.194707 0.813571
vt 0.194707 0.198457
vt 0.809821 0.198457
vt 0.194708 0.813571
vt 0.809821 0.198457
vt 0.809821 0.813571
vt 0.432250 0.765374
vt 0.432250 0.246654
vt 0.572278 0.246654
vt 0.572278 0.765374
vt 0.572277 0.246651
vt 0.572277 0.765377
vt 0.432251 0.765377
vt 0.432251 0.246651
vt 0.572278 0.246654
vt 0.572278 0.765374
vt 0.432250 0.765374
vt 0.432250 0.246654
vt 0.572277 0.246651
vt 0.572277 0.765377
vt 0.432251 0.765377
vt 0.432251 0.246651
vt 0.194708 0.198457
vt 0.809821 0.198457
vt 0.761625 0.246651
vt 0.242904 0.246651
vt 0.809821 0.813571
vt 0.761625 0.765377
vt 0.242904 0.765377
vn 0.0000 -0.0000 1.0000
vn 0.0000 1.0000 0.0000
vn 0.0000 0.0000 -1.0000
vn 0.0000 -1.0000 -0.0000
vn 1.0000 0.0000 0.0000
vn -1.0000 0.0000 0.0000
usemtl lambert13SG.002
s off
f 1/1/1 2/2/1 3/3/1 4/4/1
f 5/5/2 6/6/2 7/7/2 8/8/2
f 9/9/3 10/10/3 11/11/3 12/12/3
f 12/13/4 11/11/4 2/14/4 1/15/4
f 2/16/5 11/17/5 10/18/5 3/3/5
f 12/19/6 1/1/6 4/20/6 9/21/6
f 14/22/3 13/23/3 6/24/3 5/25/3
f 13/26/6 15/27/6 7/28/6 6/29/6
f 15/30/1 16/31/1 8/32/1 7/33/1
f 16/34/5 14/35/5 5/36/5 8/37/5
s 1
f 4/38/2 3/39/2 13/40/2 14/41/2
f 3/39/2 10/42/2 15/43/2 13/40/2
f 10/42/2 9/9/2 16/44/2 15/43/2
f 9/9/2 4/38/2 14/41/2 16/44/2
