# Blender v2.92.0 OBJ File: 'minecraft_assets.blend'
# www.blender.org
mtllib Campfire.mtl
o Campfire.004
v -0.374510 0.005548 0.406152
v 0.375668 0.005548 0.406152
v 0.375668 0.141395 0.406152
v -0.374510 0.141395 0.406152
v 0.375668 0.005548 0.259225
v 0.375668 0.141395 0.259225
v -0.374510 0.005548 0.259225
v -0.374510 0.141395 0.259225
v 0.366491 -0.120531 0.497403
v 0.366491 -0.120531 -0.502597
v 0.366491 0.015315 -0.502597
v 0.366491 0.015315 0.497403
v -0.365400 -0.120531 -0.502597
v -0.365400 -0.120531 0.497403
v -0.365400 0.015315 0.497403
v -0.365400 0.015315 -0.502597
v -0.244070 -0.083457 0.497403
v 0.241816 -0.083457 0.497403
v 0.241816 -0.083457 -0.502597
v -0.244070 -0.083457 -0.502597
v 0.241816 -0.120531 -0.502597
v 0.241816 0.015315 -0.502597
v 0.241816 -0.120531 0.497403
v 0.241816 0.015315 0.497403
v -0.244070 -0.120531 -0.502597
v -0.244070 -0.120531 0.497403
v -0.244070 0.015315 -0.502597
v -0.244070 0.015315 0.497403
v -0.374510 0.005548 -0.252731
v 0.375668 0.005548 -0.252731
v 0.375668 0.141395 -0.252731
v -0.374510 0.141395 -0.252731
v 0.375668 0.005548 -0.399658
v 0.375668 0.141395 -0.399658
v -0.374510 0.005548 -0.399658
v -0.374510 0.141395 -0.399658
vt 0.997430 0.998128
vt 0.003242 0.998128
vt 0.003242 0.753911
vt 0.997430 0.753911
vt 0.261407 0.754100
vt 0.489432 0.754100
vt 0.489432 0.997461
vt 0.261407 0.997461
vt 0.620110 0.922716
vt 0.620110 0.492457
vt 0.691616 0.492457
vt 0.691616 0.922716
vt 0.482005 0.996443
vt 0.261125 0.996443
vt 0.261125 0.757545
vt 0.482005 0.757545
vt 0.990001 0.998240
vt 0.009955 0.998240
vt 0.009955 0.757792
vt 0.990001 0.757792
vt 0.007279 0.998358
vt 0.007279 0.753303
vt 0.995610 0.753303
vt 0.995610 0.998358
vt 0.995143 0.928852
vt 0.008343 0.928852
vt 0.008343 0.761029
vt 0.995143 0.761029
vt 0.993217 0.993920
vt 0.014224 0.993920
vt 0.014224 0.820960
vt 0.993217 0.820960
vt 0.005252 0.493586
vt 0.005252 0.008794
vt 0.995682 0.008794
vt 0.995682 0.493586
vt 0.118774 0.563964
vt 0.052661 0.563964
vt 0.052661 0.492457
vt 0.118774 0.492457
vt 0.779268 0.488670
vt 0.779268 0.001992
vt 0.850775 0.001992
vt 0.850775 0.488670
vt 0.068004 0.639257
vt 0.001890 0.639257
vt 0.001890 0.567750
vt 0.068004 0.567750
vt 0.004576 0.820388
vt 0.995603 0.820388
vt 0.995603 0.996587
vt 0.004576 0.996587
vt 0.431005 0.001992
vt 0.500592 0.001992
vt 0.500592 0.488670
vt 0.431005 0.488670
vt 0.362598 0.996089
vt 0.362598 0.926502
vt 0.428712 0.926502
vt 0.428712 0.996089
vt 0.009754 0.820060
vt 0.983918 0.820060
vt 0.983918 0.992261
vt 0.009754 0.992261
vt 0.434703 0.996089
vt 0.434703 0.926502
vt 0.500817 0.926502
vt 0.500817 0.996089
vt 0.005003 0.820578
vt 0.994280 0.820578
vt 0.994280 0.932264
vt 0.005003 0.932264
vt 0.006517 0.816290
vt 0.990294 0.816290
vt 0.990294 0.935887
vt 0.006517 0.935887
vt 0.733561 0.491574
vt 0.272807 0.491574
vt 0.272807 0.443891
vt 0.733561 0.443891
vt 0.206686 0.442360
vt 0.789574 0.442360
vt 0.789574 0.496136
vt 0.206686 0.496136
vt 0.989523 1.000638
vt 0.007300 1.000638
vt 0.007300 0.759045
vt 0.989523 0.759045
vt 0.262561 0.754886
vt 0.488361 0.754886
vt 0.488361 0.999102
vt 0.262561 0.999102
vt 0.321586 0.922716
vt 0.321586 0.492457
vt 0.393093 0.492457
vt 0.393093 0.922716
vt 0.495619 0.999771
vt 0.259755 0.999771
vt 0.259755 0.750531
vt 0.495619 0.750531
vt 0.993216 0.990608
vt 0.012121 0.990608
vt 0.012121 0.760502
vt 0.993216 0.760502
vt 0.007582 0.996478
vt 0.007582 0.758283
vt 0.998690 0.758283
vt 0.998690 0.996478
vn 0.0000 -0.0000 1.0000
vn 1.0000 0.0000 0.0000
vn 0.0000 -1.0000 -0.0000
vn -1.0000 -0.0000 0.0000
vn 0.0000 1.0000 0.0000
vn 0.0000 0.0000 -1.0000
usemtl lambert9SG.004
s 1
f 1/1/1 2/2/1 3/3/1 4/4/1
f 5/5/2 6/6/2 3/7/2 2/8/2
f 7/9/3 5/10/3 2/11/3 1/12/3
f 8/13/4 7/14/4 1/15/4 4/16/4
f 4/17/5 3/18/5 6/19/5 8/20/5
f 6/21/6 5/22/6 7/23/6 8/24/6
f 9/25/2 10/26/2 11/27/2 12/28/2
f 13/29/4 14/30/4 15/31/4 16/32/4
f 17/33/5 18/34/5 19/35/5 20/36/5
f 21/37/6 22/38/6 11/39/6 10/40/6
f 23/41/3 21/42/3 10/43/3 9/44/3
f 24/45/1 23/46/1 9/47/1 12/48/1
f 12/49/5 11/50/5 22/51/5 24/52/5
f 13/53/3 25/54/3 26/55/3 14/56/3
f 16/57/6 27/58/6 25/59/6 13/60/6
f 28/61/5 27/62/5 16/63/5 15/64/5
f 14/65/1 26/66/1 28/67/1 15/68/1
f 24/69/4 22/70/4 19/71/4 18/72/4
f 27/73/2 28/74/2 17/75/2 20/76/2
f 21/42/3 23/41/3 26/55/3 25/54/3
f 20/77/6 19/78/6 21/79/6 25/80/6
f 18/81/1 17/82/1 26/83/1 23/84/1
f 29/85/1 30/86/1 31/87/1 32/88/1
f 33/89/2 34/90/2 31/91/2 30/92/2
f 35/93/3 33/94/3 30/95/3 29/96/3
f 36/97/4 35/98/4 29/99/4 32/100/4
f 32/101/5 31/102/5 34/103/5 36/104/5
f 34/105/6 33/106/6 35/107/6 36/108/6
