# Blender v2.92.0 OBJ File: 'minecraft_assets.blend'
# www.blender.org
mtllib Fence_3.mtl
o Fance_5.002_Fance_5.004
v -0.103057 -0.612949 -0.062224
v 0.103060 -0.612949 -0.062224
v 0.103060 -0.612949 0.063185
v -0.103057 -0.612949 0.063185
v -0.103057 0.385070 0.063185
v 0.103060 0.385070 0.063185
v 0.103060 0.385070 -0.062224
v -0.103057 0.385070 -0.062224
v -0.103057 0.343637 -0.062224
v -0.500631 0.343637 -0.062224
v -0.500631 0.343637 0.063185
v -0.103057 0.343637 0.063185
v 0.500634 0.343637 -0.062224
v 0.103060 0.343637 -0.062224
v 0.103060 0.343637 0.063185
v 0.500634 0.343637 0.063185
v 0.103060 -0.002855 0.063185
v 0.500634 -0.002855 0.063185
v 0.500634 -0.002855 -0.062224
v 0.103060 -0.002855 -0.062224
v -0.500631 -0.002855 0.063185
v -0.103057 -0.002855 0.063185
v -0.103057 -0.002855 -0.062224
v -0.500631 -0.002855 -0.062224
v -0.103057 -0.168621 0.063185
v -0.500631 -0.168621 0.063185
v -0.500631 -0.168621 -0.062224
v -0.103057 -0.168621 -0.062224
v -0.500631 0.173603 -0.062224
v -0.103057 0.173603 -0.062224
v -0.103057 0.173603 0.063185
v -0.500631 0.173603 0.063185
v 0.103060 0.173603 -0.062224
v 0.500634 0.173603 -0.062224
v 0.500634 0.173603 0.063185
v 0.103060 0.173603 0.063185
v 0.500634 -0.168621 0.063185
v 0.103060 -0.168621 0.063185
v 0.103060 -0.168621 -0.062224
v 0.500634 -0.168621 -0.062224
v -0.069923 -0.612949 -0.097849
v -0.103057 -0.612949 -0.097849
v -0.103057 0.385070 -0.097849
v 0.103060 0.385070 -0.097849
v 0.103060 -0.612949 -0.097849
v 0.069917 -0.612949 -0.097849
v 0.000001 -0.612949 -0.097849
v -0.103057 0.385070 0.095488
v -0.103057 -0.612949 0.095488
v -0.069923 -0.612949 0.095488
v 0.000001 -0.612949 0.095488
v 0.069917 -0.612949 0.095488
v 0.103060 -0.612949 0.095488
v 0.103060 0.385070 0.095488
v 0.069917 -0.612949 0.063185
v 0.069917 -0.612949 0.000481
v 0.103060 -0.612949 0.000481
v 0.069917 -0.612949 -0.062224
v 0.000001 -0.612949 0.063185
v 0.000001 -0.612949 0.000481
v 0.000001 -0.612949 -0.062224
v -0.069923 -0.612949 0.063185
v -0.103057 -0.612949 0.000481
v -0.069923 -0.612949 0.000481
v -0.069923 -0.612949 -0.062224
vt 0.511787 1.380845
vt 0.511787 1.635209
vt 0.357023 1.635209
vt 0.357023 1.380845
vt 0.158294 1.635209
vt 0.158294 1.380845
vt 0.313059 1.380845
vt 0.313059 1.635209
vt 0.897434 1.374308
vt 0.897434 1.864945
vt 0.742669 1.864945
vt 0.742669 1.374308
vt 1.802830 0.875770
vt 1.802830 1.366407
vt 1.648066 1.366407
vt 1.648066 0.875770
vt 1.595784 -0.377426
vt 1.595784 -0.868064
vt 1.750549 -0.868064
vt 1.750549 -0.377426
vt 1.475492 1.868064
vt 1.475492 1.377426
vt 1.630257 1.377426
vt 1.630257 1.868064
vt 0.538101 1.864945
vt 0.538101 1.374308
vt 0.692865 1.374308
vt 0.692865 1.864945
vt 1.866820 0.367576
vt 1.866820 0.858213
vt 1.712055 0.858213
vt 1.712055 0.367576
vt 1.802830 1.366407
vt 1.802830 1.857045
vt 1.648066 1.857045
vt 1.648066 1.366407
vt 1.595784 0.113211
vt 1.595784 -0.377426
vt 1.750549 -0.377426
vt 1.750549 0.113211
vt -0.826596 1.599211
vt -0.867486 1.599211
vt -0.867486 0.367576
vt -0.613121 0.367576
vt -0.613121 1.599211
vt -0.654022 1.599211
vt -0.740304 1.599211
vt -0.358756 0.367576
vt -0.358757 1.599211
vt -0.399647 1.599211
vt -0.485938 1.599211
vt -0.572220 1.599211
vt -0.613121 1.599211
vt -0.613121 0.367576
vt 0.997636 1.594308
vt 0.997636 1.635209
vt 0.957771 1.635209
vt 0.957771 1.594308
vt 1.075018 1.594308
vt 1.075018 1.635209
vt 1.152400 1.594308
vt 1.152400 1.635209
vt 1.196365 1.594308
vt 1.196365 1.635209
vt 0.997636 1.508026
vt 0.957771 1.508026
vt 1.075018 1.508026
vt 1.152400 1.508026
vt 1.196365 1.508026
vt 0.997636 1.421735
vt 0.957771 1.421735
vt 0.957771 1.380845
vt 0.997636 1.380845
vt 1.075018 1.380845
vt 1.075018 1.421735
vt 1.152400 1.380845
vt 1.152400 1.421735
vt 1.196365 1.380845
vt 1.196365 1.421735
vt 0.118430 1.635209
vt 0.118430 1.380845
vt 0.357023 1.635209
vt 0.357023 1.380845
vt -0.120163 1.599211
vt -0.120163 0.367576
vt -0.076199 0.367576
vt -0.076199 1.599211
vt -0.867486 -0.123062
vt -0.867486 -0.377426
vt -0.816354 -0.377426
vt -0.816354 -0.123062
vt 1.595784 -0.377426
vt 1.595784 -0.123062
vt 1.047448 -0.123062
vt 1.047448 -0.377426
vt -0.314792 1.599211
vt -0.314792 0.367576
vt -0.160028 0.367576
vt -0.160028 1.599211
vt 0.625116 -0.123062
vt 0.625116 0.367576
vt 0.415281 0.367576
vt 0.415281 -0.123062
vt -0.120163 1.803779
vt -0.120163 1.599211
vt 0.034601 1.599211
vt 0.034601 1.803779
vt 0.625116 -0.868064
vt 0.625116 -0.377426
vt 0.415281 -0.377426
vt 0.415281 -0.868064
vt -0.606519 -0.123062
vt -0.606519 -0.377426
vt -0.388756 -0.377426
vt -0.388756 -0.123062
vt -0.540149 1.599211
vt -0.385384 1.599211
vt -0.385384 1.809046
vt -0.540149 1.809046
vt -0.816354 -0.868064
vt -0.606519 -0.868064
vt 0.078565 0.367576
vt 0.078565 1.599211
vt -0.816354 0.367576
vt -0.606519 0.367576
vt 0.118430 1.599211
vt 0.118430 0.367576
vt 0.364149 -0.123062
vt 0.364149 -0.377426
vt 0.842879 -0.377426
vt 0.842879 -0.123062
vt -0.358756 1.599211
vt -0.203992 1.599211
vt -0.203992 1.803779
vt -0.358756 1.803779
vt -0.388756 -0.868064
vt -0.184187 -0.868064
vt -0.184187 -0.377426
vt -0.358756 1.599211
vt -0.358756 0.367576
vt -0.540149 1.809046
vt -0.694914 1.809046
vt -0.694914 1.599211
vt -0.540149 1.599211
vt -0.388756 0.367576
vt -0.184187 -0.123062
vt -0.184187 0.367576
vt 1.047448 0.367576
vt 0.842879 0.367576
vt 1.047448 -0.868064
vt 0.842879 -0.868064
vt -0.120163 0.367576
vt -0.120163 1.599211
vt 0.364149 -0.377426
vt 0.364149 -0.123062
vn 0.0000 -1.0000 0.0000
vn 0.0000 1.0000 0.0000
vn 0.0000 0.0000 -1.0000
vn 0.0000 -0.0000 1.0000
vn 1.0000 -0.0000 0.0000
vn -1.0000 0.0000 0.0000
usemtl lambert43SG
s off
f 1/1/1 2/2/1 3/3/1 4/4/1
f 5/5/2 6/6/2 7/7/2 8/8/2
f 9/9/2 10/10/2 11/11/2 12/12/2
f 13/13/2 14/14/2 15/15/2 16/16/2
f 17/17/2 18/18/2 19/19/2 20/20/2
f 21/21/2 22/22/2 23/23/2 24/24/2
f 25/25/1 26/26/1 27/27/1 28/28/1
f 29/29/1 30/30/1 31/31/1 32/32/1
f 33/33/1 34/34/1 35/35/1 36/36/1
f 37/37/1 38/38/1 39/39/1 40/40/1
f 41/41/3 42/42/3 43/43/3 44/44/3 45/45/3 46/46/3 47/47/3
f 48/48/4 49/49/4 50/50/4 51/51/4 52/52/4 53/53/4 54/54/4
s 1
f 55/55/1 3/56/1 53/57/1 52/58/1
f 3/56/1 55/55/1 56/59/1 57/60/1
f 57/60/1 56/59/1 58/61/1 2/62/1
f 2/62/1 58/61/1 46/63/1 45/64/1
f 59/65/1 55/55/1 52/58/1 51/66/1
f 55/55/1 59/65/1 60/67/1 56/59/1
f 56/59/1 60/67/1 61/68/1 58/61/1
f 58/61/1 61/68/1 47/69/1 46/63/1
f 62/70/1 50/71/1 49/72/1 4/73/1
f 4/73/1 63/74/1 64/75/1 62/70/1
f 63/74/1 1/76/1 65/77/1 64/75/1
f 1/76/1 42/78/1 41/79/1 65/77/1
f 5/5/2 6/6/2 7/7/2 8/8/2
f 48/80/2 54/81/2 6/6/2 5/5/2
f 43/82/2 8/8/2 7/7/2 44/83/2
f 45/84/5 44/85/5 7/86/5 2/87/5
f 59/65/1 51/66/1 50/71/1 62/70/1
f 62/70/1 64/75/1 60/67/1 59/65/1
f 64/75/1 65/77/1 61/68/1 60/67/1
f 65/77/1 41/79/1 47/69/1 61/68/1
f 8/88/3 7/89/3 14/90/3 9/91/3
f 4/92/4 3/93/4 38/94/4 25/95/4
f 8/96/6 1/97/6 4/98/6 5/99/6
f 36/100/4 35/101/4 16/102/4 15/103/4
f 18/104/5 37/105/5 40/106/5 19/107/5
f 32/108/4 31/109/4 12/110/4 11/111/4
f 30/112/3 33/113/3 20/114/3 23/115/3
f 31/109/4 36/100/4 15/103/4 12/110/4
f 11/116/6 10/117/6 29/118/6 32/119/6
f 14/90/3 13/120/3 34/121/3 33/113/3
f 6/122/5 3/123/5 2/87/5 7/86/5
f 10/124/3 9/91/3 30/112/3 29/125/3
f 9/91/3 14/90/3 33/113/3 30/112/3
f 53/126/5 3/123/5 6/122/5 54/127/5
f 12/110/4 15/103/4 6/128/4 5/129/4
f 22/130/4 17/131/4 36/100/4 31/109/4
f 21/132/6 24/133/6 27/134/6 26/135/6
f 20/114/3 19/136/3 40/137/3 39/138/3
f 1/97/6 8/96/6 43/139/6 42/140/6
f 13/141/5 16/142/5 35/143/5 34/144/5
f 24/145/3 23/115/3 28/146/3 27/147/3
f 23/115/3 20/114/3 39/138/3 28/146/3
f 38/94/4 37/148/4 18/149/4 17/131/4
f 26/150/4 25/95/4 22/130/4 21/151/4
f 25/95/4 38/94/4 17/131/4 22/130/4
f 5/99/6 4/98/6 49/152/6 48/153/6
f 28/146/3 39/138/3 2/154/3 1/155/3
