# Blender v2.92.0 OBJ File: 'minecraft_assets.blend'
# www.blender.org
mtllib Fence_5.mtl
o Fance_5
v -0.103057 -0.612949 -0.062224
v 0.103060 -0.612949 -0.062224
v 0.103060 -0.612949 0.063185
v -0.103057 -0.612949 0.063185
v -0.103057 0.385070 0.063185
v 0.103060 0.385070 0.063185
v 0.103060 0.385070 -0.062224
v -0.103057 0.385070 -0.062224
v 0.069917 0.343637 0.092844
v 0.069917 0.343637 0.502117
v 0.069917 0.173603 0.502117
v 0.069917 0.173603 0.092844
v 0.069917 0.343637 -0.501161
v 0.069917 0.343637 -0.094658
v 0.069917 0.173603 -0.094658
v 0.069917 0.173603 -0.501161
v -0.069923 0.343637 0.502117
v -0.069923 0.343637 0.092844
v -0.069923 0.173603 0.092844
v -0.069923 0.173603 0.502117
v -0.069923 0.343637 -0.094658
v -0.069923 0.343637 -0.501161
v -0.069923 0.173603 -0.501161
v -0.069923 0.173603 -0.094658
v 0.069917 -0.002855 0.092844
v 0.069917 -0.002855 0.502117
v 0.069917 -0.168621 0.502117
v 0.069917 -0.168621 0.092844
v 0.069917 -0.002855 -0.501161
v 0.069917 -0.002855 -0.089361
v 0.069917 -0.168621 -0.089361
v 0.069917 -0.168621 -0.501161
v -0.069922 -0.002855 0.502117
v -0.069923 -0.002855 0.092844
v -0.069923 -0.168621 0.092844
v -0.069922 -0.168621 0.502117
v -0.069923 -0.002855 -0.089361
v -0.069923 -0.002855 -0.501161
v -0.069923 -0.168621 -0.501161
v -0.069923 -0.168621 -0.089361
v -0.103057 0.343637 -0.062224
v -0.500631 0.343637 -0.062224
v -0.500631 0.343637 0.063185
v -0.103057 0.343637 0.063185
v 0.500634 0.343637 -0.062224
v 0.103060 0.343637 -0.062224
v 0.103060 0.343637 0.063185
v 0.500634 0.343637 0.063185
v 0.103060 -0.002855 0.063185
v 0.500634 -0.002855 0.063185
v 0.500634 -0.002855 -0.062224
v 0.103060 -0.002855 -0.062224
v -0.500631 -0.002855 0.063185
v -0.103057 -0.002855 0.063185
v -0.103057 -0.002855 -0.062224
v -0.500631 -0.002855 -0.062224
v -0.103057 -0.168621 0.063185
v -0.500631 -0.168621 0.063185
v -0.500631 -0.168621 -0.062224
v -0.103057 -0.168621 -0.062224
v -0.500631 0.173603 -0.062224
v -0.103057 0.173603 -0.062224
v -0.103057 0.173603 0.063185
v -0.500631 0.173603 0.063185
v 0.103060 0.173603 -0.062224
v 0.500634 0.173603 -0.062224
v 0.500634 0.173603 0.063185
v 0.103060 0.173603 0.063185
v 0.500634 -0.168621 0.063185
v 0.103060 -0.168621 0.063185
v 0.103060 -0.168621 -0.062224
v 0.500634 -0.168621 -0.062224
v -0.069923 -0.612949 -0.097849
v -0.103057 -0.612949 -0.097849
v -0.103057 0.385070 -0.097849
v 0.103060 0.385070 -0.097849
v 0.103060 -0.612949 -0.097849
v 0.069917 -0.612949 -0.097849
v 0.000001 -0.612949 -0.097849
v -0.103057 0.385070 0.095488
v -0.103057 -0.612949 0.095488
v -0.069923 -0.612949 0.095488
v 0.000001 -0.612949 0.095488
v 0.069917 -0.612949 0.095488
v 0.103060 -0.612949 0.095488
v 0.103060 0.385070 0.095488
v 0.069917 -0.612949 0.063185
v 0.069917 -0.612949 0.000481
v 0.103060 -0.612949 0.000481
v 0.069917 -0.612949 -0.062224
v 0.000001 -0.612949 0.063185
v 0.000001 -0.612949 0.000481
v 0.000001 -0.612949 -0.062224
v -0.069923 -0.612949 0.063185
v -0.103057 -0.612949 0.000481
v -0.069923 -0.612949 0.000481
v -0.069923 -0.612949 -0.062224
vt 0.511787 1.380845
vt 0.511787 1.635209
vt 0.357023 1.635209
vt 0.357023 1.380845
vt 0.158294 1.635209
vt 0.158294 1.380845
vt 0.313059 1.380845
vt 0.313059 1.635209
vt 0.328265 0.367576
vt 0.328265 0.872651
vt 0.118430 0.872651
vt 0.118430 0.367576
vt 0.957771 0.367576
vt 0.957771 0.869233
vt 0.747936 0.869233
vt 0.747936 0.367576
vt 0.328265 0.872651
vt 0.328265 0.367576
vt 0.538100 0.367576
vt 0.538100 0.872651
vt 0.538101 0.869233
vt 0.538101 0.367576
vt 0.747936 0.367576
vt 0.747936 0.869233
vt 0.742669 0.869233
vt 0.742669 1.374308
vt 0.538101 1.374308
vt 0.538101 0.869233
vt 1.366908 0.367576
vt 1.366908 0.875770
vt 1.162340 0.875770
vt 1.162340 0.367576
vt 0.742669 1.374308
vt 0.742669 0.869233
vt 0.947237 0.869233
vt 0.947237 1.374308
vt 0.957771 0.875770
vt 0.957771 0.367576
vt 1.162340 0.367576
vt 1.162340 0.875770
vt 0.897434 1.374308
vt 0.897434 1.864945
vt 0.742669 1.864945
vt 0.742669 1.374308
vt 1.802830 0.875770
vt 1.802830 1.366407
vt 1.648066 1.366407
vt 1.648066 0.875770
vt 1.595784 -0.377426
vt 1.595784 -0.868064
vt 1.750549 -0.868064
vt 1.750549 -0.377426
vt 1.475492 1.868064
vt 1.475492 1.377426
vt 1.630257 1.377426
vt 1.630257 1.868064
vt 0.538101 1.864945
vt 0.538101 1.374308
vt 0.692865 1.374308
vt 0.692865 1.864945
vt 1.866820 0.367576
vt 1.866820 0.858213
vt 1.712055 0.858213
vt 1.712055 0.367576
vt 1.802830 1.366407
vt 1.802830 1.857045
vt 1.648066 1.857045
vt 1.648066 1.366407
vt 1.595784 0.113211
vt 1.595784 -0.377426
vt 1.750549 -0.377426
vt 1.750549 0.113211
vt -0.826596 1.599211
vt -0.867486 1.599211
vt -0.867486 0.367576
vt -0.613121 0.367576
vt -0.613121 1.599211
vt -0.654022 1.599211
vt -0.740304 1.599211
vt 1.475492 1.377426
vt 1.475492 0.875770
vt 1.648066 0.875770
vt 1.648065 1.377426
vt 1.712055 0.367576
vt 1.712055 0.869233
vt 1.539482 0.869233
vt 1.539482 0.367576
vt -0.358756 0.367576
vt -0.358757 1.599211
vt -0.399647 1.599211
vt -0.485938 1.599211
vt -0.572220 1.599211
vt -0.613121 1.599211
vt -0.613121 0.367576
vt 1.302919 1.380845
vt 1.302919 0.875770
vt 1.475492 0.875770
vt 1.475492 1.380845
vt 1.130345 0.875770
vt 1.130345 1.380845
vt 0.957771 1.380845
vt 0.957771 0.875770
vt 1.539482 0.367576
vt 1.539482 0.872651
vt 1.366909 0.872651
vt 1.366908 0.367576
vt 0.118430 1.380845
vt 0.118430 0.872651
vt 0.291003 0.872651
vt 0.291003 1.380845
vt 0.463577 0.872651
vt 0.463577 1.380845
vt 0.291003 1.380845
vt 0.291003 0.872651
vt 1.130345 1.380845
vt 1.130345 0.875770
vt 1.302919 0.875770
vt 1.302917 1.380845
vt 0.997636 1.594308
vt 0.997636 1.635209
vt 0.957771 1.635209
vt 0.957771 1.594308
vt 1.075018 1.594308
vt 1.075018 1.635209
vt 1.152400 1.594308
vt 1.152400 1.635209
vt 1.196365 1.594308
vt 1.196365 1.635209
vt 1.595784 0.323047
vt 1.595784 0.113211
vt 1.768358 0.113211
vt 1.768358 0.323047
vt 0.997636 1.508026
vt 0.957771 1.508026
vt 1.075018 1.508026
vt 1.152400 1.508026
vt 1.196365 1.508026
vt 0.997636 1.421735
vt 0.957771 1.421735
vt 0.957771 1.380845
vt 0.997636 1.380845
vt 1.075018 1.380845
vt 1.075018 1.421735
vt 1.152400 1.380845
vt 1.152400 1.421735
vt 1.196365 1.380845
vt 1.196365 1.421735
vt 0.118430 1.635209
vt 0.118430 1.380845
vt 0.357023 1.635209
vt 0.357023 1.380845
vt -0.120163 1.599211
vt -0.120163 0.367576
vt -0.076199 0.367576
vt -0.076199 1.599211
vt -0.867486 -0.123062
vt -0.867486 -0.377426
vt -0.816354 -0.377426
vt -0.816354 -0.123062
vt 1.595784 -0.377426
vt 1.595784 -0.123062
vt 1.047448 -0.123062
vt 1.047448 -0.377426
vt -0.314792 1.599211
vt -0.314792 0.367576
vt -0.160028 0.367576
vt -0.160028 1.599211
vt 0.625116 -0.123062
vt 0.625116 0.367576
vt 0.415281 0.367576
vt 0.415281 -0.123062
vt -0.120163 1.803779
vt -0.120163 1.599211
vt 0.034601 1.599211
vt 0.034601 1.803779
vt 0.625116 -0.868064
vt 0.625116 -0.377426
vt 0.415281 -0.377426
vt 0.415281 -0.868064
vt -0.606519 -0.123062
vt -0.606519 -0.377426
vt -0.388756 -0.377426
vt -0.388756 -0.123062
vt -0.540149 1.599211
vt -0.385384 1.599211
vt -0.385384 1.809046
vt -0.540149 1.809046
vt -0.816354 -0.868064
vt -0.606519 -0.868064
vt 0.078565 0.367576
vt 0.078565 1.599211
vt -0.816354 0.367576
vt -0.606519 0.367576
vt 0.118430 1.599211
vt 0.118430 0.367576
vt 0.364149 -0.123062
vt 0.364149 -0.377426
vt 0.842879 -0.377426
vt 0.842879 -0.123062
vt 1.196365 1.795248
vt 1.196365 1.590680
vt 1.368938 1.590680
vt 1.368938 1.795248
vt -0.358756 1.599211
vt -0.203992 1.599211
vt -0.203992 1.803779
vt -0.358756 1.803779
vt -0.388756 -0.868064
vt -0.184187 -0.868064
vt -0.184187 -0.377426
vt -0.358756 1.599211
vt -0.358756 0.367576
vt -0.540149 1.809046
vt -0.694914 1.809046
vt -0.694914 1.599211
vt -0.540149 1.599211
vt -0.388756 0.367576
vt -0.184187 -0.123062
vt -0.184187 0.367576
vt 1.047448 0.367576
vt 0.842879 0.367576
vt 1.047448 -0.868064
vt 0.842879 -0.868064
vt -0.120163 0.367576
vt -0.120163 1.599211
vt 0.364149 -0.377426
vt 0.364149 -0.123062
vt 1.368938 1.380845
vt 1.368938 1.590680
vt 1.196365 1.590680
vt 1.196365 1.380845
vt -0.694914 1.599211
vt -0.694914 1.803779
vt -0.867486 1.803779
vt -0.867486 1.599211
vn 0.0000 -1.0000 0.0000
vn 0.0000 1.0000 0.0000
vn 1.0000 0.0000 0.0000
vn -1.0000 0.0000 0.0000
vn 0.0000 0.0000 -1.0000
vn 0.0000 -0.0000 1.0000
usemtl lambert43SG
s off
f 1/1/1 2/2/1 3/3/1 4/4/1
f 5/5/2 6/6/2 7/7/2 8/8/2
f 9/9/3 10/10/3 11/11/3 12/12/3
f 13/13/3 14/14/3 15/15/3 16/16/3
f 17/17/4 18/18/4 19/19/4 20/20/4
f 21/21/4 22/22/4 23/23/4 24/24/4
f 25/25/3 26/26/3 27/27/3 28/28/3
f 29/29/3 30/30/3 31/31/3 32/32/3
f 33/33/4 34/34/4 35/35/4 36/36/4
f 37/37/4 38/38/4 39/39/4 40/40/4
f 41/41/2 42/42/2 43/43/2 44/44/2
f 45/45/2 46/46/2 47/47/2 48/48/2
f 49/49/2 50/50/2 51/51/2 52/52/2
f 53/53/2 54/54/2 55/55/2 56/56/2
f 57/57/1 58/58/1 59/59/1 60/60/1
f 61/61/1 62/62/1 63/63/1 64/64/1
f 65/65/1 66/66/1 67/67/1 68/68/1
f 69/69/1 70/70/1 71/71/1 72/72/1
f 73/73/5 74/74/5 75/75/5 76/76/5 77/77/5 78/78/5 79/79/5
f 14/80/2 13/81/2 22/82/2 21/83/2
f 16/84/1 15/85/1 24/86/1 23/87/1
f 80/88/6 81/89/6 82/90/6 83/91/6 84/92/6 85/93/6 86/94/6
f 10/95/2 9/96/2 18/97/2 17/98/2
f 12/99/1 11/100/1 20/101/1 19/102/1
f 28/103/1 27/104/1 36/105/1 35/106/1
f 30/107/2 29/108/2 38/109/2 37/110/2
f 32/111/1 31/112/1 40/113/1 39/114/1
f 26/115/2 25/116/2 34/117/2 33/118/2
s 1
f 87/119/1 3/120/1 85/121/1 84/122/1
f 3/120/1 87/119/1 88/123/1 89/124/1
f 89/124/1 88/123/1 90/125/1 2/126/1
f 2/126/1 90/125/1 78/127/1 77/128/1
f 23/129/5 22/130/5 13/131/5 16/132/5
f 91/133/1 87/119/1 84/122/1 83/134/1
f 87/119/1 91/133/1 92/135/1 88/123/1
f 88/123/1 92/135/1 93/136/1 90/125/1
f 90/125/1 93/136/1 79/137/1 78/127/1
f 94/138/1 82/139/1 81/140/1 4/141/1
f 4/141/1 95/142/1 96/143/1 94/138/1
f 95/142/1 1/144/1 97/145/1 96/143/1
f 1/144/1 74/146/1 73/147/1 97/145/1
f 5/5/2 6/6/2 7/7/2 8/8/2
f 80/148/2 86/149/2 6/6/2 5/5/2
f 75/150/2 8/8/2 7/7/2 76/151/2
f 77/152/3 76/153/3 7/154/3 2/155/3
f 91/133/1 83/134/1 82/139/1 94/138/1
f 94/138/1 96/143/1 92/135/1 91/133/1
f 96/143/1 97/145/1 93/136/1 92/135/1
f 97/145/1 73/147/1 79/137/1 93/136/1
f 8/156/5 7/157/5 46/158/5 41/159/5
f 4/160/6 3/161/6 70/162/6 57/163/6
f 8/164/4 1/165/4 4/166/4 5/167/4
f 68/168/6 67/169/6 48/170/6 47/171/6
f 50/172/3 69/173/3 72/174/3 51/175/3
f 64/176/6 63/177/6 44/178/6 43/179/6
f 62/180/5 65/181/5 52/182/5 55/183/5
f 63/177/6 68/168/6 47/171/6 44/178/6
f 43/184/4 42/185/4 61/186/4 64/187/4
f 46/158/5 45/188/5 66/189/5 65/181/5
f 6/190/3 3/191/3 2/155/3 7/154/3
f 42/192/5 41/159/5 62/180/5 61/193/5
f 41/159/5 46/158/5 65/181/5 62/180/5
f 85/194/3 3/191/3 6/190/3 86/195/3
f 44/178/6 47/171/6 6/196/6 5/197/6
f 54/198/6 49/199/6 68/168/6 63/177/6
f 39/200/5 38/201/5 29/202/5 32/203/5
f 53/204/4 56/205/4 59/206/4 58/207/4
f 52/182/5 51/208/5 72/209/5 71/210/5
f 1/165/4 8/164/4 75/211/4 74/212/4
f 45/213/3 48/214/3 67/215/3 66/216/3
f 56/217/5 55/183/5 60/218/5 59/219/5
f 55/183/5 52/182/5 71/210/5 60/218/5
f 70/162/6 69/220/6 50/221/6 49/199/6
f 58/222/6 57/163/6 54/198/6 53/223/6
f 57/163/6 70/162/6 49/199/6 54/198/6
f 5/167/4 4/166/4 81/224/4 80/225/4
f 60/218/5 71/210/5 2/226/5 1/227/5
f 17/228/6 20/229/6 11/230/6 10/231/6
f 33/232/6 36/233/6 27/234/6 26/235/6
