# Blender v2.92.0 OBJ File: 'minecraft_assets.blend'
# www.blender.org
mtllib Fence_1.mtl
o Fance_5.002_Fance_5.004
v -0.103057 -0.612949 -0.062224
v 0.103060 -0.612949 -0.062224
v 0.103060 -0.612949 0.063185
v -0.103057 -0.612949 0.063185
v -0.103057 0.385070 0.063185
v 0.103060 0.385070 0.063185
v 0.103060 0.385070 -0.062224
v -0.103057 0.385070 -0.062224
v 0.500634 0.343637 -0.062224
v 0.103060 0.343637 -0.062224
v 0.103060 0.343637 0.063185
v 0.500634 0.343637 0.063185
v 0.103060 -0.002855 0.063185
v 0.500634 -0.002855 0.063185
v 0.500634 -0.002855 -0.062224
v 0.103060 -0.002855 -0.062224
v 0.103060 0.173603 -0.062224
v 0.500634 0.173603 -0.062224
v 0.500634 0.173603 0.063185
v 0.103060 0.173603 0.063185
v 0.500634 -0.168621 0.063185
v 0.103060 -0.168621 0.063185
v 0.103060 -0.168621 -0.062224
v 0.500634 -0.168621 -0.062224
v -0.069923 -0.612949 -0.097849
v -0.103057 -0.612949 -0.097849
v -0.103057 0.385070 -0.097849
v 0.103060 0.385070 -0.097849
v 0.103060 -0.612949 -0.097849
v 0.069917 -0.612949 -0.097849
v 0.000001 -0.612949 -0.097849
v -0.103057 0.385070 0.095488
v -0.103057 -0.612949 0.095488
v -0.069923 -0.612949 0.095488
v 0.000001 -0.612949 0.095488
v 0.069917 -0.612949 0.095488
v 0.103060 -0.612949 0.095488
v 0.103060 0.385070 0.095488
v 0.069917 -0.612949 0.063185
v 0.069917 -0.612949 0.000481
v 0.103060 -0.612949 0.000481
v 0.069917 -0.612949 -0.062224
v 0.000001 -0.612949 0.063185
v 0.000001 -0.612949 0.000481
v 0.000001 -0.612949 -0.062224
v -0.069923 -0.612949 0.063185
v -0.103057 -0.612949 0.000481
v -0.069923 -0.612949 0.000481
v -0.069923 -0.612949 -0.062224
vt 0.511787 1.380845
vt 0.511787 1.635209
vt 0.357023 1.635209
vt 0.357023 1.380845
vt 0.158294 1.635209
vt 0.158294 1.380845
vt 0.313059 1.380845
vt 0.313059 1.635209
vt 1.802830 0.875770
vt 1.802830 1.366407
vt 1.648066 1.366407
vt 1.648066 0.875770
vt 1.595784 -0.377426
vt 1.595784 -0.868064
vt 1.750549 -0.868064
vt 1.750549 -0.377426
vt 1.802830 1.366407
vt 1.802830 1.857045
vt 1.648066 1.857045
vt 1.648066 1.366407
vt 1.595784 0.113211
vt 1.595784 -0.377426
vt 1.750549 -0.377426
vt 1.750549 0.113211
vt -0.826596 1.599211
vt -0.867486 1.599211
vt -0.867486 0.367576
vt -0.613121 0.367576
vt -0.613121 1.599211
vt -0.654022 1.599211
vt -0.740304 1.599211
vt -0.358756 0.367576
vt -0.358757 1.599211
vt -0.399647 1.599211
vt -0.485938 1.599211
vt -0.572220 1.599211
vt -0.613121 1.599211
vt -0.613121 0.367576
vt 0.997636 1.594308
vt 0.997636 1.635209
vt 0.957771 1.635209
vt 0.957771 1.594308
vt 1.075018 1.594308
vt 1.075018 1.635209
vt 1.152400 1.594308
vt 1.152400 1.635209
vt 1.196365 1.594308
vt 1.196365 1.635209
vt 0.997636 1.508026
vt 0.957771 1.508026
vt 1.075018 1.508026
vt 1.152400 1.508026
vt 1.196365 1.508026
vt 0.997636 1.421735
vt 0.957771 1.421735
vt 0.957771 1.380845
vt 0.997636 1.380845
vt 1.075018 1.380845
vt 1.075018 1.421735
vt 1.152400 1.380845
vt 1.152400 1.421735
vt 1.196365 1.380845
vt 1.196365 1.421735
vt 0.118430 1.635209
vt 0.118430 1.380845
vt 0.357023 1.635209
vt 0.357023 1.380845
vt -0.120163 1.599211
vt -0.120163 0.367576
vt -0.076199 0.367576
vt -0.076199 1.599211
vt -0.314792 1.599211
vt -0.314792 0.367576
vt -0.160028 0.367576
vt -0.160028 1.599211
vt 0.625116 -0.123062
vt 0.625116 0.367576
vt 0.415281 0.367576
vt 0.415281 -0.123062
vt -0.120163 1.803779
vt -0.120163 1.599211
vt 0.034601 1.599211
vt 0.034601 1.803779
vt -0.816354 -0.377426
vt -0.816354 -0.868064
vt -0.606519 -0.868064
vt -0.606519 -0.377426
vt 0.078565 0.367576
vt 0.078565 1.599211
vt 0.118430 1.599211
vt 0.118430 0.367576
vt -0.388756 -0.377426
vt -0.388756 -0.868064
vt -0.184187 -0.868064
vt -0.184187 -0.377426
vt -0.358756 1.599211
vt -0.358756 0.367576
vt -0.540149 1.809046
vt -0.694914 1.809046
vt -0.694914 1.599211
vt -0.540149 1.599211
vt 1.047448 -0.123062
vt 1.047448 0.367576
vt 0.842879 0.367576
vt 0.842879 -0.123062
vt -0.120163 0.367576
vt -0.120163 1.599211
vn 0.0000 -1.0000 0.0000
vn 0.0000 1.0000 0.0000
vn 0.0000 0.0000 -1.0000
vn 0.0000 -0.0000 1.0000
vn 1.0000 -0.0000 0.0000
vn -1.0000 0.0000 0.0000
usemtl lambert43SG
s off
f 1/1/1 2/2/1 3/3/1 4/4/1
f 5/5/2 6/6/2 7/7/2 8/8/2
f 9/9/2 10/10/2 11/11/2 12/12/2
f 13/13/2 14/14/2 15/15/2 16/16/2
f 17/17/1 18/18/1 19/19/1 20/20/1
f 21/21/1 22/22/1 23/23/1 24/24/1
f 25/25/3 26/26/3 27/27/3 28/28/3 29/29/3 30/30/3 31/31/3
f 32/32/4 33/33/4 34/34/4 35/35/4 36/36/4 37/37/4 38/38/4
s 1
f 39/39/1 3/40/1 37/41/1 36/42/1
f 3/40/1 39/39/1 40/43/1 41/44/1
f 41/44/1 40/43/1 42/45/1 2/46/1
f 2/46/1 42/45/1 30/47/1 29/48/1
f 43/49/1 39/39/1 36/42/1 35/50/1
f 39/39/1 43/49/1 44/51/1 40/43/1
f 40/43/1 44/51/1 45/52/1 42/45/1
f 42/45/1 45/52/1 31/53/1 30/47/1
f 46/54/1 34/55/1 33/56/1 4/57/1
f 4/57/1 47/58/1 48/59/1 46/54/1
f 47/58/1 1/60/1 49/61/1 48/59/1
f 1/60/1 26/62/1 25/63/1 49/61/1
f 5/5/2 6/6/2 7/7/2 8/8/2
f 32/64/2 38/65/2 6/6/2 5/5/2
f 27/66/2 8/8/2 7/7/2 28/67/2
f 29/68/5 28/69/5 7/70/5 2/71/5
f 43/49/1 35/50/1 34/55/1 46/54/1
f 46/54/1 48/59/1 44/51/1 43/49/1
f 48/59/1 49/61/1 45/52/1 44/51/1
f 49/61/1 25/63/1 31/53/1 45/52/1
f 8/72/6 1/73/6 4/74/6 5/75/6
f 20/76/4 19/77/4 12/78/4 11/79/4
f 14/80/5 21/81/5 24/82/5 15/83/5
f 10/84/3 9/85/3 18/86/3 17/87/3
f 6/88/5 3/89/5 2/71/5 7/70/5
f 37/90/5 3/89/5 6/88/5 38/91/5
f 16/92/3 15/93/3 24/94/3 23/95/3
f 1/73/6 8/72/6 27/96/6 26/97/6
f 9/98/5 12/99/5 19/100/5 18/101/5
f 22/102/4 21/103/4 14/104/4 13/105/4
f 5/75/6 4/74/6 33/106/6 32/107/6
l 6 11
l 7 10
l 3 22
l 2 23
l 13 20
l 16 17
