# Blender v2.91.2 OBJ File: ''
# www.blender.org
mtllib Sea_Pickle.mtl
o Sea_Pickle
v -0.061197 -0.264991 0.061149
v 0.061197 -0.264991 0.061149
v 0.061197 0.080544 0.061149
v -0.061197 0.080544 0.061149
v -0.043375 0.023360 0.043339
v 0.043375 0.023360 0.043339
v 0.043375 0.023360 -0.043339
v -0.043375 0.023360 -0.043339
v -0.061197 0.080544 -0.061149
v 0.061197 0.080544 -0.061149
v 0.061197 -0.264991 -0.061149
v -0.061197 -0.264991 -0.061149
v 0.061197 0.080544 0.061149
v -0.061197 0.080544 0.061149
v 0.061197 0.080544 -0.061149
v -0.061197 0.080544 -0.061149
v 0.043375 0.080544 0.043339
v -0.043375 0.080544 0.043339
v 0.043375 0.080544 -0.043339
v -0.043375 0.080544 -0.043339
vt 0.393722 0.594936
vt 0.393722 0.405064
vt 0.606278 0.405064
vt 0.606278 0.594936
vt 0.391579 0.391579
vt 0.608421 0.391579
vt 0.608421 0.608421
vt 0.391579 0.608421
vt 0.393722 0.594936
vt 0.393722 0.405064
vt 0.606278 0.405064
vt 0.606278 0.594936
vt 0.393722 0.594936
vt 0.393722 0.405064
vt 0.606278 0.405064
vt 0.606278 0.594936
vt 0.393722 0.594936
vt 0.393722 0.405064
vt 0.606278 0.405064
vt 0.606278 0.594936
vt 0.609549 0.390451
vt 0.390451 0.390451
vt 0.390451 0.609549
vt 0.609549 0.609549
vt 0.391579 0.391579
vt 0.608421 0.391579
vt 0.608421 0.392720
vt 0.391579 0.392720
vt 0.608421 0.608421
vt 0.608421 0.609562
vt 0.391579 0.608421
vt 0.391579 0.609562
vt 0.377618 0.377715
vt 0.622381 0.377715
vt 0.586744 0.413332
vt 0.413263 0.413332
vt 0.622381 0.622285
vt 0.586744 0.586668
vt 0.377618 0.622285
vt 0.413263 0.586668
vt 0.391579 0.392720
vt 0.608421 0.392720
vt 0.608421 0.609562
vt 0.391579 0.609562
vn 0.0000 -0.0000 1.0000
vn 0.0000 1.0000 0.0000
vn 0.0000 0.0000 -1.0000
vn 1.0000 0.0000 0.0000
vn -1.0000 0.0000 0.0000
vn 0.0000 -1.0000 0.0000
vn 0.0000 0.0000 0.0000
usemtl lambert25SG
s 1
f 1/1/1 2/2/1 3/3/1 4/4/1
f 5/5/2 6/6/2 7/7/2 8/8/2
f 9/9/3 10/10/3 11/11/3 12/12/3
f 2/13/4 11/14/4 10/15/4 3/16/4
f 12/17/5 1/18/5 4/19/5 9/20/5
f 2/21/6 1/22/6 12/23/6 11/24/6
f 4/25/7 3/26/7 13/27/7 14/28/7
f 3/26/7 10/29/7 15/30/7 13/27/7
f 10/29/7 9/31/7 16/32/7 15/30/7
f 9/31/7 4/25/7 14/28/7 16/32/7
f 14/33/2 13/34/2 17/35/2 18/36/2
f 13/34/2 15/37/2 19/38/2 17/35/2
f 15/37/2 16/39/2 20/40/2 19/38/2
f 16/39/2 14/33/2 18/36/2 20/40/2
f 18/41/3 17/42/3 6/6/3 5/5/3
f 17/42/5 19/43/5 7/7/5 6/6/5
f 19/43/1 20/44/1 8/8/1 7/7/1
f 20/44/4 18/41/4 5/5/4 8/8/4
