# Blender v2.91.2 OBJ File: ''
# www.blender.org
mtllib Sheet(Thin square) Vertical.mtl
o Sheet(Thin_square)_Vertical.001
v -0.680509 -1.491109 0.086759
v 0.680509 -1.491109 0.086759
v 0.680509 1.491109 0.086760
v -0.680509 1.491109 0.086760
v 0.680509 1.491109 -0.086759
v -0.680509 1.491109 -0.086759
v 0.680509 -1.491109 -0.086760
v -0.680509 -1.491109 -0.086760
vt 0.002910 0.006492
vt 0.989724 0.006492
vt 0.989724 0.998643
vt 0.002910 0.998643
vt 0.877079 0.400781
vt 0.877079 0.163629
vt 0.930712 0.163629
vt 0.930712 0.400781
vt 0.989724 0.998642
vt 0.002910 0.998642
vt 0.002910 0.006492
vt 0.989724 0.006492
vt 0.877079 0.400781
vt 0.877079 0.163629
vt 0.930712 0.163629
vt 0.930712 0.400781
vt 0.875902 0.040065
vt 0.929536 0.040065
vt 0.929536 0.559703
vt 0.875902 0.559703
vt 0.875903 0.040065
vt 0.929536 0.040065
vt 0.929536 0.559703
vt 0.875903 0.559703
vn 0.0000 -0.0000 1.0000
vn 0.0000 1.0000 0.0000
vn 0.0000 0.0000 -1.0000
vn 0.0000 -1.0000 0.0000
vn 1.0000 0.0000 0.0000
vn -1.0000 0.0000 0.0000
usemtl lambert7SG
s 1
f 1/1/1 2/2/1 3/3/1 4/4/1
f 4/5/2 3/6/2 5/7/2 6/8/2
f 6/9/3 5/10/3 7/11/3 8/12/3
f 8/13/4 7/14/4 2/15/4 1/16/4
f 2/17/5 7/18/5 5/19/5 3/20/5
f 8/21/6 1/22/6 4/23/6 6/24/6
