# Blender v2.92.0 OBJ File: 'minecraft_assets.blend'
# www.blender.org
mtllib Standing Sign.mtl
o Standing_Sign
v -0.036506 -0.096116 0.500000
v 0.037637 -0.095935 0.500000
v 0.036306 0.448943 0.500000
v -0.037838 0.448762 0.500000
v 0.036306 0.448943 -0.500000
v -0.037838 0.448762 -0.500000
v 0.037637 -0.095935 -0.500000
v -0.036506 -0.096116 -0.500000
v 0.030445 0.323677 0.037695
v 0.030445 0.323677 -0.037695
v -0.032688 0.323493 -0.037695
v -0.032688 0.323493 0.037695
v -0.030244 -0.676504 -0.037695
v 0.032889 -0.676320 -0.037695
v 0.032889 -0.676320 0.037695
v -0.030244 -0.676504 0.037695
vt 0.887378 0.001381
vt 0.938586 0.001381
vt 0.938586 0.377704
vt 0.887378 0.377704
vt 0.001992 0.001381
vt 0.053200 0.001381
vt 0.053200 0.692034
vt 0.001992 0.692034
vt 0.946800 0.001381
vt 0.998008 0.001381
vt 0.998008 0.377704
vt 0.946800 0.377704
vt 0.061619 0.001381
vt 0.112827 0.001381
vt 0.112827 0.692034
vt 0.061619 0.692034
vt 0.121041 0.692034
vt 0.121041 0.001381
vt 0.497364 0.001381
vt 0.497364 0.692034
vt 0.504210 0.692034
vt 0.504210 0.001381
vt 0.880532 0.001381
vt 0.880532 0.692034
vt 0.327685 0.001992
vt 0.402774 0.001992
vt 0.402774 0.077082
vt 0.327685 0.077082
vt 0.409319 0.077082
vt 0.409319 0.001992
vt 0.484408 0.001992
vt 0.484408 0.077082
vt 0.076056 0.998008
vt 0.000967 0.998008
vt 0.000967 0.001992
vt 0.076056 0.001992
vt 0.157872 0.998008
vt 0.082782 0.998008
vt 0.082782 0.001992
vt 0.157872 0.001992
vt 0.164416 0.001992
vt 0.239506 0.001992
vt 0.239506 0.998008
vt 0.164416 0.998008
vt 0.321140 0.998008
vt 0.246050 0.998008
vt 0.246050 0.001992
vt 0.321140 0.001992
vn -0.0000 -0.0000 1.0000
vn -0.0024 1.0000 0.0000
vn -0.0000 0.0000 -1.0000
vn 0.0024 -1.0000 -0.0000
vn 1.0000 0.0024 0.0000
vn -1.0000 -0.0024 -0.0000
vn -0.0029 1.0000 0.0000
vn 0.0029 -1.0000 0.0000
usemtl lambert14SG
s 1
f 1/1/1 2/2/1 3/3/1 4/4/1
f 4/5/2 3/6/2 5/7/2 6/8/2
f 6/9/3 5/10/3 7/11/3 8/12/3
f 8/13/4 7/14/4 2/15/4 1/16/4
f 2/17/5 7/18/5 5/19/5 3/20/5
f 8/21/6 1/22/6 4/23/6 6/24/6
f 9/25/7 10/26/7 11/27/7 12/28/7
f 13/29/8 14/30/8 15/31/8 16/32/8
f 9/33/1 12/34/1 16/35/1 15/36/1
f 10/37/5 9/38/5 15/39/5 14/40/5
f 11/41/3 10/42/3 14/43/3 13/44/3
f 12/45/6 11/46/6 13/47/6 16/48/6
