# Blender v2.92.0 OBJ File: 'minecraft_assets.blend'
# www.blender.org
mtllib wall_5.mtl
o Wall_5.002
v 0.500000 0.358594 -0.176625
v 0.500000 0.358594 0.176625
v 0.500000 -0.246078 0.176625
v 0.500000 -0.246078 -0.176625
v 0.250001 0.358594 0.250000
v 0.250001 0.358594 -0.250000
v 0.250001 0.556259 -0.250000
v 0.250001 0.556258 0.250000
v 0.250001 0.358594 -0.176625
v 0.250001 0.358594 0.176625
v 0.250001 -0.443514 0.250000
v 0.250001 -0.443514 -0.250000
v 0.250001 -0.246078 -0.250000
v 0.250001 -0.246078 0.250000
v 0.250001 -0.246078 -0.176625
v 0.250001 -0.246078 0.176625
v 0.500000 -0.443514 0.176625
v 0.500000 -0.443514 -0.176625
v 0.250001 -0.443514 -0.176625
v 0.250001 -0.443514 0.176625
v -0.499999 0.358594 -0.176625
v -0.499999 -0.246078 -0.176625
v -0.499999 -0.246078 0.176625
v -0.499999 0.358594 0.176625
v -0.249999 0.358594 0.250000
v -0.249999 0.556258 0.250000
v -0.249999 0.556259 -0.250000
v -0.249999 0.358594 -0.250000
v -0.249999 0.358594 0.176625
v -0.249999 0.358594 -0.176625
v -0.249999 -0.443514 0.250000
v -0.249999 -0.246078 0.250000
v -0.249999 -0.246078 -0.250000
v -0.249999 -0.443514 -0.250000
v -0.249999 -0.246078 -0.176625
v -0.249999 -0.246078 0.176625
v -0.499999 -0.443514 -0.176625
v -0.499999 -0.443514 0.176625
v -0.249999 -0.443514 -0.176625
v -0.249999 -0.443514 0.176625
v 0.176623 0.358594 0.500000
v -0.176625 0.358594 0.500000
v -0.176625 -0.246078 0.500000
v 0.176623 -0.246078 0.500000
v 0.176623 0.358594 0.250000
v -0.176625 0.358594 0.250000
v 0.176623 -0.246078 0.250000
v -0.176625 -0.246078 0.250000
v -0.176625 -0.443514 0.500000
v 0.176623 -0.443514 0.500000
v 0.176623 -0.443514 0.250000
v -0.176625 -0.443514 0.250000
v 0.176623 0.358595 -0.500000
v 0.176623 -0.246077 -0.500000
v -0.176625 -0.246077 -0.500000
v -0.176625 0.358595 -0.500000
v -0.176625 0.358594 -0.250000
v 0.176623 0.358594 -0.250000
v 0.176623 -0.246078 -0.250000
v -0.176625 -0.246078 -0.250000
v 0.176623 -0.443513 -0.500000
v -0.176625 -0.443513 -0.500000
v 0.176623 -0.443514 -0.250000
v -0.176625 -0.443514 -0.250000
v 0.000001 0.556259 -0.250000
v 0.000001 0.556258 0.250000
v 0.000001 -0.443514 0.250000
v 0.000001 -0.443514 -0.250000
v 0.000001 0.358594 0.250000
v 0.000001 0.358594 -0.250000
v 0.000001 -0.246078 -0.250000
v 0.000001 -0.246078 0.250000
vt 0.672762 0.886986
vt 0.327238 0.886986
vt 0.327238 0.295537
vt 0.672762 0.295537
vt 0.403330 0.739235
vt 0.403330 0.250169
vt 0.596671 0.250169
vt 0.596671 0.739235
vt 0.622266 0.321940
vt 0.622266 0.667464
vt 0.377734 0.667464
vt 0.377734 0.321940
vt 0.403441 0.739235
vt 0.403441 0.250170
vt 0.596559 0.250170
vt 0.596559 0.739235
vt 0.377734 0.102419
vt 0.622266 0.102419
vt 0.622266 0.693867
vt 0.377734 0.693867
vt 0.622266 0.886986
vt 0.377734 0.886986
vt 0.377734 0.295537
vt 0.622266 0.295537
vt 0.500000 0.733048
vt 0.500000 0.256356
vt 0.500000 0.256356
vt 0.500000 0.733048
vt 0.500000 0.733048
vt 0.500000 0.256356
vt 0.500000 0.256356
vt 0.500000 0.733048
vt 0.464115 0.790426
vt 0.464115 0.198978
vt 0.535885 0.198978
vt 0.535885 0.790426
vt 0.535885 0.790426
vt 0.464115 0.790426
vt 0.464115 0.198978
vt 0.535885 0.198978
vt 0.327238 0.102419
vt 0.672762 0.102419
vt 0.622266 0.886985
vt 0.377734 0.886985
vt 0.377734 0.102419
vt 0.622266 0.102419
vt 0.596559 0.321940
vt 0.596559 0.667464
vt 0.403441 0.667464
vt 0.403441 0.321940
vt 0.622266 0.321940
vt 0.622266 0.667464
vt 0.377734 0.667464
vt 0.377734 0.321940
vt 0.327238 0.886986
vt 0.327238 0.295537
vt 0.672762 0.295537
vt 0.672762 0.886986
vt 0.403330 0.250170
vt 0.596670 0.250170
vt 0.596670 0.739235
vt 0.403330 0.739235
vt 0.377734 0.321940
vt 0.622266 0.321940
vt 0.622266 0.667464
vt 0.377734 0.667464
vt 0.403441 0.250170
vt 0.596559 0.250170
vt 0.596559 0.739235
vt 0.403441 0.739235
vt 0.622266 0.102419
vt 0.622266 0.693867
vt 0.377734 0.693867
vt 0.377734 0.102419
vt 0.377734 0.886985
vt 0.377734 0.295537
vt 0.622266 0.295537
vt 0.622266 0.886985
vt 0.500000 0.733048
vt 0.500000 0.733048
vt 0.500000 0.256356
vt 0.500000 0.256356
vt 0.500000 0.733048
vt 0.500000 0.733048
vt 0.500000 0.256356
vt 0.500000 0.256356
vt 0.535885 0.790426
vt 0.464115 0.790426
vt 0.464115 0.198978
vt 0.535885 0.198978
vt 0.464115 0.790426
vt 0.464115 0.198978
vt 0.535885 0.198978
vt 0.535885 0.790426
vt 0.327238 0.102419
vt 0.672762 0.102419
vt 0.622266 0.886985
vt 0.377734 0.886985
vt 0.377734 0.102419
vt 0.622266 0.102419
vt 0.596559 0.667464
vt 0.403441 0.667464
vt 0.403441 0.321940
vt 0.596559 0.321940
vt 0.377734 0.321940
vt 0.622266 0.321940
vt 0.622266 0.667464
vt 0.377734 0.667464
vt 0.672762 0.886985
vt 0.327238 0.886985
vt 0.327238 0.295537
vt 0.672762 0.295537
vt 0.377734 0.667464
vt 0.377734 0.321940
vt 0.622266 0.321940
vt 0.622266 0.667464
vt 0.622266 0.886986
vt 0.377734 0.886986
vt 0.377734 0.295537
vt 0.622266 0.295537
vt 0.622266 0.886985
vt 0.377734 0.886985
vt 0.377734 0.295537
vt 0.622266 0.295537
vt 0.327238 0.102419
vt 0.672762 0.102419
vt 0.377734 0.102419
vt 0.622266 0.102419
vt 0.377734 0.102419
vt 0.622266 0.102419
vt 0.622266 0.321940
vt 0.622266 0.667464
vt 0.377734 0.667464
vt 0.377734 0.321940
vt 0.672762 0.102419
vt 0.672762 0.693868
vt 0.327238 0.693868
vt 0.327238 0.102419
vt 0.622266 0.667464
vt 0.377734 0.667464
vt 0.377734 0.321940
vt 0.622266 0.321940
vt 0.377734 0.886985
vt 0.377734 0.295537
vt 0.622266 0.295537
vt 0.622266 0.886985
vt 0.377734 0.886985
vt 0.377734 0.295537
vt 0.622266 0.295537
vt 0.622266 0.886985
vt 0.672762 0.886985
vt 0.327238 0.886985
vt 0.377734 0.102419
vt 0.622266 0.102419
vt 0.377734 0.102419
vt 0.622266 0.102419
vt 0.377734 0.321940
vt 0.622266 0.321940
vt 0.622266 0.667464
vt 0.377734 0.667464
vt 0.744533 0.250169
vt 0.744533 0.739235
vt 0.500000 0.739235
vt 0.500000 0.250169
vt 0.744533 0.250169
vt 0.744533 0.739235
vt 0.500000 0.739235
vt 0.500000 0.250169
vt 0.744533 0.983656
vt 0.500000 0.983656
vt 0.500000 0.790315
vt 0.744533 0.790315
vt 0.744533 0.199089
vt 0.500000 0.199089
vt 0.500000 0.005748
vt 0.744533 0.005748
vt 0.500000 0.790538
vt 0.744533 0.790538
vt 0.744533 0.983656
vt 0.500000 0.983656
vt 0.500000 0.198866
vt 0.744533 0.198866
vt 0.500000 0.005748
vt 0.744533 0.005748
vt 0.255467 0.250169
vt 0.255467 0.739235
vt 0.255467 0.250169
vt 0.255467 0.739235
vt 0.255467 0.983656
vt 0.255467 0.790315
vt 0.255467 0.199089
vt 0.255467 0.005748
vt 0.255467 0.790538
vt 0.255467 0.983656
vt 0.255467 0.198866
vt 0.255467 0.005748
vn 1.0000 0.0000 0.0000
vn 0.0000 1.0000 0.0000
vn 0.0000 0.0000 -1.0000
vn 0.0000 -0.0000 1.0000
vn -1.0000 0.0000 0.0000
vn 0.0000 -1.0000 -0.0000
vn 0.0000 -0.9239 0.3827
vn -0.2706 -0.9239 -0.2706
vn 0.0000 -0.9239 -0.3827
vn 0.2706 -0.9239 0.2706
usemtl lambert41SG.001
s off
f 1/1/1 2/2/1 3/3/1 4/4/1
f 5/5/1 6/6/1 7/7/1 8/8/1
f 2/9/2 1/10/2 9/11/2 10/12/2
f 11/13/1 12/14/1 13/15/1 14/16/1
f 9/17/3 1/18/3 4/19/3 15/20/3
f 2/21/4 10/22/4 16/23/4 3/24/4
f 6/25/1 5/26/1 10/27/5 9/28/5
f 14/29/5 13/30/5 15/31/1 16/32/1
f 9/33/1 15/34/1 13/35/1 6/36/1
f 10/37/1 5/38/1 14/39/1 16/40/1
f 4/4/1 3/3/1 17/41/1 18/42/1
f 15/20/3 4/19/3 18/43/3 19/44/3
f 3/24/4 16/23/4 20/45/4 17/46/4
f 16/47/5 15/48/5 19/49/5 20/50/5
f 18/51/6 17/52/6 20/53/6 19/54/6
f 21/55/5 22/56/5 23/57/5 24/58/5
f 25/59/5 26/60/5 27/61/5 28/62/5
f 24/63/2 29/64/2 30/65/2 21/66/2
f 31/67/5 32/68/5 33/69/5 34/70/5
f 30/71/3 35/72/3 22/73/3 21/74/3
f 24/75/4 23/76/4 36/77/4 29/78/4
f 28/79/7 30/80/8 29/81/8 25/82/9
f 32/83/9 36/84/10 35/85/10 33/86/7
f 30/87/5 28/88/5 33/89/5 35/90/5
f 29/91/5 36/92/5 32/93/5 25/94/5
f 22/56/5 37/95/5 38/96/5 23/57/5
f 35/72/3 39/97/3 37/98/3 22/73/3
f 23/76/4 38/99/4 40/100/4 36/77/4
f 36/101/1 40/102/1 39/103/1 35/104/1
f 37/105/6 39/106/6 40/107/6 38/108/6
f 41/109/4 42/110/4 43/111/4 44/112/4
f 42/113/2 41/114/2 45/115/2 46/116/2
f 45/117/1 41/118/1 44/119/1 47/120/1
f 42/121/5 46/122/5 48/123/5 43/124/5
f 44/112/4 43/111/4 49/125/4 50/126/4
f 47/120/1 44/119/1 50/127/1 51/128/1
f 43/124/5 48/123/5 52/129/5 49/130/5
f 50/131/6 49/132/6 52/133/6 51/134/6
f 53/135/3 54/136/3 55/137/3 56/138/3
f 56/139/2 57/140/2 58/141/2 53/142/2
f 58/143/1 59/144/1 54/145/1 53/146/1
f 56/147/5 55/148/5 60/149/5 57/150/5
f 54/136/3 61/151/3 62/152/3 55/137/3
f 59/144/1 63/153/1 61/154/1 54/145/1
f 55/148/5 62/155/5 64/156/5 60/149/5
f 61/157/6 63/158/6 64/159/6 62/160/6
s 1
f 8/161/2 7/162/2 65/163/2 66/164/2
f 12/165/6 11/166/6 67/167/6 68/168/6
f 8/169/4 66/170/4 69/171/4 5/172/4
f 6/173/3 70/174/3 65/175/3 7/176/3
f 71/177/3 70/174/3 6/173/3 13/178/3
f 12/179/3 68/180/3 71/177/3 13/178/3
f 5/172/4 69/171/4 72/181/4 14/182/4
f 72/181/4 67/183/4 11/184/4 14/182/4
f 26/185/2 66/164/2 65/163/2 27/186/2
f 34/187/6 68/168/6 67/167/6 31/188/6
f 26/189/4 25/190/4 69/171/4 66/170/4
f 28/191/3 27/192/3 65/175/3 70/174/3
f 71/177/3 33/193/3 28/191/3 70/174/3
f 34/194/3 33/193/3 71/177/3 68/180/3
f 25/190/4 32/195/4 72/181/4 69/171/4
f 72/181/4 32/195/4 31/196/4 67/183/4
