# Blender v2.92.0 OBJ File: 'minecraft_assets.blend'
# www.blender.org
mtllib wall_0.mtl
o Wall_5
v 0.250001 0.358594 0.250000
v 0.250001 0.358594 -0.250000
v 0.250001 0.556259 -0.250000
v 0.250001 0.556258 0.250000
v 0.250001 -0.443514 0.250000
v 0.250001 -0.443514 -0.250000
v 0.250001 -0.246078 -0.250000
v 0.250001 -0.246078 0.250000
v -0.249999 0.358715 0.250083
v -0.249999 0.556258 0.250000
v -0.249999 0.556259 -0.250000
v -0.249999 0.358715 -0.250083
v -0.249999 -0.443514 0.250000
v -0.249999 -0.246159 0.250083
v -0.249999 -0.246159 -0.250083
v -0.249999 -0.443514 -0.250000
v 0.000001 0.556258 0.000000
v -0.249999 -0.443514 -0.000000
v -0.249999 0.358594 0.000000
v 0.250001 -0.443514 -0.000000
v 0.250001 0.358594 0.000000
v 0.000001 0.556259 -0.250000
v 0.000001 0.556258 0.250000
v 0.000001 -0.443514 0.250000
v 0.000001 -0.443514 -0.250000
v 0.000001 0.358594 0.250000
v 0.000001 0.358594 -0.250000
v 0.000001 -0.246078 -0.250000
v 0.000001 -0.246078 0.250000
v 0.000001 -0.443514 -0.000000
v 0.250001 0.556258 0.000000
v -0.249999 -0.246159 -0.000000
v 0.250001 -0.246078 -0.000000
v 0.250001 -0.246078 -0.000000
v -0.249999 0.556258 0.000000
v -0.249999 -0.246078 -0.000000
vt 0.403330 0.494702
vt 0.403330 0.250169
vt 0.596671 0.250169
vt 0.596671 0.494702
vt 0.403441 0.494702
vt 0.403441 0.250170
vt 0.596559 0.250170
vt 0.596559 0.494702
vt 0.403330 0.494702
vt 0.596670 0.494702
vt 0.596670 0.739235
vt 0.403330 0.739235
vt 0.403441 0.494702
vt 0.596559 0.494702
vt 0.596559 0.739235
vt 0.403441 0.739235
vt 0.403441 0.250170
vt 0.596559 0.250170
vt 0.403330 0.250170
vt 0.596670 0.250170
vt 0.403441 0.739235
vt 0.596559 0.739235
vt 0.403330 0.739235
vt 0.596671 0.739235
vt 0.413447 0.252094
vt 0.618440 0.252094
vt 0.618440 0.747906
vt 0.208455 0.747906
vt 0.208455 0.252094
vt 0.744533 0.250169
vt 0.744533 0.494702
vt 0.500000 0.494702
vt 0.500000 0.250169
vt 0.255467 0.250169
vt 0.500000 0.250169
vt 0.500000 0.494702
vt 0.255467 0.494702
vt 0.744533 0.250169
vt 0.744533 0.494702
vt 0.255467 0.250169
vt 0.255467 0.494702
vt 0.744533 0.739235
vt 0.500000 0.739235
vt 0.744533 0.739235
vt 0.500000 0.739235
vt 0.744533 0.983656
vt 0.500000 0.983656
vt 0.500000 0.790315
vt 0.744533 0.790315
vt 0.744533 0.199089
vt 0.500000 0.199089
vt 0.500000 0.005748
vt 0.744533 0.005748
vt 0.500000 0.790538
vt 0.744533 0.790538
vt 0.744533 0.983656
vt 0.500000 0.983656
vt 0.500000 0.198866
vt 0.744533 0.198866
vt 0.500000 0.005748
vt 0.744533 0.005748
vt 0.255467 0.739235
vt 0.255467 0.739235
vt 0.255467 0.983656
vt 0.255467 0.790315
vt 0.255467 0.199089
vt 0.255467 0.005748
vt 0.255467 0.790538
vt 0.255467 0.983656
vt 0.255467 0.198866
vt 0.255467 0.005748
vt 0.750063 0.206672
vt 0.750063 0.620223
vt 0.249937 0.620223
vt 0.249937 0.206672
vn 1.0000 0.0000 0.0000
vn -1.0000 -0.0000 0.0000
vn 0.0000 -1.0000 -0.0000
vn 0.0000 1.0000 0.0000
vn 0.0000 -0.0000 1.0000
vn 0.0001 0.0001 1.0000
vn 0.0000 0.0000 -1.0000
vn 0.0001 0.0001 -1.0000
vn 0.0001 -0.0001 -1.0000
vn 0.0001 -0.0001 1.0000
vn 0.0002 0.0002 1.0000
vn 0.0003 0.0001 1.0000
vn 0.0003 0.0001 -1.0000
vn 0.0002 0.0002 -1.0000
vn 0.0003 -0.0001 -1.0000
vn 0.0002 -0.0002 -1.0000
vn 0.0003 -0.0001 1.0000
vn 0.0002 -0.0002 1.0000
usemtl lambert41SG.005
s off
f 21/1/1 2/2/1 3/3/1 31/4/1
f 20/5/1 6/6/1 7/7/1 33/8/1
f 19/9/2 35/10/2 11/11/2 12/12/2
f 18/13/2 32/14/2 15/15/2 16/16/2
f 13/17/2 14/18/2 32/14/2 18/13/2
f 9/19/2 10/20/2 35/10/2 19/9/2
f 5/21/1 20/5/1 33/8/1 8/22/1
f 1/23/1 21/1/1 31/4/1 4/24/1
f 32/25/2 14/26/2 9/27/2 12/28/2 15/29/2
s 1
f 6/30/3 20/31/3 30/32/3 25/33/3
f 10/34/4 23/35/4 17/36/4 35/37/4
f 4/38/4 31/39/4 17/36/4 23/35/4
f 16/40/3 25/33/3 30/32/3 18/41/3
f 31/39/4 3/42/4 22/43/4 17/36/4
f 20/31/3 5/44/3 24/45/3 30/32/3
f 4/46/5 23/47/6 26/48/6 1/49/5
f 2/50/7 27/51/8 22/52/8 3/53/7
f 28/54/9 27/51/8 2/50/7 7/55/7
f 6/56/7 25/57/9 28/54/9 7/55/7
f 1/49/5 26/48/6 29/58/10 8/59/5
f 29/58/10 24/60/10 5/61/5 8/59/5
f 35/37/4 17/36/4 22/43/4 11/62/4
f 18/41/3 30/32/3 24/45/3 13/63/3
f 10/64/11 9/65/12 26/48/6 23/47/6
f 12/66/13 11/67/14 22/52/8 27/51/8
f 28/54/9 15/68/15 12/66/13 27/51/8
f 16/69/16 15/68/15 28/54/9 25/57/9
f 9/65/12 14/70/17 29/58/10 26/48/6
f 29/58/10 14/70/17 13/71/18 24/60/10
f 8/72/1 7/73/1 2/74/1 1/75/1
l 36 32
l 33 34
