# Blender v2.92.0 OBJ File: 'minecraft_assets.blend'
# www.blender.org
mtllib wall_3.mtl
o Wall_5
v 0.500000 0.358594 -0.176625
v 0.500000 0.358594 0.176625
v 0.500000 -0.246078 0.176625
v 0.500000 -0.246078 -0.176625
v 0.250001 0.358594 0.250000
v 0.250001 0.358594 -0.250000
v 0.250001 0.556259 -0.250000
v 0.250001 0.556258 0.250000
v 0.250001 0.358594 -0.176625
v 0.250001 0.358594 0.176625
v 0.250001 -0.443514 0.250000
v 0.250001 -0.443514 -0.250000
v 0.250001 -0.246078 -0.250000
v 0.250001 -0.246078 0.250000
v 0.250001 -0.246078 -0.176625
v 0.250001 -0.246078 0.176625
v 0.500000 -0.443514 0.176625
v 0.500000 -0.443514 -0.176625
v 0.250001 -0.443514 -0.176625
v 0.250001 -0.443514 0.176625
v -0.249999 0.358715 0.250083
v -0.249999 0.556258 0.250000
v -0.249999 0.556259 -0.250000
v -0.249999 0.358715 -0.250083
v -0.249999 -0.443514 0.250000
v -0.249999 -0.246159 0.250083
v -0.249999 -0.246159 -0.250083
v -0.249999 -0.443514 -0.250000
v 0.000001 0.556258 0.000000
v -0.249999 -0.443514 -0.000000
v 0.500000 -0.246078 -0.000000
v -0.249999 0.358594 0.000000
v 0.500000 -0.443514 -0.000000
v 0.250001 -0.443514 -0.000000
v 0.250001 0.358594 0.000000
v 0.500000 0.358594 0.000000
v 0.176623 0.358595 -0.500000
v 0.176623 -0.246077 -0.500000
v -0.176625 -0.246077 -0.500000
v -0.176625 0.358595 -0.500000
v -0.176625 0.358594 -0.250000
v 0.176623 0.358594 -0.250000
v 0.176623 -0.246078 -0.250000
v -0.176625 -0.246078 -0.250000
v 0.176623 -0.443513 -0.500000
v -0.176625 -0.443513 -0.500000
v 0.176623 -0.443514 -0.250000
v -0.176625 -0.443514 -0.250000
v 0.000001 0.556259 -0.250000
v 0.000001 0.556258 0.250000
v 0.000001 -0.443514 0.250000
v 0.000001 -0.443514 -0.250000
v 0.000001 0.358594 0.250000
v 0.000001 0.358594 -0.250000
v 0.000001 -0.246078 -0.250000
v 0.000001 -0.246078 0.250000
v 0.000001 -0.443514 -0.000000
v 0.250001 0.556258 0.000000
v 0.250001 0.358594 0.000000
v -0.249999 -0.246159 -0.000000
v 0.250001 -0.246078 -0.000000
v 0.250001 -0.246078 -0.000000
v 0.250001 -0.443514 -0.000000
v -0.249999 0.556258 0.000000
v -0.249999 -0.246078 -0.000000
vt 0.500000 0.886986
vt 0.327238 0.886986
vt 0.327238 0.295537
vt 0.500000 0.295537
vt 0.403330 0.494702
vt 0.403330 0.250169
vt 0.596671 0.250169
vt 0.596671 0.494702
vt 0.622266 0.494702
vt 0.622266 0.667464
vt 0.377734 0.667464
vt 0.377734 0.494702
vt 0.403441 0.494702
vt 0.403441 0.250170
vt 0.596559 0.250170
vt 0.596559 0.494702
vt 0.377734 0.102419
vt 0.622266 0.102419
vt 0.622266 0.693867
vt 0.377734 0.693867
vt 0.622266 0.886986
vt 0.377734 0.886986
vt 0.377734 0.295537
vt 0.622266 0.295537
vt 0.500000 0.494702
vt 0.500000 0.256356
vt 0.500000 0.256356
vt 0.500000 0.494702
vt 0.500000 0.494702
vt 0.500000 0.256356
vt 0.500000 0.256356
vt 0.500000 0.494702
vt 0.464115 0.790426
vt 0.464115 0.198978
vt 0.535885 0.198978
vt 0.535885 0.790426
vt 0.535885 0.790426
vt 0.464115 0.790426
vt 0.464115 0.198978
vt 0.535885 0.198978
vt 0.327238 0.102419
vt 0.500000 0.102419
vt 0.622266 0.886985
vt 0.377734 0.886985
vt 0.377734 0.102419
vt 0.622266 0.102419
vt 0.596559 0.494702
vt 0.596559 0.667464
vt 0.403441 0.667464
vt 0.403441 0.494702
vt 0.622266 0.494702
vt 0.622266 0.667464
vt 0.377734 0.667464
vt 0.377734 0.494702
vt 0.403330 0.494702
vt 0.596670 0.494702
vt 0.596670 0.739235
vt 0.403330 0.739235
vt 0.403441 0.494702
vt 0.596559 0.494702
vt 0.596559 0.739235
vt 0.403441 0.739235
vt 0.672762 0.102419
vt 0.672762 0.693868
vt 0.327238 0.693868
vt 0.327238 0.102419
vt 0.622266 0.667464
vt 0.377734 0.667464
vt 0.377734 0.321940
vt 0.622266 0.321940
vt 0.377734 0.886985
vt 0.377734 0.295537
vt 0.622266 0.295537
vt 0.622266 0.886985
vt 0.377734 0.886985
vt 0.377734 0.295537
vt 0.622266 0.295537
vt 0.622266 0.886985
vt 0.672762 0.886985
vt 0.327238 0.886985
vt 0.377734 0.102419
vt 0.622266 0.102419
vt 0.377734 0.102419
vt 0.622266 0.102419
vt 0.377734 0.321940
vt 0.622266 0.321940
vt 0.622266 0.667464
vt 0.377734 0.667464
vt 0.403441 0.250170
vt 0.596559 0.250170
vt 0.403330 0.250170
vt 0.596670 0.250170
vt 0.622266 0.321940
vt 0.377734 0.321940
vt 0.596559 0.321940
vt 0.403441 0.321940
vt 0.672762 0.295537
vt 0.672762 0.102419
vt 0.500000 0.733048
vt 0.500000 0.733048
vt 0.500000 0.733048
vt 0.500000 0.733048
vt 0.403441 0.739235
vt 0.596559 0.739235
vt 0.622266 0.321940
vt 0.377734 0.321940
vt 0.403330 0.739235
vt 0.596671 0.739235
vt 0.672762 0.886986
vt 0.413447 0.252094
vt 0.618440 0.252094
vt 0.618440 0.747906
vt 0.208455 0.747906
vt 0.208455 0.252094
vt 0.744533 0.250169
vt 0.744533 0.494702
vt 0.500000 0.494702
vt 0.500000 0.250169
vt 0.255467 0.250169
vt 0.500000 0.250169
vt 0.500000 0.494702
vt 0.255467 0.494702
vt 0.744533 0.250169
vt 0.744533 0.494702
vt 0.255467 0.250169
vt 0.255467 0.494702
vt 0.744533 0.739235
vt 0.500000 0.739235
vt 0.744533 0.739235
vt 0.500000 0.739235
vt 0.744533 0.983656
vt 0.500000 0.983656
vt 0.500000 0.790315
vt 0.744533 0.790315
vt 0.744533 0.199089
vt 0.500000 0.199089
vt 0.500000 0.005748
vt 0.744533 0.005748
vt 0.500000 0.790538
vt 0.744533 0.790538
vt 0.744533 0.983656
vt 0.500000 0.983656
vt 0.500000 0.198866
vt 0.744533 0.198866
vt 0.500000 0.005748
vt 0.744533 0.005748
vt 0.255467 0.739235
vt 0.255467 0.739235
vt 0.255467 0.983656
vt 0.255467 0.790315
vt 0.255467 0.199089
vt 0.255467 0.005748
vt 0.255467 0.790538
vt 0.255467 0.983656
vt 0.255467 0.198866
vt 0.255467 0.005748
vn 1.0000 0.0000 0.0000
vn 0.0000 1.0000 0.0000
vn 0.0000 0.0000 -1.0000
vn 0.0000 -0.0000 1.0000
vn 0.2816 -0.9595 0.0000
vn -0.0596 0.9982 0.0000
vn -1.0000 0.0000 0.0000
vn 0.0000 -1.0000 -0.0000
vn 0.0596 -0.9982 0.0000
vn 0.0001 0.0001 1.0000
vn 0.0001 0.0001 -1.0000
vn 0.0001 -0.0001 -1.0000
vn 0.0001 -0.0001 1.0000
vn 0.0002 0.0002 1.0000
vn 0.0003 0.0001 1.0000
vn 0.0003 0.0001 -1.0000
vn 0.0002 0.0002 -1.0000
vn 0.0003 -0.0001 -1.0000
vn 0.0002 -0.0002 -1.0000
vn 0.0003 -0.0001 1.0000
vn 0.0002 -0.0002 1.0000
usemtl lambert41SG.005
s off
f 36/1/1 2/2/1 3/3/1 31/4/1
f 35/5/1 6/6/1 7/7/1 58/8/1
f 36/9/2 1/10/2 9/11/2 59/12/2
f 34/13/1 12/14/1 13/15/1 61/16/1
f 9/17/3 1/18/3 4/19/3 15/20/3
f 2/21/4 10/22/4 16/23/4 3/24/4
f 35/25/5 5/26/5 10/27/4 59/28/4
f 61/29/6 13/30/6 15/31/3 62/32/6
f 9/33/1 15/34/1 13/35/1 6/36/1
f 10/37/1 5/38/1 14/39/1 16/40/1
f 31/4/1 3/3/1 17/41/1 33/42/1
f 15/20/3 4/19/3 18/43/3 19/44/3
f 3/24/4 16/23/4 20/45/4 17/46/4
f 62/47/7 15/48/7 19/49/7 63/50/7
f 33/51/8 17/52/8 20/53/8 63/54/8
f 32/55/7 64/56/7 23/57/7 24/58/7
f 30/59/7 60/60/7 27/61/7 28/62/7
f 37/63/3 38/64/3 39/65/3 40/66/3
f 40/67/2 41/68/2 42/69/2 37/70/2
f 42/71/1 43/72/1 38/73/1 37/74/1
f 40/75/7 39/76/7 44/77/7 41/78/7
f 38/64/3 45/79/3 46/80/3 39/65/3
f 43/72/1 47/81/1 45/82/1 38/73/1
f 39/76/7 46/83/7 48/84/7 44/77/7
f 45/85/8 47/86/8 48/87/8 46/88/8
f 25/89/7 26/90/7 60/60/7 30/59/7
f 21/91/7 22/92/7 64/56/7 32/55/7
f 18/93/8 33/51/8 63/54/8 19/94/8
f 16/95/7 62/47/7 63/50/7 20/96/7
f 4/97/1 31/4/1 33/42/1 18/98/1
f 14/99/9 61/29/9 62/32/3 16/100/3
f 6/101/7 35/25/7 59/28/4 9/102/4
f 11/103/1 34/13/1 61/16/1 14/104/1
f 2/105/2 36/9/2 59/12/2 10/106/2
f 5/107/1 35/5/1 58/8/1 8/108/1
f 1/109/1 36/1/1 31/4/1 4/97/1
f 60/110/7 26/111/7 21/112/7 24/113/7 27/114/7
s 1
f 12/115/8 34/116/8 57/117/8 52/118/8
f 22/119/2 50/120/2 29/121/2 64/122/2
f 8/123/2 58/124/2 29/121/2 50/120/2
f 28/125/8 52/118/8 57/117/8 30/126/8
f 58/124/2 7/127/2 49/128/2 29/121/2
f 34/116/8 11/129/8 51/130/8 57/117/8
f 8/131/4 50/132/10 53/133/10 5/134/4
f 6/135/3 54/136/11 49/137/11 7/138/3
f 55/139/12 54/136/11 6/135/3 13/140/3
f 12/141/3 52/142/12 55/139/12 13/140/3
f 5/134/4 53/133/10 56/143/13 14/144/4
f 56/143/13 51/145/13 11/146/4 14/144/4
f 64/122/2 29/121/2 49/128/2 23/147/2
f 30/126/8 57/117/8 51/130/8 25/148/8
f 22/149/14 21/150/15 53/133/10 50/132/10
f 24/151/16 23/152/17 49/137/11 54/136/11
f 55/139/12 27/153/18 24/151/16 54/136/11
f 28/154/19 27/153/18 55/139/12 52/142/12
f 21/150/15 26/155/20 56/143/13 53/133/10
f 56/143/13 26/155/20 25/156/21 51/145/13
l 65 60
