# Blender v2.92.0 OBJ File: 'minecraft_assets.blend'
# www.blender.org
mtllib grindstone.mtl
o grindstone
v -0.075338 -0.101182 0.260442
v 0.075338 -0.101182 0.260442
v -0.155338 0.174675 0.260442
v 0.155338 0.174675 0.260442
v 0.155338 0.174675 0.176724
v -0.155338 0.174675 0.176724
v 0.155338 -0.101182 0.260442
v 0.155338 -0.101182 0.176724
v -0.075338 -0.526819 0.176724
v 0.075338 -0.526819 0.176724
v 0.075338 -0.526819 0.260442
v -0.075338 -0.526819 0.260442
v -0.155338 -0.101182 0.176724
v -0.155338 -0.101182 0.260442
v -0.075338 0.094675 0.176724
v 0.000000 0.094675 0.176724
v 0.000000 0.303394 0.176724
v -0.136601 0.303394 0.176724
v -0.075338 -0.226529 0.176724
v 0.075338 -0.226529 0.176724
v 0.075338 0.094675 0.176724
v 0.075338 -0.101182 0.176724
v 0.117507 0.050256 0.176724
v 0.136601 0.303394 0.176724
v -0.117507 0.050256 0.176724
v -0.075338 -0.101182 0.176724
v 0.279515 0.050256 0.176724
v 0.279515 0.303394 0.176724
v -0.279515 0.050256 0.176724
v -0.279515 0.303394 0.176724
v -0.279515 -0.226529 0.176724
v 0.279515 -0.226529 0.176724
v 0.279515 0.303394 0.000000
v 0.279515 0.050256 0.000000
v 0.279515 -0.226529 -0.000000
v -0.279515 -0.226529 -0.000000
v -0.279515 0.303394 0.000000
v -0.075338 -0.101182 -0.260442
v 0.075338 -0.101182 -0.260442
v -0.155338 0.174675 -0.260442
v -0.155338 0.174675 -0.176725
v 0.155338 0.174675 -0.176725
v 0.155338 0.174675 -0.260442
v 0.155338 -0.101182 -0.260442
v 0.155338 -0.101182 -0.176725
v -0.075338 -0.526819 -0.176725
v -0.075338 -0.526819 -0.260442
v 0.075338 -0.526819 -0.260442
v 0.075338 -0.526819 -0.176725
v -0.155338 -0.101182 -0.260442
v -0.155338 -0.101182 -0.176725
v -0.075338 0.094675 -0.176725
v -0.136601 0.303394 -0.176725
v 0.000000 0.303394 -0.176725
v 0.000000 0.094675 -0.176725
v 0.075338 -0.226529 -0.176725
v -0.075338 -0.226529 -0.176725
v 0.075338 0.094675 -0.176725
v 0.136601 0.303394 -0.176725
v 0.117507 0.050256 -0.176725
v 0.075338 -0.101182 -0.176725
v -0.117507 0.050256 -0.176725
v -0.075338 -0.101182 -0.176725
v 0.279515 0.303394 -0.176725
v 0.279515 0.050256 -0.176725
v -0.279515 0.050256 -0.176725
v -0.279515 0.303394 -0.176725
v 0.279515 -0.226529 -0.176725
v -0.279515 -0.226529 -0.176725
v 0.279515 0.303394 0.000000
v 0.279515 0.050256 0.000000
v 0.279515 -0.226529 -0.000000
v -0.279515 -0.226529 -0.000000
v -0.279515 0.303394 0.000000
vt 0.552436 0.496037
vt 0.552436 0.355154
vt 0.703720 0.355154
vt 0.703720 0.496037
vt 0.552436 0.363049
vt 0.703720 0.363049
vt 0.703720 0.488143
vt 0.552436 0.488143
vt 0.716884 0.231292
vt 0.716884 0.196644
vt 0.736135 0.196644
vt 0.736135 0.231292
vt 0.552436 0.488143
vt 0.552436 0.363049
vt 0.703721 0.363049
vt 0.703721 0.488143
vt 0.269368 0.291752
vt 0.269368 0.288124
vt 0.279420 0.288124
vt 0.279420 0.294703
vt 0.735634 0.250482
vt 0.712464 0.250482
vt 0.712464 0.214956
vt 0.735634 0.214956
vt 0.269368 0.284496
vt 0.259936 0.284496
vt 0.267229 0.282465
vt 0.279420 0.281545
vt 0.267229 0.293783
vt 0.259936 0.291752
vt 0.267229 0.274662
vt 0.279420 0.274662
vt 0.267229 0.301586
vt 0.279420 0.301586
vt 0.715605 0.193410
vt 0.732492 0.193410
vt 0.732492 0.241112
vt 0.715605 0.241112
vt 0.717612 0.199993
vt 0.730486 0.199993
vt 0.730486 0.265446
vt 0.717612 0.265446
vt 0.730486 0.265446
vt 0.717612 0.265446
vt 0.717612 0.199993
vt 0.730486 0.199993
vt 0.678834 0.587365
vt 0.678834 0.436081
vt 0.823400 0.436081
vt 0.823400 0.587365
vt 0.740189 0.484432
vt 0.535654 0.484432
vt 0.535654 0.361344
vt 0.588322 0.361344
vt 0.687521 0.361344
vt 0.740189 0.361344
vt 0.823401 0.436081
vt 0.823401 0.587366
vt 0.678834 0.587366
vt 0.678834 0.436081
vt 0.276343 0.301586
vt 0.263013 0.301586
vt 0.263013 0.274662
vt 0.276343 0.274662
vt 0.243114 0.329930
vt 0.243114 0.412118
vt 0.243114 0.498105
vt 0.131176 0.498105
vt 0.131176 0.161756
vt 0.243114 0.161756
vt 0.243114 0.247742
vt 0.057503 0.419059
vt 0.057503 0.208379
vt 0.190417 0.208379
vt 0.190417 0.419059
vt 0.200391 0.185712
vt 0.200391 0.439850
vt 0.047529 0.439850
vt 0.047529 0.185712
vt 0.257278 0.015345
vt 0.257278 0.015345
vt 0.452285 0.015345
vt 0.452285 0.240646
vt 0.452285 0.406911
vt 0.452285 0.632212
vt 0.257278 0.632212
vt 0.257278 0.632212
vt 0.062269 0.632212
vt 0.062269 0.406911
vt 0.062269 0.240646
vt 0.062269 0.015345
vt 0.566318 0.511976
vt 0.650466 0.511976
vt 0.650466 0.339215
vt 0.566318 0.339215
vt 0.566318 0.348896
vt 0.566318 0.502295
vt 0.650466 0.502295
vt 0.650466 0.348896
vt 0.700193 0.262812
vt 0.738062 0.262812
vt 0.738062 0.194654
vt 0.700193 0.194654
vt 0.566318 0.502295
vt 0.650466 0.502295
vt 0.650466 0.348896
vt 0.566318 0.348896
vt 0.260447 0.283520
vt 0.269615 0.280861
vt 0.269596 0.286855
vt 0.260437 0.286826
vt 0.738129 0.257866
vt 0.738129 0.199600
vt 0.700126 0.199600
vt 0.700126 0.257866
vt 0.260427 0.290132
vt 0.269577 0.292850
vt 0.258471 0.291977
vt 0.251832 0.290105
vt 0.258504 0.281664
vt 0.251853 0.283493
vt 0.269557 0.299121
vt 0.258449 0.299086
vt 0.258527 0.274554
vt 0.269635 0.274589
vt 0.700935 0.194086
vt 0.700935 0.249507
vt 0.737320 0.249507
vt 0.737320 0.194086
vt 0.708570 0.175057
vt 0.708570 0.282408
vt 0.729685 0.282408
vt 0.729685 0.175057
vt 0.729685 0.282408
vt 0.729685 0.175057
vt 0.708570 0.175057
vt 0.708570 0.282408
vt 0.678834 0.587365
vt 0.823400 0.587365
vt 0.823400 0.436081
vt 0.678834 0.436081
vt 0.823401 0.436081
vt 0.678834 0.436081
vt 0.678834 0.587366
vt 0.823401 0.587366
vt 0.517673 0.501806
vt 0.684346 0.501806
vt 0.684346 0.353813
vt 0.641428 0.353813
vt 0.560592 0.353813
vt 0.517673 0.353813
vt 0.254646 0.299093
vt 0.254646 0.274561
vt 0.266792 0.274561
vt 0.266792 0.299093
vt 0.190417 0.419059
vt 0.057502 0.419059
vt 0.057502 0.208379
vt 0.190417 0.208379
vt 0.047528 0.185712
vt 0.200391 0.185712
vt 0.200391 0.439850
vt 0.047528 0.439850
vt 0.107153 0.159335
vt 0.215175 0.159335
vt 0.215175 0.245792
vt 0.215175 0.328429
vt 0.215175 0.411067
vt 0.215176 0.497523
vt 0.107153 0.497523
vt 0.196630 0.463840
vt 0.074800 0.463840
vt 0.074800 0.319972
vt 0.074800 0.162664
vt 0.196630 0.162664
vt 0.101936 0.493147
vt 0.101936 0.129607
vt 0.221994 0.129607
vt 0.221994 0.319489
vt 0.221994 0.493147
vn 0.0000 1.0000 0.0000
vn 1.0000 0.0000 0.0000
vn 0.0000 -1.0000 -0.0000
vn -1.0000 -0.0000 0.0000
vn 0.0000 -0.0000 1.0000
vn 0.0000 0.0000 -1.0000
usemtl lambert43SG.001
s 1
f 3/1/1 4/2/1 5/3/1 6/4/1
f 7/5/2 8/6/2 5/7/2 4/8/2
f 9/9/3 10/10/3 11/11/3 12/12/3
f 6/13/4 13/14/4 14/15/4 3/16/4
f 15/17/5 16/18/5 17/19/5 18/20/5
f 10/21/6 9/22/6 19/23/6 20/24/6
f 21/25/5 22/26/5 23/27/5 24/28/5
f 25/29/5 26/30/5 15/17/5 18/20/5
f 24/28/5 23/27/5 27/31/5 28/32/5
f 29/33/5 25/29/5 18/20/5 30/34/5
f 12/35/5 11/36/5 2/37/5 1/38/5
f 11/39/2 10/40/2 22/41/2 2/42/2
f 1/43/4 26/44/4 9/45/4 12/46/4
f 2/47/3 22/48/3 8/49/3 7/50/3
f 4/51/5 3/52/5 14/53/5 1/54/5 2/55/5 7/56/5
f 26/57/3 1/58/3 14/59/3 13/60/3
f 29/61/5 31/62/5 32/63/5 27/64/5
f 17/65/1 24/66/1 28/67/1 33/68/1 37/69/1 30/70/1 18/71/1
f 28/72/2 27/73/2 34/74/2 33/75/2
f 35/76/2 34/77/2 27/78/2 32/79/2
f 72/80/3 35/81/3 32/82/3 20/83/3 19/84/3 31/85/3 36/86/3 73/87/3 69/88/3 57/89/3 56/90/3 68/91/3
f 17/19/5 16/18/5 21/25/5 24/28/5
f 40/92/1 41/93/1 42/94/1 43/95/1
f 44/96/2 43/97/2 42/98/2 45/99/2
f 46/100/3 47/101/3 48/102/3 49/103/3
f 41/104/4 40/105/4 50/106/4 51/107/4
f 52/108/6 53/109/6 54/110/6 55/111/6
f 49/112/5 56/113/5 57/114/5 46/115/5
f 58/116/6 59/117/6 60/118/6 61/119/6
f 62/120/6 53/109/6 52/108/6 63/121/6
f 59/117/6 64/122/6 65/123/6 60/118/6
f 66/124/6 67/125/6 53/109/6 62/120/6
f 47/126/6 38/127/6 39/128/6 48/129/6
f 48/130/2 39/131/2 61/132/2 49/133/2
f 38/134/4 47/135/4 46/136/4 63/137/4
f 39/138/3 44/139/3 45/140/3 61/141/3
f 63/142/3 51/143/3 50/144/3 38/145/3
f 40/146/6 43/147/6 44/148/6 39/149/6 38/150/6 50/151/6
f 66/152/6 65/153/6 68/154/6 69/155/6
f 64/156/2 70/157/2 71/158/2 65/159/2
f 72/160/2 68/161/2 65/162/2 71/163/2
f 70/164/1 64/165/1 59/166/1 54/167/1 53/168/1 67/169/1 74/170/1
f 54/110/6 59/117/6 58/116/6 55/111/6
f 74/171/4 67/172/4 66/173/4 69/174/4 73/175/4
f 37/176/4 36/177/4 31/178/4 29/179/4 30/180/4
