# Blender v2.92.0 OBJ File: 'minecraft_assets.blend'
# www.blender.org
mtllib bed.mtl
o bed
v 0.715699 -0.426269 0.499580
v 0.999739 -0.426269 0.499580
v 0.999739 -0.114482 0.499580
v 0.715699 -0.114482 0.499580
v 0.999739 -0.114482 0.249667
v 0.715699 -0.114482 0.249667
v 0.999739 -0.426269 0.249667
v 0.715699 -0.426269 0.249667
v 0.715699 -0.426268 -0.249538
v 0.999739 -0.426268 -0.249538
v 0.999739 -0.114481 -0.249538
v 0.715699 -0.114481 -0.249538
v 0.999739 -0.114481 -0.499452
v 0.715699 -0.114481 -0.499452
v 0.999739 -0.426268 -0.499453
v 0.715699 -0.426268 -0.499453
v -0.999374 -0.426269 0.500041
v -0.715334 -0.426269 0.500041
v -0.715334 -0.114482 0.500042
v -0.999374 -0.114482 0.500042
v -0.715334 -0.114482 0.250128
v -0.999374 -0.114482 0.250128
v -0.715334 -0.426269 0.250128
v -0.999374 -0.426269 0.250128
v -0.999718 -0.426268 -0.249588
v -0.715679 -0.426268 -0.249588
v -0.715679 -0.114481 -0.249588
v -0.999718 -0.114481 -0.249588
v -0.715679 -0.114481 -0.499501
v -0.999718 -0.114481 -0.499501
v -0.715679 -0.426268 -0.499502
v -0.999718 -0.426268 -0.499502
v 0.999739 -0.117465 0.499559
v 0.999739 -0.117464 -0.499551
v 0.999739 0.194323 -0.499551
v 0.999739 0.194322 0.499559
v -0.999766 -0.117464 -0.499551
v -0.999766 -0.117465 0.499559
v -0.999766 0.194322 0.499559
v -0.999766 0.194323 -0.499551
v -0.000014 -0.117465 0.499559
v -0.000014 0.194322 0.499559
v -0.000014 0.194323 -0.499551
v -0.000014 -0.117464 -0.499551
vt 0.834973 0.990371
vt 0.834973 0.910648
vt 0.914696 0.910648
vt 0.914696 0.990371
vt 0.834973 0.990371
vt 0.834973 0.910648
vt 0.914696 0.910648
vt 0.914696 0.990371
vt 0.834973 0.990371
vt 0.834973 0.910648
vt 0.914696 0.910648
vt 0.914696 0.990371
vt 0.834067 0.863971
vt 0.834067 0.782435
vt 0.915602 0.782435
vt 0.915602 0.863971
vt 0.914696 0.990371
vt 0.834973 0.990371
vt 0.834973 0.910648
vt 0.914696 0.910648
vt 0.834973 0.990371
vt 0.834973 0.910648
vt 0.914696 0.910648
vt 0.914696 0.990371
vt 0.834973 0.990371
vt 0.834973 0.910648
vt 0.914696 0.910648
vt 0.914696 0.990371
vt 0.834067 0.863971
vt 0.834067 0.782435
vt 0.915602 0.782435
vt 0.915602 0.863971
vt 0.834067 0.863971
vt 0.834067 0.782435
vt 0.915602 0.782435
vt 0.915602 0.863971
vt 0.914696 0.910648
vt 0.914696 0.990371
vt 0.834973 0.990371
vt 0.834973 0.910648
vt 0.914696 0.910648
vt 0.834973 0.990371
vt 0.834973 0.990371
vt 0.834973 0.910648
vt 0.914696 0.910648
vt 0.914696 0.990371
vt 0.834973 0.990371
vt 0.834973 0.910648
vt 0.914696 0.910648
vt 0.914696 0.990371
vt 0.834973 0.990371
vt 0.834973 0.910648
vt 0.914696 0.910648
vt 0.914696 0.990371
vt 0.834067 0.863970
vt 0.834067 0.782435
vt 0.915602 0.782435
vt 0.915602 0.863970
vt 0.914696 0.990371
vt 0.834973 0.990371
vt 0.834973 0.910648
vt 0.914696 0.910648
vt 0.834973 0.990371
vt 0.834973 0.910648
vt 0.914696 0.910648
vt 0.914696 0.990371
vt 0.834973 0.990371
vt 0.834973 0.910648
vt 0.914696 0.910648
vt 0.914696 0.990371
vt 0.834973 0.990371
vt 0.834973 0.910648
vt 0.914696 0.910648
vt 0.914696 0.990371
vt 0.834067 0.863970
vt 0.834067 0.782435
vt 0.915602 0.782435
vt 0.915602 0.863970
vt 0.914696 0.990371
vt 0.834973 0.990371
vt 0.834973 0.910648
vt 0.914696 0.910648
vt 0.095176 0.904332
vt 0.340361 0.904355
vt 0.340355 0.967759
vt 0.095170 0.967736
vt 0.384345 0.567777
vt 0.583955 0.567757
vt 0.583961 0.619375
vt 0.384351 0.619395
vt 0.125358 0.668386
vt 0.125358 0.891553
vt 0.034757 0.891553
vt 0.034757 0.668386
vt 0.397394 0.664421
vt 0.395904 0.906297
vt 0.037323 0.905001
vt 0.038812 0.663124
vt 0.311296 0.668386
vt 0.401898 0.668386
vt 0.401898 0.891553
vt 0.311296 0.891553
vt 0.427180 0.548981
vt 0.427180 0.329005
vt 0.677035 0.329005
vt 0.677035 0.548981
vt 0.398883 0.330191
vt 0.397394 0.549295
vt 0.038812 0.548121
vt 0.040302 0.329017
vt 0.208759 0.554373
vt 0.208759 0.321633
vt 0.299360 0.321633
vt 0.299360 0.554373
vt 0.429813 0.885104
vt 0.429813 0.665129
vt 0.679668 0.665129
vt 0.679668 0.885104
vt 0.300834 0.554373
vt 0.300834 0.321633
vt 0.391436 0.321633
vt 0.391436 0.554373
vn 0.0000 -0.0000 1.0000
vn 0.0000 1.0000 0.0000
vn 0.0000 0.0000 -1.0000
vn 0.0000 -1.0000 -0.0000
vn 1.0000 0.0000 0.0000
vn -1.0000 0.0000 0.0000
usemtl lambert32SG
s off
f 1/1/1 2/2/1 3/3/1 4/4/1
f 4/5/2 3/6/2 5/7/2 6/8/2
f 6/9/3 5/10/3 7/11/3 8/12/3
f 8/13/4 7/14/4 2/15/4 1/16/4
f 2/2/5 7/11/5 5/17/5 3/18/5
f 8/19/6 1/20/6 4/4/6 6/9/6
f 9/21/1 10/22/1 11/23/1 12/24/1
f 12/25/2 11/26/2 13/27/2 14/28/2
f 14/29/3 13/30/3 15/31/3 16/32/3
f 16/33/4 15/34/4 10/35/4 9/36/4
f 10/22/5 15/37/5 13/38/5 11/39/5
f 16/40/6 9/41/6 12/24/6 14/42/6
f 17/43/1 18/44/1 19/45/1 20/46/1
f 20/47/2 19/48/2 21/49/2 22/50/2
f 22/51/3 21/52/3 23/53/3 24/54/3
f 24/55/4 23/56/4 18/57/4 17/58/4
f 18/44/5 23/53/5 21/59/5 19/60/5
f 24/61/6 17/62/6 20/46/6 22/51/6
f 25/63/1 26/64/1 27/65/1 28/66/1
f 28/67/2 27/68/2 29/69/2 30/70/2
f 30/71/3 29/72/3 31/73/3 32/74/3
f 32/75/4 31/76/4 26/77/4 25/78/4
f 26/64/5 31/73/5 29/79/5 27/80/5
f 32/81/6 25/82/6 28/66/6 30/71/6
f 33/83/5 34/84/5 35/85/5 36/86/5
f 37/87/6 38/88/6 39/89/6 40/90/6
s 1
f 41/91/1 33/92/1 36/93/1 42/94/1
f 42/95/2 36/96/2 35/97/2 43/98/2
f 44/99/3 43/100/3 35/101/3 34/102/3
f 44/103/4 34/104/4 33/105/4 41/106/4
f 39/107/2 42/108/2 43/109/2 40/110/2
f 38/111/1 41/112/1 42/113/1 39/114/1
f 37/115/4 44/116/4 41/117/4 38/118/4
f 40/119/3 43/120/3 44/121/3 37/122/3
