# Blender v2.92.0 OBJ File: 'minecraft_assets.blend'
# www.blender.org
mtllib piston_head.mtl
o Cube_Cube.008
v -0.500000 -0.164735 0.500000
v -0.500000 0.035265 0.500000
v -0.500000 -0.164735 -0.500000
v -0.500000 0.035265 -0.500000
v 0.500000 -0.164735 0.500000
v 0.500000 0.035265 0.500000
v 0.500000 -0.164735 -0.500000
v 0.500000 0.035265 -0.500000
v -0.096296 0.035265 0.096296
v -0.096296 0.035265 -0.096296
v 0.096296 0.035265 -0.096296
v 0.096296 0.035265 0.096296
v -0.096296 0.836272 0.096296
v -0.096296 0.836272 -0.096296
v 0.096296 0.836272 -0.096296
v 0.096296 0.836272 0.096296
vt 0.995246 0.184391
vt 0.995246 0.434077
vt 0.002517 0.434077
vt 0.002517 0.184391
vt 0.994432 0.188275
vt 0.994432 0.435232
vt 0.003996 0.435232
vt 0.003996 0.188275
vt 0.992436 0.188166
vt 0.992436 0.435391
vt 0.012542 0.435391
vt 0.012542 0.188166
vt 0.993549 0.182098
vt 0.993549 0.431784
vt 0.011429 0.431784
vt 0.011429 0.182098
vt 0.012916 0.012916
vt 0.994690 0.012916
vt 0.994690 0.994691
vt 0.012916 0.994691
vt 0.893320 0.000000
vt 0.941408 0.000000
vt 0.941408 1.000000
vt 0.893320 1.000000
vt 0.499371 0.249686
vt 0.547459 0.249686
vt 0.547459 0.297773
vt 0.499371 0.297773
vt 0.749057 0.000000
vt 0.797145 0.000000
vt 0.797144 1.000000
vt 0.749057 1.000000
vt 0.797145 0.000000
vt 0.845232 0.000000
vt 0.845232 1.000000
vt 0.797145 1.000000
vt 0.845232 0.000000
vt 0.893320 0.000000
vt 0.893320 1.000000
vt 0.845232 1.000000
vt 0.991781 0.996807
vt 0.004161 0.996807
vt 0.004161 0.009187
vt 0.402867 0.407893
vt 0.402867 0.598101
vt 0.593075 0.598101
vt 0.005303 0.005853
vt 0.996290 0.005853
vt 0.996289 0.996840
vt 0.596224 0.596775
vt 0.596224 0.405918
vt 0.405368 0.405918
vn -1.0000 0.0000 0.0000
vn 0.0000 0.0000 -1.0000
vn 1.0000 0.0000 0.0000
vn 0.0000 0.0000 1.0000
vn 0.0000 -1.0000 0.0000
vn 0.0000 1.0000 0.0000
usemtl Material.001
s off
f 1/1/1 2/2/1 4/3/1 3/4/1
f 3/5/2 4/6/2 8/7/2 7/8/2
f 7/9/3 8/10/3 6/11/3 5/12/3
f 5/13/4 6/14/4 2/15/4 1/16/4
f 3/17/5 7/18/5 5/19/5 1/20/5
f 10/21/1 9/22/1 13/23/1 14/24/1
f 15/25/6 14/26/6 13/27/6 16/28/6
f 9/29/4 12/30/4 16/31/4 13/32/4
f 11/33/2 10/34/2 14/35/2 15/36/2
f 12/37/3 11/38/3 15/39/3 16/40/3
f 2/41/6 6/42/6 8/43/6 11/44/6 12/45/6 9/46/6
f 8/47/6 4/48/6 2/49/6 9/50/6 10/51/6 11/52/6
