# Blender v2.92.0 OBJ File: 'minecraft_assets.blend'
# www.blender.org
mtllib vines_3_sided.mtl
o vines_Cube
v 0.495000 0.495000 -0.495000
v -0.495000 0.495000 -0.495000
v -0.495000 0.495000 0.495000
v 0.495000 0.495000 0.495000
v 0.495000 -0.495000 0.495000
v -0.495000 -0.495000 0.495000
v -0.495000 -0.495000 -0.495000
v 0.495000 -0.495000 -0.495000
vt 0.000199 0.999434
vt 0.000199 0.000617
vt 0.999607 0.000617
vt 0.999607 0.999434
vt 0.474778 0.431790
vt 0.474778 0.390739
vt 0.515826 0.390739
vt 0.515826 0.431790
vt 0.000511 0.998878
vt 0.000511 0.000445
vt 0.999414 0.000445
vt 0.999414 0.998878
vt 0.000699 0.999392
vt 0.000699 0.000137
vt 0.999277 0.000137
vt 0.999277 0.999392
vt 0.000381 0.999450
vt 0.000381 0.000529
vt 0.998899 0.000529
vt 0.998899 0.999450
vt 0.000487 0.999500
vt 0.000486 0.000507
vt 0.999707 0.000507
vt 0.999707 0.999500
vn 0.0000 1.0000 0.0000
vn 0.0000 -0.0000 1.0000
vn -1.0000 0.0000 0.0000
vn 0.0000 -1.0000 -0.0000
vn 1.0000 -0.0000 0.0000
vn 0.0000 0.0000 -1.0000
usemtl vine
s 1
f 1/1/1 2/2/1 3/3/1 4/4/1
f 5/5/2 4/6/2 3/7/2 6/8/2
f 6/9/3 3/10/3 2/11/3 7/12/3
f 7/13/4 8/14/4 5/15/4 6/16/4
f 8/17/5 1/18/5 4/19/5 5/20/5
f 7/21/6 2/22/6 1/23/6 8/24/6
