# Blender v2.92.0 OBJ File: 'minecraft_assets.blend'
# www.blender.org
mtllib door.mtl
o door_Cube.002
v -0.500000 -0.500000 0.158231
v -0.500000 0.500000 0.158231
v -0.500000 -0.500000 -0.158231
v -0.500000 0.500000 -0.158231
v 0.500000 -0.500000 0.158231
v 0.500000 0.500000 0.158231
v 0.500000 -0.500000 -0.158231
v 0.500000 0.500000 -0.158231
vt 0.968355 0.207738
vt 0.989667 0.207738
vt 0.989667 0.228286
vt 0.968355 0.228286
vt 0.000976 0.000586
vt 0.000976 0.999193
vt 0.998420 0.999193
vt 0.998420 0.000586
vt 0.987602 0.242330
vt 0.954917 0.242330
vt 0.954917 0.213969
vt 0.987602 0.213969
vt 0.999263 0.001364
vt 0.999263 0.999437
vt 0.000446 0.999437
vt 0.000446 0.001364
vt 0.987507 0.230864
vt 0.963477 0.230864
vt 0.963477 0.206833
vt 0.987507 0.206833
vt 0.955620 0.207981
vt 0.978435 0.207981
vt 0.978435 0.229717
vt 0.955620 0.229717
vn -1.0000 0.0000 0.0000
vn 0.0000 0.0000 -1.0000
vn 1.0000 0.0000 0.0000
vn 0.0000 0.0000 1.0000
vn 0.0000 -1.0000 0.0000
vn 0.0000 1.0000 0.0000
usemtl main
s off
f 1/1/1 2/2/1 4/3/1 3/4/1
f 3/5/2 4/6/2 8/7/2 7/8/2
f 7/9/3 8/10/3 6/11/3 5/12/3
f 5/13/4 6/14/4 2/15/4 1/16/4
f 3/17/5 7/18/5 5/19/5 1/20/5
f 8/21/6 4/22/6 2/23/6 6/24/6
