# Blender v2.92.0 OBJ File: 'minecraft_assets.blend'
# www.blender.org
mtllib end_portal_frame_eye.mtl
o end_portal_frame_eye_Cube.005
v -0.500000 -0.398058 0.500000
v -0.250468 0.351942 0.250468
v -0.500000 -0.398058 -0.500000
v -0.250468 0.351942 -0.250468
v 0.500000 -0.398058 0.500000
v 0.250468 0.351942 0.250468
v 0.500000 -0.398058 -0.500000
v 0.250468 0.351942 -0.250468
v -0.500000 0.351942 0.500000
v -0.500000 0.351942 -0.500000
v 0.500000 0.351942 -0.500000
v 0.500000 0.351942 0.500000
v -0.250468 0.511560 0.250468
v -0.250468 0.511560 -0.250468
v 0.250468 0.511560 -0.250468
v 0.250468 0.511560 0.250468
vt 0.999361 0.333468
vt 0.999361 0.603870
vt 0.000348 0.603870
vt 0.000348 0.333468
vt 0.999574 0.333483
vt 0.999574 0.604030
vt 0.000464 0.604030
vt 0.000464 0.333483
vt 0.999781 0.333772
vt 0.999781 0.604029
vt 0.000585 0.604029
vt 0.000585 0.333772
vt 0.998129 0.333856
vt 0.998129 0.604072
vt 0.001108 0.604072
vt 0.001108 0.333856
vt 0.125000 0.500000
vt 0.375000 0.500000
vt 0.375000 0.750000
vt 0.125000 0.750000
vt 0.749409 0.250320
vt 0.250602 0.250320
vt 0.250602 0.333181
vt 0.749409 0.333181
vt 0.249789 0.916865
vt 0.750024 0.916865
vt 0.999207 0.999930
vt 0.000606 0.999930
vt 0.750024 0.750113
vt 0.999207 0.667048
vt 0.249789 0.750113
vt 0.000606 0.667048
vt 0.750024 0.082688
vt 0.750024 0.249440
vt 0.249789 0.249440
vt 0.249789 0.082688
vt 0.248812 0.250326
vt 0.749048 0.250326
vt 0.749048 0.333235
vt 0.248812 0.333235
vt 0.250965 0.250131
vt 0.748959 0.250094
vt 0.749736 0.333127
vt 0.250703 0.333192
vt 0.250314 0.250320
vt 0.750571 0.250320
vt 0.750571 0.333221
vt 0.250314 0.333221
vn -1.0000 0.0000 0.0000
vn 0.0000 0.0000 -1.0000
vn 1.0000 0.0000 0.0000
vn 0.0000 0.0000 1.0000
vn 0.0000 -1.0000 0.0000
vn 0.0000 1.0000 0.0000
usemtl mainEye
s off
f 1/1/1 9/2/1 10/3/1 3/4/1
f 3/5/2 10/6/2 11/7/2 7/8/2
f 7/9/3 11/10/3 12/11/3 5/12/3
f 5/13/4 12/14/4 9/15/4 1/16/4
f 3/17/5 7/18/5 5/19/5 1/20/5
f 6/21/3 8/22/3 15/23/3 16/24/3
f 2/25/6 4/26/6 10/27/6 9/28/6
f 4/26/6 8/29/6 11/30/6 10/27/6
f 8/29/6 6/31/6 12/32/6 11/30/6
f 6/31/6 2/25/6 9/28/6 12/32/6
f 15/33/6 14/34/6 13/35/6 16/36/6
f 4/37/1 2/38/1 13/39/1 14/40/1
f 2/41/4 6/42/4 16/43/4 13/44/4
f 8/45/2 4/46/2 14/47/2 15/48/2
