<svg width="30" height="30" viewBox="0 0 30 30" fill="none" xmlns="http://www.w3.org/2000/svg">
<g id="12">
<g id="Filter">
<g id="Filter_2">
<mask id="path-1-outside-1" maskUnits="userSpaceOnUse" x="0.5" y="2.625" width="29" height="27" fill="black">
<rect fill="white" x="0.5" y="2.625" width="29" height="27"/>
<path fill-rule="evenodd" clip-rule="evenodd" d="M7.22911 14.1155C9.8402 14.1155 11.9582 11.9917 11.9582 9.37167C11.9582 6.75027 9.8402 4.625 7.22911 4.625C4.61803 4.625 2.5 6.75027 2.5 9.37167C2.5 11.9917 4.61803 14.1155 7.22911 14.1155ZM18.0349 22.2096C18.2233 19.595 20.4884 17.6302 23.0927 17.8179C25.697 18.0055 27.6557 20.2746 27.4673 22.8892C27.279 25.5025 25.0151 27.4701 22.4108 27.2825C19.8064 27.0948 17.8466 24.8228 18.0349 22.2096ZM4.54815 19.3429L12.7463 19.9336C13.7824 20.0082 14.5638 20.914 14.4889 21.9538C14.414 22.9935 13.5107 23.7793 12.4745 23.7047L4.27644 23.114C3.23887 23.0392 2.45761 22.132 2.53252 21.0923C2.60743 20.0526 3.51057 19.2681 4.54815 19.3429ZM25.6167 7.48145C26.6556 7.48145 27.5001 8.32877 27.5001 9.37119C27.5001 10.4136 26.6556 11.2609 25.6167 11.2609H17.3974C16.3571 11.2609 15.5127 10.4136 15.5127 9.37119C15.5127 8.32877 16.3571 7.48145 17.3974 7.48145H25.6167Z"/>
</mask>
<path fill-rule="evenodd" clip-rule="evenodd" d="M7.22911 14.1155C9.8402 14.1155 11.9582 11.9917 11.9582 9.37167C11.9582 6.75027 9.8402 4.625 7.22911 4.625C4.61803 4.625 2.5 6.75027 2.5 9.37167C2.5 11.9917 4.61803 14.1155 7.22911 14.1155ZM18.0349 22.2096C18.2233 19.595 20.4884 17.6302 23.0927 17.8179C25.697 18.0055 27.6557 20.2746 27.4673 22.8892C27.279 25.5025 25.0151 27.4701 22.4108 27.2825C19.8064 27.0948 17.8466 24.8228 18.0349 22.2096ZM4.54815 19.3429L12.7463 19.9336C13.7824 20.0082 14.5638 20.914 14.4889 21.9538C14.414 22.9935 13.5107 23.7793 12.4745 23.7047L4.27644 23.114C3.23887 23.0392 2.45761 22.132 2.53252 21.0923C2.60743 20.0526 3.51057 19.2681 4.54815 19.3429ZM25.6167 7.48145C26.6556 7.48145 27.5001 8.32877 27.5001 9.37119C27.5001 10.4136 26.6556 11.2609 25.6167 11.2609H17.3974C16.3571 11.2609 15.5127 10.4136 15.5127 9.37119C15.5127 8.32877 16.3571 7.48145 17.3974 7.48145H25.6167Z" fill="white"/>
<path d="M23.0927 17.8179L22.9849 19.314L23.0927 17.8179ZM18.0349 22.2096L19.531 22.3174L18.0349 22.2096ZM27.4673 22.8892L25.9712 22.7814L27.4673 22.8892ZM22.4108 27.2825L22.303 28.7786L22.4108 27.2825ZM12.7463 19.9336L12.854 18.4374H12.854L12.7463 19.9336ZM4.54815 19.3429L4.44035 20.839H4.44035L4.54815 19.3429ZM14.4889 21.9538L15.985 22.0616L14.4889 21.9538ZM12.4745 23.7047L12.3667 25.2008L12.4745 23.7047ZM4.27644 23.114L4.38424 21.6179H4.38424L4.27644 23.114ZM2.53252 21.0923L1.0364 20.9845L2.53252 21.0923ZM10.4582 9.37167C10.4582 11.1675 9.00752 12.6155 7.22911 12.6155V15.6155C10.6729 15.6155 13.4582 12.8158 13.4582 9.37167H10.4582ZM7.22911 6.125C9.00666 6.125 10.4582 7.57358 10.4582 9.37167H13.4582C13.4582 5.92696 10.6737 3.125 7.22911 3.125V6.125ZM4 9.37167C4 7.57358 5.45157 6.125 7.22911 6.125V3.125C3.7845 3.125 1 5.92696 1 9.37167H4ZM7.22911 12.6155C5.45071 12.6155 4 11.1675 4 9.37167H1C1 12.8158 3.78536 15.6155 7.22911 15.6155V12.6155ZM23.2005 16.3217C19.7659 16.0743 16.7864 18.6649 16.5388 22.1018L19.531 22.3174C19.6602 20.5251 21.2108 19.1862 22.9849 19.314L23.2005 16.3217ZM28.9634 22.997C29.211 19.5606 26.6356 16.5692 23.2005 16.3217L22.9849 19.314C24.7584 19.4418 26.1003 20.9886 25.9712 22.7814L28.9634 22.997ZM22.303 28.7786C25.739 29.0262 28.716 26.4311 28.9634 22.997L25.9712 22.7814C25.842 24.5738 24.2912 25.9141 22.5186 25.7864L22.303 28.7786ZM16.5388 22.1018C16.2913 25.5365 18.8676 28.5311 22.303 28.7786L22.5186 25.7864C20.7453 25.6586 19.4019 24.1092 19.531 22.3174L16.5388 22.1018ZM12.854 18.4374L4.65595 17.8468L4.44035 20.839L12.6385 21.4297L12.854 18.4374ZM15.985 22.0616C16.1191 20.2003 14.7213 18.572 12.854 18.4374L12.6385 21.4297C12.8436 21.4445 13.0085 21.6277 12.9928 21.846L15.985 22.0616ZM12.3667 25.2008C14.2355 25.3354 15.851 23.9213 15.985 22.0616L12.9928 21.846C12.9769 22.0657 12.786 22.2232 12.5823 22.2085L12.3667 25.2008ZM4.16865 24.6101L12.3667 25.2008L12.5823 22.2085L4.38424 21.6179L4.16865 24.6101ZM1.0364 20.9845C0.902348 22.845 2.29926 24.4754 4.16865 24.6101L4.38424 21.6179C4.17847 21.603 4.01286 21.4191 4.02864 21.2001L1.0364 20.9845ZM4.65595 17.8468C2.788 17.7122 1.17055 19.1226 1.0364 20.9845L4.02864 21.2001C4.04431 20.9826 4.23315 20.8241 4.44035 20.839L4.65595 17.8468ZM29.0001 9.37119C29.0001 7.50517 27.4889 5.98145 25.6167 5.98145V8.98145C25.8224 8.98145 26.0001 9.15236 26.0001 9.37119H29.0001ZM25.6167 12.7609C27.4889 12.7609 29.0001 11.2372 29.0001 9.37119H26.0001C26.0001 9.59002 25.8224 9.76094 25.6167 9.76094V12.7609ZM17.3974 12.7609H25.6167V9.76094H17.3974V12.7609ZM14.0127 9.37119C14.0127 11.2379 15.5246 12.7609 17.3974 12.7609V9.76094C17.1897 9.76094 17.0127 9.5893 17.0127 9.37119H14.0127ZM17.3974 5.98145C15.5246 5.98145 14.0127 7.50445 14.0127 9.37119H17.0127C17.0127 9.15309 17.1897 8.98145 17.3974 8.98145V5.98145ZM25.6167 5.98145H17.3974V8.98145H25.6167V5.98145Z" fill="url(#paint0_linear)" mask="url(#path-1-outside-1)"/>
</g>
</g>
</g>
<defs>
<linearGradient id="paint0_linear" x1="15" y1="-5.65858e-07" x2="15" y2="26.7361" gradientUnits="userSpaceOnUse">
<stop stop-color="#E98DFF"/>
<stop offset="0.833333" stop-color="#BA54DD"/>
</linearGradient>
</defs>
</svg>
