<svg width="30" height="30" viewBox="0 0 30 30" fill="none" xmlns="http://www.w3.org/2000/svg">
<g id="15">
<g id="2 User">
<g id="2 Friends">
<mask id="path-1-outside-1" maskUnits="userSpaceOnUse" x="0.5" y="1.75" width="29" height="26" fill="black">
<rect fill="white" x="0.5" y="1.75" width="29" height="26"/>
<path fill-rule="evenodd" clip-rule="evenodd" d="M17.7654 9.70301C17.7654 13.0077 15.0612 15.656 11.6867 15.656C8.31337 15.656 5.60788 13.0077 5.60788 9.70301C5.60788 6.39831 8.31337 3.75 11.6867 3.75C15.0612 3.75 17.7654 6.39831 17.7654 9.70301ZM2.5 22.3967C2.5 19.3376 6.73191 18.5722 11.6867 18.5722C16.6683 18.5722 20.8733 19.3639 20.8733 22.4255C20.8733 25.4846 16.6414 26.25 11.6867 26.25C6.705 26.25 2.5 25.4583 2.5 22.3967ZM20.2168 9.81094C20.2168 11.4938 19.7006 13.0641 18.7955 14.3685C18.7014 14.5027 18.7845 14.6835 18.9484 14.7123C19.1759 14.7494 19.4095 14.7722 19.648 14.777C22.0208 14.8381 24.1502 13.342 24.7386 11.089C25.6106 7.74595 23.0519 4.74429 19.7924 4.74429C19.4389 4.74429 19.1001 4.78022 18.7699 4.8461C18.7246 4.85568 18.6757 4.87724 18.6512 4.91557C18.6194 4.96468 18.6427 5.02816 18.6745 5.07009C19.6542 6.4152 20.2168 8.05258 20.2168 9.81094ZM24.1466 17.1279C25.7415 17.4333 26.7897 18.055 27.2239 18.9617C27.592 19.7043 27.592 20.5667 27.2239 21.3094C26.5597 22.7132 24.4169 23.1647 23.584 23.2809C23.4115 23.3049 23.2733 23.1611 23.2916 22.9911C23.7173 19.1006 20.333 17.256 19.4572 16.832C19.4205 16.8117 19.412 16.7829 19.4156 16.7637C19.4181 16.7518 19.434 16.7326 19.4621 16.729C21.3567 16.6931 23.3944 16.9482 24.1466 17.1279Z"/>
</mask>
<path fill-rule="evenodd" clip-rule="evenodd" d="M17.7654 9.70301C17.7654 13.0077 15.0612 15.656 11.6867 15.656C8.31337 15.656 5.60788 13.0077 5.60788 9.70301C5.60788 6.39831 8.31337 3.75 11.6867 3.75C15.0612 3.75 17.7654 6.39831 17.7654 9.70301ZM2.5 22.3967C2.5 19.3376 6.73191 18.5722 11.6867 18.5722C16.6683 18.5722 20.8733 19.3639 20.8733 22.4255C20.8733 25.4846 16.6414 26.25 11.6867 26.25C6.705 26.25 2.5 25.4583 2.5 22.3967ZM20.2168 9.81094C20.2168 11.4938 19.7006 13.0641 18.7955 14.3685C18.7014 14.5027 18.7845 14.6835 18.9484 14.7123C19.1759 14.7494 19.4095 14.7722 19.648 14.777C22.0208 14.8381 24.1502 13.342 24.7386 11.089C25.6106 7.74595 23.0519 4.74429 19.7924 4.74429C19.4389 4.74429 19.1001 4.78022 18.7699 4.8461C18.7246 4.85568 18.6757 4.87724 18.6512 4.91557C18.6194 4.96468 18.6427 5.02816 18.6745 5.07009C19.6542 6.4152 20.2168 8.05258 20.2168 9.81094ZM24.1466 17.1279C25.7415 17.4333 26.7897 18.055 27.2239 18.9617C27.592 19.7043 27.592 20.5667 27.2239 21.3094C26.5597 22.7132 24.4169 23.1647 23.584 23.2809C23.4115 23.3049 23.2733 23.1611 23.2916 22.9911C23.7173 19.1006 20.333 17.256 19.4572 16.832C19.4205 16.8117 19.412 16.7829 19.4156 16.7637C19.4181 16.7518 19.434 16.7326 19.4621 16.729C21.3567 16.6931 23.3944 16.9482 24.1466 17.1279Z" fill="white"/>
<path d="M18.7955 14.3685L20.0232 15.2304L20.0279 15.2237L18.7955 14.3685ZM18.9484 14.7123L18.6893 16.1897L18.698 16.1913L18.7068 16.1927L18.9484 14.7123ZM19.648 14.777L19.6866 13.2774L19.6782 13.2773L19.648 14.777ZM24.7386 11.089L26.1899 11.468L26.19 11.4676L24.7386 11.089ZM18.7699 4.8461L18.4764 3.37508L18.4678 3.37681L18.4591 3.37863L18.7699 4.8461ZM18.6512 4.91557L19.9103 5.73091L19.9157 5.72254L18.6512 4.91557ZM18.6745 5.07009L19.8869 4.18698L19.8783 4.17518L19.8695 4.16355L18.6745 5.07009ZM27.2239 18.9617L25.871 19.6095L25.8754 19.6188L25.88 19.6279L27.2239 18.9617ZM24.1466 17.1279L23.7981 18.5868L23.8311 18.5947L23.8644 18.6011L24.1466 17.1279ZM27.2239 21.3094L25.88 20.6431L25.8738 20.6554L25.868 20.6679L27.2239 21.3094ZM23.584 23.2809L23.7903 24.7667L23.7912 24.7665L23.584 23.2809ZM23.2916 22.9911L21.8005 22.8279L21.8003 22.8302L23.2916 22.9911ZM19.4572 16.832L18.7294 18.1436L18.7659 18.1639L18.8036 18.1821L19.4572 16.832ZM19.4156 16.7637L17.946 16.4635L17.9442 16.4726L17.9424 16.4816L19.4156 16.7637ZM19.4621 16.729L19.4337 15.2293L19.3526 15.2308L19.2721 15.2411L19.4621 16.729ZM11.6867 17.156C15.8599 17.156 19.2654 13.8656 19.2654 9.70301H16.2654C16.2654 12.1499 14.2625 14.156 11.6867 14.156V17.156ZM4.10788 9.70301C4.10788 13.8657 7.51485 17.156 11.6867 17.156V14.156C9.11188 14.156 7.10788 12.1497 7.10788 9.70301H4.10788ZM11.6867 2.25C7.51485 2.25 4.10788 5.54028 4.10788 9.70301H7.10788C7.10788 7.25634 9.11188 5.25 11.6867 5.25V2.25ZM19.2654 9.70301C19.2654 5.54048 15.8599 2.25 11.6867 2.25V5.25C14.2625 5.25 16.2654 7.25615 16.2654 9.70301H19.2654ZM11.6867 17.0722C9.17642 17.0722 6.67258 17.2603 4.74983 17.918C3.77982 18.2498 2.84894 18.7367 2.14824 19.4785C1.41371 20.2561 1 21.245 1 22.3967H4C4 22.0188 4.11528 21.7649 4.32907 21.5386C4.57669 21.2765 5.01345 20.9985 5.72077 20.7565C7.15267 20.2667 9.24216 20.0722 11.6867 20.0722V17.0722ZM22.3733 22.4255C22.3733 21.2766 21.9639 20.2877 21.234 19.5072C20.5369 18.7618 19.6093 18.2699 18.6397 17.9336C16.7183 17.2671 14.2127 17.0722 11.6867 17.0722V20.0722C14.1423 20.0722 16.23 20.2731 17.6566 20.7679C18.3609 21.0122 18.7959 21.2922 19.0429 21.5564C19.2571 21.7854 19.3733 22.0435 19.3733 22.4255H22.3733ZM11.6867 27.75C14.1969 27.75 16.7008 27.5619 18.6235 26.9042C19.5935 26.5724 20.5244 26.0854 21.2251 25.3437C21.9596 24.5661 22.3733 23.5772 22.3733 22.4255H19.3733C19.3733 22.8033 19.2581 23.0573 19.0443 23.2836C18.7966 23.5457 18.3599 23.8237 17.6526 24.0656C16.2207 24.5554 14.1312 24.75 11.6867 24.75V27.75ZM1 22.3967C1 23.5455 1.40942 24.5345 2.13932 25.315C2.83641 26.0603 3.76404 26.5523 4.73365 26.8886C6.65499 27.555 9.16063 27.75 11.6867 27.75V24.75C9.23104 24.75 7.14334 24.5491 5.71677 24.0543C5.01242 23.81 4.57745 23.5299 4.33042 23.2658C4.1162 23.0367 4 22.7787 4 22.3967H1ZM20.0279 15.2237C21.1038 13.6732 21.7168 11.8056 21.7168 9.81094H18.7168C18.7168 11.1821 18.2975 12.4551 17.5632 13.5134L20.0279 15.2237ZM19.2076 13.2349C20.0135 13.3762 20.6245 14.3739 20.0232 15.2304L17.5679 13.5067C16.7782 14.6315 17.5555 15.9909 18.6893 16.1897L19.2076 13.2349ZM19.6782 13.2773C19.5154 13.274 19.3526 13.2584 19.1901 13.2319L18.7068 16.1927C18.9993 16.2404 19.3036 16.2704 19.6179 16.2767L19.6782 13.2773ZM23.2872 10.71C22.889 12.235 21.42 13.3221 19.6866 13.2775L19.6094 16.2765C22.6217 16.354 25.4115 14.4491 26.1899 11.468L23.2872 10.71ZM19.7924 6.24429C22.1315 6.24429 23.8959 8.37659 23.2871 10.7104L26.19 11.4676C27.3253 7.1153 23.9723 3.24429 19.7924 3.24429V6.24429ZM19.0633 6.31711C19.3017 6.26956 19.5422 6.24429 19.7924 6.24429V3.24429C19.3356 3.24429 18.8985 3.29088 18.4764 3.37508L19.0633 6.31711ZM19.9157 5.72254C19.7535 5.97667 19.5497 6.11698 19.4188 6.18811C19.2851 6.26075 19.1653 6.29562 19.0806 6.31356L18.4591 3.37863C18.2786 3.41687 17.7373 3.55939 17.3868 4.1086L19.9157 5.72254ZM19.8695 4.16355C19.955 4.27618 20.056 4.44834 20.106 4.68274C20.1591 4.93174 20.1658 5.3363 19.9103 5.73089L17.3921 4.10025C17.1048 4.54395 17.1072 5.00481 17.172 5.3083C17.2336 5.59721 17.3621 5.82207 17.4794 5.97662L19.8695 4.16355ZM21.7168 9.81094C21.7168 7.72681 21.0485 5.78176 19.8869 4.18698L17.462 5.95319C18.2598 7.04864 18.7168 8.37836 18.7168 9.81094H21.7168ZM28.5768 18.3138C27.835 16.7648 26.197 15.9933 24.4287 15.6546L23.8644 18.6011C25.286 18.8733 25.7444 19.3452 25.871 19.6095L28.5768 18.3138ZM28.5678 21.9756C29.1441 20.8132 29.1441 19.4579 28.5678 18.2955L25.88 19.6279C26.04 19.9508 26.04 20.3203 25.88 20.6431L28.5678 21.9756ZM23.7912 24.7665C24.2762 24.6989 25.1598 24.5332 26.0469 24.1615C26.8965 23.8055 28.0122 23.1507 28.5798 21.9508L25.868 20.6679C25.7715 20.8719 25.4836 21.1447 24.8875 21.3945C24.3289 21.6286 23.7247 21.7468 23.3767 21.7953L23.7912 24.7665ZM21.8003 22.8302C21.6839 23.9095 22.5908 24.9333 23.7903 24.7667L23.3776 21.7952C24.2322 21.6765 24.8627 22.4128 24.783 23.1519L21.8003 22.8302ZM18.8036 18.1821C19.169 18.359 20.0347 18.8247 20.7486 19.6163C21.4332 20.3753 21.9567 21.4003 21.8005 22.8279L24.7827 23.1542C25.0522 20.6913 24.0964 18.8489 22.9763 17.607C21.8855 16.3976 20.6212 15.729 20.1109 15.4819L18.8036 18.1821ZM17.9424 16.4816C17.799 17.2306 18.2138 17.8575 18.7294 18.1436L20.1851 15.5204C20.6273 15.7658 21.025 16.3352 20.8889 17.0458L17.9424 16.4816ZM19.2721 15.2411C18.6961 15.3147 18.094 15.7391 17.946 16.4635L20.8853 17.064C20.8037 17.4634 20.5824 17.7292 20.41 17.8782C20.2045 18.0557 19.9433 18.1797 19.6522 18.2169L19.2721 15.2411ZM24.4951 15.6689C23.5992 15.4549 21.4325 15.1914 19.4337 15.2293L19.4906 18.2287C21.2809 18.1948 23.1895 18.4415 23.7981 18.5868L24.4951 15.6689Z" fill="url(#paint0_linear)" mask="url(#path-1-outside-1)"/>
</g>
</g>
</g>
<defs>
<linearGradient id="paint0_linear" x1="15" y1="3.75" x2="15" y2="26.25" gradientUnits="userSpaceOnUse">
<stop stop-color="#FFC057"/>
<stop offset="1" stop-color="#E26835"/>
</linearGradient>
</defs>
</svg>
