<svg width="30" height="30" viewBox="0 0 30 30" fill="none" xmlns="http://www.w3.org/2000/svg">
<g id="3">
<g id="Camera">
<g id="Camera_2">
<mask id="path-1-outside-1" maskUnits="userSpaceOnUse" x="0.5" y="1.75" width="29" height="26" fill="black">
<rect fill="white" x="0.5" y="1.75" width="29" height="26"/>
<path fill-rule="evenodd" clip-rule="evenodd" d="M21.8 7.79551C21.85 7.88291 21.9375 7.94534 22.05 7.94534C25.05 7.94534 27.5 10.3926 27.5 13.3893V20.806C27.5 23.8027 25.05 26.25 22.05 26.25H7.95C4.9375 26.25 2.5 23.8027 2.5 20.806V13.3893C2.5 10.3926 4.9375 7.94534 7.95 7.94534C8.05 7.94534 8.15 7.89539 8.1875 7.79551L8.2625 7.64567C8.30559 7.55498 8.34981 7.46183 8.39471 7.36726C8.71449 6.6937 9.06828 5.9485 9.2875 5.51054C9.8625 4.38679 10.8375 3.76249 12.05 3.75H17.9375C19.15 3.76249 20.1375 4.38679 20.7125 5.51054C20.9094 5.90387 21.2093 6.53744 21.4984 7.14809C21.5581 7.27408 21.6173 7.39909 21.675 7.52081L21.8 7.79551ZM19.8875 12.0901C19.8875 12.7144 20.3875 13.2138 21.0125 13.2138C21.6375 13.2138 22.15 12.7144 22.15 12.0901C22.15 11.4658 21.6375 10.9539 21.0125 10.9539C20.3875 10.9539 19.8875 11.4658 19.8875 12.0901ZM11.8375 14.0255C12.425 13.4386 13.1875 13.1265 14 13.1265C14.8125 13.1265 15.575 13.4386 16.15 14.013C16.725 14.5873 17.0375 15.349 17.0375 16.1606C17.025 17.8337 15.675 19.1947 14 19.1947C13.1875 19.1947 12.425 18.8826 11.85 18.3082C11.275 17.7338 10.9625 16.9722 10.9625 16.1606V16.1481C10.95 15.3615 11.2625 14.5998 11.8375 14.0255ZM17.4625 19.6319C16.575 20.5184 15.35 21.0678 14 21.0678C12.6875 21.0678 11.4625 20.5558 10.525 19.6319C9.6 18.6954 9.0875 17.4718 9.0875 16.1607C9.075 14.8622 9.5875 13.6385 10.5125 12.7021C11.45 11.7656 12.6875 11.2537 14 11.2537C15.3125 11.2537 16.55 11.7656 17.475 12.6896C18.4 13.626 18.9125 14.8622 18.9125 16.1607C18.9 17.5217 18.35 18.7453 17.4625 19.6319Z"/>
</mask>
<path fill-rule="evenodd" clip-rule="evenodd" d="M21.8 7.79551C21.85 7.88291 21.9375 7.94534 22.05 7.94534C25.05 7.94534 27.5 10.3926 27.5 13.3893V20.806C27.5 23.8027 25.05 26.25 22.05 26.25H7.95C4.9375 26.25 2.5 23.8027 2.5 20.806V13.3893C2.5 10.3926 4.9375 7.94534 7.95 7.94534C8.05 7.94534 8.15 7.89539 8.1875 7.79551L8.2625 7.64567C8.30559 7.55498 8.34981 7.46183 8.39471 7.36726C8.71449 6.6937 9.06828 5.9485 9.2875 5.51054C9.8625 4.38679 10.8375 3.76249 12.05 3.75H17.9375C19.15 3.76249 20.1375 4.38679 20.7125 5.51054C20.9094 5.90387 21.2093 6.53744 21.4984 7.14809C21.5581 7.27408 21.6173 7.39909 21.675 7.52081L21.8 7.79551ZM19.8875 12.0901C19.8875 12.7144 20.3875 13.2138 21.0125 13.2138C21.6375 13.2138 22.15 12.7144 22.15 12.0901C22.15 11.4658 21.6375 10.9539 21.0125 10.9539C20.3875 10.9539 19.8875 11.4658 19.8875 12.0901ZM11.8375 14.0255C12.425 13.4386 13.1875 13.1265 14 13.1265C14.8125 13.1265 15.575 13.4386 16.15 14.013C16.725 14.5873 17.0375 15.349 17.0375 16.1606C17.025 17.8337 15.675 19.1947 14 19.1947C13.1875 19.1947 12.425 18.8826 11.85 18.3082C11.275 17.7338 10.9625 16.9722 10.9625 16.1606V16.1481C10.95 15.3615 11.2625 14.5998 11.8375 14.0255ZM17.4625 19.6319C16.575 20.5184 15.35 21.0678 14 21.0678C12.6875 21.0678 11.4625 20.5558 10.525 19.6319C9.6 18.6954 9.0875 17.4718 9.0875 16.1607C9.075 14.8622 9.5875 13.6385 10.5125 12.7021C11.45 11.7656 12.6875 11.2537 14 11.2537C15.3125 11.2537 16.55 11.7656 17.475 12.6896C18.4 13.626 18.9125 14.8622 18.9125 16.1607C18.9 17.5217 18.35 18.7453 17.4625 19.6319Z" fill="white"/>
<path d="M21.8 7.79551L20.4347 8.41678L20.4635 8.48002L20.498 8.54033L21.8 7.79551ZM8.1875 7.79551L6.84616 7.12409L6.81089 7.19455L6.7832 7.26831L8.1875 7.79551ZM8.2625 7.64567L9.60384 8.31709L9.61075 8.3033L9.61736 8.28937L8.2625 7.64567ZM8.39471 7.36726L7.03967 6.72395L7.03966 6.72395L8.39471 7.36726ZM9.2875 5.51054L7.9521 4.82725L7.94616 4.83913L9.2875 5.51054ZM12.05 3.75V2.25H12.0423L12.0346 2.25008L12.05 3.75ZM17.9375 3.75L17.9529 2.25008L17.9452 2.25H17.9375V3.75ZM20.7125 5.51054L22.0539 4.8391L22.0478 4.82728L20.7125 5.51054ZM21.4984 7.14809L22.8542 6.50623L22.8542 6.50623L21.4984 7.14809ZM21.675 7.52081L23.0403 6.89953L23.0354 6.88878L23.0303 6.8781L21.675 7.52081ZM11.8375 14.0255L10.7774 12.9642L11.8375 14.0255ZM16.15 14.013L17.2101 12.9517L17.2101 12.9517L16.15 14.013ZM17.0375 16.1606L18.5375 16.1718V16.1606H17.0375ZM11.85 18.3082L12.9101 17.247L12.9101 17.247L11.85 18.3082ZM10.9625 16.1481H12.4625V16.1362L12.4623 16.1243L10.9625 16.1481ZM17.4625 19.6319L16.4024 18.5706L16.4024 18.5706L17.4625 19.6319ZM10.525 19.6319L9.45784 20.686L9.46491 20.6931L9.47208 20.7002L10.525 19.6319ZM9.0875 16.1607H10.5875V16.1535L10.5874 16.1463L9.0875 16.1607ZM10.5125 12.7021L9.45241 11.6408L9.44534 11.6479L10.5125 12.7021ZM17.475 12.6896L18.5422 11.6354L18.5351 11.6283L17.475 12.6896ZM18.9125 16.1607L20.4125 16.1745V16.1607H18.9125ZM22.05 6.44534C22.5558 6.44534 22.9272 6.74517 23.102 7.05068L20.498 8.54033C20.7728 9.02064 21.3192 9.44534 22.05 9.44534V6.44534ZM29 13.3893C29 9.56262 25.8769 6.44534 22.05 6.44534V9.44534C24.2231 9.44534 26 11.2226 26 13.3893H29ZM29 20.806V13.3893H26V20.806H29ZM22.05 27.75C25.8769 27.75 29 24.6327 29 20.806H26C26 22.9727 24.2231 24.75 22.05 24.75V27.75ZM7.95 27.75H22.05V24.75H7.95V27.75ZM1 20.806C1 24.6305 4.1084 27.75 7.95 27.75V24.75C5.7666 24.75 4 22.975 4 20.806H1ZM1 13.3893V20.806H4V13.3893H1ZM7.95 6.44534C4.1084 6.44534 1 9.56486 1 13.3893H4C4 11.2204 5.7666 9.44534 7.95 9.44534V6.44534ZM6.7832 7.26831C7.02322 6.62896 7.60736 6.44534 7.95 6.44534V9.44534C8.49265 9.44534 9.27678 9.16182 9.5918 8.3227L6.7832 7.26831ZM6.92116 6.97426L6.84616 7.12409L9.52884 8.46692L9.60384 8.31709L6.92116 6.97426ZM7.03966 6.72395C6.99475 6.81854 6.95062 6.9115 6.90764 7.00197L9.61736 8.28937C9.66056 8.19846 9.70487 8.10511 9.74975 8.01058L7.03966 6.72395ZM7.94616 4.83913C7.71814 5.29465 7.35606 6.05751 7.03967 6.72395L9.74975 8.01058C10.0729 7.32989 10.4184 6.60236 10.6288 6.18196L7.94616 4.83913ZM12.0346 2.25008C10.2324 2.26864 8.7662 3.23636 7.95216 4.82728L10.6228 6.19381C10.9588 5.53723 11.4426 5.25633 12.0654 5.24992L12.0346 2.25008ZM17.9375 2.25H12.05V5.25H17.9375V2.25ZM22.0478 4.82728C21.2305 3.22995 19.7482 2.26857 17.9529 2.25008L17.9221 5.24992C18.5518 5.25641 19.0445 5.54363 19.3772 6.19381L22.0478 4.82728ZM22.8542 6.50623C22.5685 5.90276 22.2599 5.25085 22.0538 4.83913L19.3712 6.18196C19.5588 6.55688 19.8502 7.17213 20.1427 7.78995L22.8542 6.50623ZM23.0303 6.8781C22.9728 6.75688 22.9139 6.6323 22.8542 6.50623L20.1427 7.78995C20.2023 7.91586 20.2617 8.0413 20.3197 8.16352L23.0303 6.8781ZM23.1653 7.17423L23.0403 6.89953L20.3097 8.14209L20.4347 8.41678L23.1653 7.17423ZM21.0125 11.7138C21.2143 11.7138 21.3875 11.8844 21.3875 12.0901H18.3875C18.3875 13.5444 19.5606 14.7138 21.0125 14.7138V11.7138ZM20.65 12.0901C20.65 11.8629 20.8323 11.7138 21.0125 11.7138V14.7138C22.4426 14.7138 23.65 13.5659 23.65 12.0901H20.65ZM21.0125 12.4539C20.8106 12.4539 20.65 12.2958 20.65 12.0901H23.65C23.65 10.6358 22.4643 9.45386 21.0125 9.45386V12.4539ZM21.3875 12.0901C21.3875 12.2741 21.2358 12.4539 21.0125 12.4539V9.45386C19.5391 9.45386 18.3875 10.6575 18.3875 12.0901H21.3875ZM14 11.6265C12.7896 11.6265 11.646 12.0967 10.7774 12.9642L12.8976 15.0867C13.2041 14.7806 13.5854 14.6265 14 14.6265V11.6265ZM17.2101 12.9517C16.3508 12.0934 15.2057 11.6265 14 11.6265V14.6265C14.4193 14.6265 14.7992 14.7838 15.09 15.0742L17.2101 12.9517ZM18.5375 16.1606C18.5375 14.9547 18.0695 13.8101 17.2101 12.9517L15.09 15.0742C15.3806 15.3645 15.5375 15.7433 15.5375 16.1606H18.5375ZM14 20.6947C16.512 20.6947 18.5189 18.656 18.5375 16.1718L15.5376 16.1494C15.5311 17.0115 14.838 17.6947 14 17.6947V20.6947ZM10.7899 19.3695C11.6492 20.2278 12.7943 20.6947 14 20.6947V17.6947C13.5807 17.6947 13.2008 17.5373 12.9101 17.247L10.7899 19.3695ZM9.46252 16.1606C9.46252 17.3665 9.93059 18.5111 10.79 19.3695L12.9101 17.247C12.6194 16.9566 12.4625 16.5779 12.4625 16.1606H9.46252ZM9.46252 16.1481V16.1606H12.4625V16.1481H9.46252ZM10.7774 12.9642C9.92349 13.8172 9.44356 14.9671 9.46271 16.1719L12.4623 16.1243C12.4565 15.7559 12.6015 15.3824 12.8976 15.0867L10.7774 12.9642ZM14 22.5678C15.7651 22.5678 17.3665 21.8479 18.5226 20.6931L16.4024 18.5706C15.7835 19.1888 14.9349 19.5678 14 19.5678V22.5678ZM9.47208 20.7002C10.6843 21.8949 12.2852 22.5678 14 22.5678V19.5678C13.0898 19.5678 12.2407 19.2167 11.5779 18.5635L9.47208 20.7002ZM7.5875 16.1607C7.5875 17.8751 8.2617 19.475 9.45784 20.686L11.5922 18.5777C10.9383 17.9158 10.5875 17.0684 10.5875 16.1607H7.5875ZM9.44534 11.6479C8.25107 12.857 7.57107 14.4608 7.58757 16.1751L10.5874 16.1463C10.5789 15.2635 10.9239 14.42 11.5797 13.7562L9.44534 11.6479ZM14 9.75366C12.2881 9.75366 10.6699 10.4247 9.45243 11.6408L11.5726 13.7633C12.2301 13.1065 13.0869 12.7537 14 12.7537V9.75366ZM18.5351 11.6283C17.3281 10.4227 15.709 9.75366 14 9.75366V12.7537C14.916 12.7537 15.7719 13.1085 16.4149 13.7508L18.5351 11.6283ZM20.4125 16.1607C20.4125 14.4608 19.7398 12.8479 18.5422 11.6355L16.4078 13.7437C17.0603 14.4042 17.4125 15.2635 17.4125 16.1607H20.4125ZM18.5226 20.6931C19.6804 19.5365 20.3962 17.9399 20.4124 16.1745L17.4126 16.1469C17.4038 17.1035 17.0196 17.9541 16.4024 18.5706L18.5226 20.6931Z" fill="url(#paint0_linear)" mask="url(#path-1-outside-1)"/>
</g>
</g>
</g>
<defs>
<linearGradient id="paint0_linear" x1="15" y1="3.75" x2="15" y2="26.25" gradientUnits="userSpaceOnUse">
<stop stop-color="#2DBEFD"/>
<stop offset="1" stop-color="#0486ED"/>
</linearGradient>
</defs>
</svg>
