<svg width="30" height="30" viewBox="0 0 30 30" fill="none" xmlns="http://www.w3.org/2000/svg">
<g id="4">
<g id="Volume Off">
<g id="Volume Off_2">
<mask id="path-1-outside-1" maskUnits="userSpaceOnUse" x="1.125" y="1.125" width="28" height="28" fill="black">
<rect fill="white" x="1.125" y="1.125" width="28" height="28"/>
<path fill-rule="evenodd" clip-rule="evenodd" d="M25.165 3.4169C25.5532 3.0277 26.1823 3.0277 26.5839 3.4169C26.972 3.8061 26.972 4.4503 26.5839 4.8395L4.89915 26.5811C4.71175 26.769 4.44404 26.875 4.18971 26.875C3.93538 26.875 3.68106 26.769 3.48027 26.5811C3.09209 26.1785 3.09209 25.5477 3.48027 25.1585L6.90699 21.7228H6.62589C4.84561 21.7228 3.5472 20.4612 3.30626 18.5018C3.03855 16.5424 3.09209 13.1872 3.30626 11.4022C3.56059 9.55017 4.92592 8.2752 6.62589 8.2752H8.94161L13.3589 4.65161C13.8943 4.1953 14.8447 3.76584 15.5809 3.75242C16.9194 3.75242 18.1509 4.69187 18.5926 6.19499C18.7667 6.82577 18.8336 7.45654 18.8871 8.06047L18.9942 8.9194C18.9979 8.94743 19.0017 8.97494 19.0054 9.00218C19.0282 9.1706 19.0496 9.32882 19.0611 9.53675L25.165 3.4169ZM17.7692 16.828C17.9512 16.6495 18.3541 16.5233 18.5362 16.5689C19.0287 16.6938 19.1238 17.401 19.1171 17.9567C19.0943 19.5698 19.0395 20.6918 18.9538 21.3856L18.8935 21.9574L18.8925 21.9681C18.8353 22.5432 18.776 23.1383 18.6071 23.7732C18.16 25.2736 16.9647 26.248 15.6074 26.248C15.5619 26.248 15.5177 26.248 15.4722 26.2466C14.7226 26.2466 13.9074 25.7957 13.4456 25.4025L11.8005 24.1262C11.1767 23.6605 11.3601 22.917 11.7108 22.4861C11.9729 22.1652 15.1261 19.2634 16.7781 17.7431C17.3366 17.2291 17.7235 16.8731 17.7692 16.828Z"/>
</mask>
<path fill-rule="evenodd" clip-rule="evenodd" d="M25.165 3.4169C25.5532 3.0277 26.1823 3.0277 26.5839 3.4169C26.972 3.8061 26.972 4.4503 26.5839 4.8395L4.89915 26.5811C4.71175 26.769 4.44404 26.875 4.18971 26.875C3.93538 26.875 3.68106 26.769 3.48027 26.5811C3.09209 26.1785 3.09209 25.5477 3.48027 25.1585L6.90699 21.7228H6.62589C4.84561 21.7228 3.5472 20.4612 3.30626 18.5018C3.03855 16.5424 3.09209 13.1872 3.30626 11.4022C3.56059 9.55017 4.92592 8.2752 6.62589 8.2752H8.94161L13.3589 4.65161C13.8943 4.1953 14.8447 3.76584 15.5809 3.75242C16.9194 3.75242 18.1509 4.69187 18.5926 6.19499C18.7667 6.82577 18.8336 7.45654 18.8871 8.06047L18.9942 8.9194C18.9979 8.94743 19.0017 8.97494 19.0054 9.00218C19.0282 9.1706 19.0496 9.32882 19.0611 9.53675L25.165 3.4169ZM17.7692 16.828C17.9512 16.6495 18.3541 16.5233 18.5362 16.5689C19.0287 16.6938 19.1238 17.401 19.1171 17.9567C19.0943 19.5698 19.0395 20.6918 18.9538 21.3856L18.8935 21.9574L18.8925 21.9681C18.8353 22.5432 18.776 23.1383 18.6071 23.7732C18.16 25.2736 16.9647 26.248 15.6074 26.248C15.5619 26.248 15.5177 26.248 15.4722 26.2466C14.7226 26.2466 13.9074 25.7957 13.4456 25.4025L11.8005 24.1262C11.1767 23.6605 11.3601 22.917 11.7108 22.4861C11.9729 22.1652 15.1261 19.2634 16.7781 17.7431C17.3366 17.2291 17.7235 16.8731 17.7692 16.828Z" fill="white"/>
<path d="M26.5839 3.4169L27.6459 2.35763L27.6369 2.34863L27.6278 2.33978L26.5839 3.4169ZM25.165 3.4169L24.1029 2.35763V2.35763L25.165 3.4169ZM26.5839 4.8395L27.6459 5.89877L27.6459 5.89877L26.5839 4.8395ZM4.89915 26.5811L3.8371 25.5218L3.8371 25.5218L4.89915 26.5811ZM3.48027 26.5811L2.40043 27.6222L2.4272 27.65L2.45536 27.6763L3.48027 26.5811ZM3.48027 25.1585L2.41822 24.0992L2.41822 24.0992L3.48027 25.1585ZM6.90699 21.7228L7.96904 22.782L10.5216 20.2228H6.90699V21.7228ZM3.30626 18.5018L4.79505 18.3187L4.79382 18.3087L4.79245 18.2987L3.30626 18.5018ZM3.30626 11.4022L1.82021 11.1982L1.81847 11.2108L1.81694 11.2235L3.30626 11.4022ZM8.94161 8.2752V9.7752H9.47814L9.89295 9.43492L8.94161 8.2752ZM13.3589 4.65161L14.3102 5.81132L14.3211 5.80239L14.3318 5.79326L13.3589 4.65161ZM15.5809 3.75242V2.25242H15.5672L15.5535 2.25267L15.5809 3.75242ZM18.5926 6.19499L20.0386 5.79608L20.0353 5.78405L20.0318 5.77207L18.5926 6.19499ZM18.8871 8.06047L17.393 8.19294L17.3953 8.21954L17.3986 8.24605L18.8871 8.06047ZM18.9942 8.9194L17.5057 9.10498L17.5073 9.11715L18.9942 8.9194ZM19.0054 9.00218L20.4918 8.80078L20.4918 8.80076L19.0054 9.00218ZM19.0611 9.53675L17.5634 9.61974L17.7494 12.976L20.1232 10.596L19.0611 9.53675ZM18.5362 16.5689L18.9046 15.1149L18.9009 15.114L18.5362 16.5689ZM17.7692 16.828L16.719 15.7569L16.715 15.7608L17.7692 16.828ZM19.1171 17.9567L20.6169 17.9778L20.617 17.9747L19.1171 17.9567ZM18.9538 21.3856L17.4651 21.2018L17.4634 21.2151L17.462 21.2285L18.9538 21.3856ZM18.8935 21.9574L17.4018 21.8002L17.4009 21.8089L18.8935 21.9574ZM18.8925 21.9681L20.3851 22.1166L20.3851 22.1165L18.8925 21.9681ZM18.6071 23.7732L20.0446 24.2015L20.051 24.1803L20.0567 24.1589L18.6071 23.7732ZM15.4722 26.2466L15.5164 24.7473L15.4943 24.7466H15.4722V26.2466ZM13.4456 25.4025L14.4181 24.2604L14.3921 24.2383L14.3651 24.2173L13.4456 25.4025ZM11.8005 24.1262L12.72 22.941L12.709 22.9325L12.6979 22.9242L11.8005 24.1262ZM11.7108 22.4861L10.549 21.5374L10.5475 21.5392L11.7108 22.4861ZM16.7781 17.7431L15.7624 16.6393L15.7624 16.6393L16.7781 17.7431ZM27.6278 2.33978C26.6545 1.3965 25.087 1.37103 24.1029 2.35763L26.227 4.47617C26.0194 4.68437 25.71 4.6589 25.5399 4.49402L27.6278 2.33978ZM27.6459 5.89877C28.618 4.9241 28.618 3.3323 27.6459 2.35763L25.5218 4.47617C25.3261 4.2799 25.3261 3.9765 25.5218 3.78023L27.6459 5.89877ZM5.9612 27.6404L27.6459 5.89877L25.5218 3.78023L3.8371 25.5218L5.9612 27.6404ZM4.18971 28.375C4.83194 28.375 5.48498 28.1178 5.9612 27.6403L3.8371 25.5218C3.89435 25.4644 3.95201 25.4305 4.00135 25.4103C4.05015 25.3903 4.11212 25.375 4.18971 25.375V28.375ZM2.45536 27.6763C2.90642 28.0984 3.51853 28.375 4.18971 28.375V25.375C4.35223 25.375 4.45569 25.4395 4.50519 25.4858L2.45536 27.6763ZM2.41822 24.0992C1.43641 25.0836 1.46173 26.6486 2.40043 27.6222L4.56012 25.54C4.72245 25.7083 4.74777 26.0118 4.54232 26.2178L2.41822 24.0992ZM5.84494 20.6635L2.41822 24.0992L4.54232 26.2178L7.96904 22.782L5.84494 20.6635ZM6.62589 23.2228H6.90699V20.2228H6.62589V23.2228ZM1.81747 18.6849C1.9729 19.9488 2.48393 21.0885 3.34407 21.9234C4.21363 22.7674 5.36327 23.2228 6.62589 23.2228V20.2228C6.10823 20.2228 5.71853 20.0473 5.43357 19.7707C5.1392 19.485 4.88057 19.0142 4.79505 18.3187L1.81747 18.6849ZM1.81694 11.2235C1.59091 13.1073 1.53161 16.5936 1.82007 18.7049L4.79245 18.2987C4.54548 16.4911 4.59327 13.267 4.79558 11.5809L1.81694 11.2235ZM6.62589 6.7752C4.08001 6.7752 2.16283 8.7031 1.82021 11.1982L4.79231 11.6063C4.95834 10.3972 5.77183 9.7752 6.62589 9.7752V6.7752ZM8.94161 6.7752H6.62589V9.7752H8.94161V6.7752ZM12.4075 3.49189L7.99026 7.11549L9.89295 9.43492L14.3102 5.81132L12.4075 3.49189ZM15.5535 2.25267C14.9343 2.26396 14.3194 2.44119 13.8151 2.65238C13.3041 2.86639 12.7929 3.16313 12.3859 3.50996L14.3318 5.79326C14.4603 5.68378 14.6919 5.53764 14.974 5.41949C15.2629 5.29851 15.4912 5.2543 15.6082 5.25217L15.5535 2.25267ZM20.0318 5.77207C19.4243 3.70485 17.6595 2.25242 15.5809 2.25242V5.25242C16.1794 5.25242 16.8775 5.67889 17.1535 6.61792L20.0318 5.77207ZM20.3813 7.92801C20.3271 7.31756 20.2518 6.56872 20.0386 5.79608L17.1467 6.5939C17.2815 7.08281 17.34 7.59552 17.393 8.19294L20.3813 7.92801ZM20.4827 8.73383L20.3756 7.8749L17.3986 8.24605L17.5057 9.10497L20.4827 8.73383ZM20.4918 8.80076C20.488 8.77324 20.4846 8.74755 20.4811 8.72165L17.5073 9.11715C17.5113 9.14732 17.5153 9.17664 17.5189 9.2036L20.4918 8.80076ZM20.5588 9.45376C20.5437 9.18071 20.5148 8.9704 20.4918 8.80078L17.5189 9.20359C17.5416 9.37079 17.5555 9.47692 17.5634 9.61974L20.5588 9.45376ZM24.1029 2.35763L17.9991 8.47748L20.1232 10.596L26.227 4.47617L24.1029 2.35763ZM18.9009 15.114C18.3856 14.9848 17.9017 15.1178 17.6836 15.1896C17.4184 15.2769 17.0352 15.4469 16.719 15.7569L18.8193 17.899C18.7389 17.9778 18.6753 18.0134 18.66 18.0218C18.6388 18.0334 18.6271 18.0374 18.6217 18.0392C18.6179 18.0405 18.595 18.0481 18.5494 18.0537C18.5256 18.0567 18.4843 18.0605 18.4288 18.0594C18.3763 18.0583 18.2854 18.0525 18.1715 18.0239L18.9009 15.114ZM20.617 17.9747C20.6211 17.6342 20.5992 17.1297 20.4414 16.6406C20.2886 16.167 19.8818 15.3625 18.9046 15.1149L18.1677 18.023C17.9515 17.9682 17.7882 17.8449 17.6892 17.7276C17.6447 17.6748 17.6184 17.6299 17.6046 17.603C17.5975 17.5892 17.5928 17.5786 17.5901 17.572C17.5888 17.5686 17.5878 17.5661 17.5872 17.5644C17.5866 17.5628 17.5863 17.5619 17.5863 17.5619C17.5863 17.5618 17.5865 17.5625 17.587 17.564C17.5874 17.5655 17.588 17.5677 17.5887 17.5706C17.5902 17.5764 17.5921 17.5847 17.5942 17.5954C17.5985 17.6174 17.6031 17.6464 17.6069 17.6826C17.6148 17.7566 17.6183 17.8438 17.6172 17.9386L20.617 17.9747ZM20.4425 21.5695C20.5389 20.7885 20.5941 19.5964 20.6169 17.9778L17.6172 17.9355C17.5946 19.5433 17.54 20.5951 17.4651 21.2018L20.4425 21.5695ZM20.3853 22.1145L20.4455 21.5428L17.462 21.2285L17.4018 21.8002L20.3853 22.1145ZM20.3851 22.1165L20.3862 22.1058L17.4009 21.8089L17.3998 21.8196L20.3851 22.1165ZM20.0567 24.1589C20.261 23.391 20.329 22.6809 20.3851 22.1166L17.3999 21.8196C17.3416 22.4055 17.2911 22.8857 17.1575 23.3875L20.0567 24.1589ZM15.6074 27.748C17.7429 27.748 19.443 26.2206 20.0446 24.2015L17.1696 23.3449C16.877 24.3267 16.1865 24.748 15.6074 24.748V27.748ZM15.4279 27.746C15.4991 27.7481 15.5652 27.748 15.6074 27.748V24.748C15.5585 24.748 15.5362 24.7479 15.5164 24.7473L15.4279 27.746ZM12.4731 26.5445C13.0724 27.0548 14.2229 27.7466 15.4722 27.7466V24.7466C15.3811 24.7466 15.2075 24.714 14.973 24.6071C14.7462 24.5037 14.5446 24.3681 14.4181 24.2604L12.4731 26.5445ZM10.881 25.3113L12.5261 26.5876L14.3651 24.2173L12.72 22.941L10.881 25.3113ZM10.5475 21.5392C10.209 21.9551 9.91825 22.5512 9.8914 23.2341C9.86166 23.9906 10.1679 24.7792 10.9031 25.3281L12.6979 22.9242C12.7297 22.948 12.7912 23.0078 12.8376 23.1091C12.8823 23.2065 12.8913 23.2948 12.8891 23.352C12.887 23.4046 12.876 23.4303 12.8758 23.4308C12.8755 23.4315 12.8766 23.4301 12.8741 23.4331L10.5475 21.5392ZM15.7624 16.6393C14.937 17.3989 13.7327 18.5072 12.7018 19.4659C12.1867 19.9449 11.7114 20.3899 11.3468 20.7368C11.0305 21.0378 10.6906 21.364 10.549 21.5374L12.8727 23.4349C12.8621 23.4478 13.0146 23.291 13.4149 22.9101C13.7669 22.5751 14.2323 22.1394 14.7448 21.6628C15.769 20.7103 16.9673 19.6075 17.7939 18.8468L15.7624 16.6393ZM16.715 15.7608C16.716 15.7598 16.6369 15.8337 16.4489 16.0072C16.2775 16.1653 16.0419 16.3821 15.7624 16.6393L17.7939 18.8468C18.3298 18.3536 18.7525 17.965 18.8233 17.8951L16.715 15.7608Z" fill="url(#paint0_linear)" mask="url(#path-1-outside-1)"/>
</g>
</g>
</g>
<defs>
<linearGradient id="paint0_linear" x1="15" y1="3.125" x2="15" y2="26.875" gradientUnits="userSpaceOnUse">
<stop stop-color="#64CFFE"/>
<stop offset="1" stop-color="#2AA4FF"/>
</linearGradient>
</defs>
</svg>
