<svg width="30" height="30" viewBox="0 0 30 30" fill="none" xmlns="http://www.w3.org/2000/svg">
<g id="8">
<g id="Voice">
<g id="Voice_2">
<mask id="path-1-outside-1" maskUnits="userSpaceOnUse" x="2.375" y="0.5" width="25" height="29" fill="black">
<rect fill="white" x="2.375" y="0.5" width="25" height="29"/>
<path fill-rule="evenodd" clip-rule="evenodd" d="M15.2184 19.0217H14.7813C11.7771 19.0217 9.34197 16.6159 9.34197 13.6504V7.87133C9.34197 4.90466 11.7771 2.5 14.7813 2.5H15.2184C18.2227 2.5 20.659 4.90466 20.659 7.87133V13.6504C20.659 16.6159 18.2227 19.0217 15.2184 19.0217ZM23.2032 13.4786C23.2032 12.8173 23.7457 12.2828 24.4141 12.2828C25.0825 12.2828 25.625 12.8173 25.625 13.4786C25.625 18.8583 21.5007 23.3005 16.2115 23.8972V26.3042C16.2115 26.9643 15.669 27.5 15.0006 27.5C14.331 27.5 13.7897 26.9643 13.7897 26.3042V23.8972C8.49931 23.3005 4.375 18.8583 4.375 13.4786C4.375 12.8173 4.91748 12.2828 5.5859 12.2828C6.25431 12.2828 6.79679 12.8173 6.79679 13.4786C6.79679 17.9447 10.4767 21.5786 15.0006 21.5786C19.5233 21.5786 23.2032 17.9447 23.2032 13.4786Z"/>
</mask>
<path fill-rule="evenodd" clip-rule="evenodd" d="M15.2184 19.0217H14.7813C11.7771 19.0217 9.34197 16.6159 9.34197 13.6504V7.87133C9.34197 4.90466 11.7771 2.5 14.7813 2.5H15.2184C18.2227 2.5 20.659 4.90466 20.659 7.87133V13.6504C20.659 16.6159 18.2227 19.0217 15.2184 19.0217ZM23.2032 13.4786C23.2032 12.8173 23.7457 12.2828 24.4141 12.2828C25.0825 12.2828 25.625 12.8173 25.625 13.4786C25.625 18.8583 21.5007 23.3005 16.2115 23.8972V26.3042C16.2115 26.9643 15.669 27.5 15.0006 27.5C14.331 27.5 13.7897 26.9643 13.7897 26.3042V23.8972C8.49931 23.3005 4.375 18.8583 4.375 13.4786C4.375 12.8173 4.91748 12.2828 5.5859 12.2828C6.25431 12.2828 6.79679 12.8173 6.79679 13.4786C6.79679 17.9447 10.4767 21.5786 15.0006 21.5786C19.5233 21.5786 23.2032 17.9447 23.2032 13.4786Z" fill="white"/>
<path d="M16.2115 23.8972L16.0434 22.4066L14.7115 22.5569V23.8972H16.2115ZM13.7897 23.8972H15.2897V22.5569L13.9578 22.4066L13.7897 23.8972ZM14.7813 20.5217H15.2184V17.5217H14.7813V20.5217ZM7.84197 13.6504C7.84197 17.4618 10.9663 20.5217 14.7813 20.5217V17.5217C12.5879 17.5217 10.842 15.7699 10.842 13.6504H7.84197ZM7.84197 7.87133V13.6504H10.842V7.87133H7.84197ZM14.7813 1C10.9665 1 7.84197 4.0585 7.84197 7.87133H10.842C10.842 5.75083 12.5877 4 14.7813 4V1ZM15.2184 1H14.7813V4H15.2184V1ZM22.159 7.87133C22.159 4.05806 19.0328 1 15.2184 1V4C17.4125 4 19.159 5.75126 19.159 7.87133H22.159ZM22.159 13.6504V7.87133H19.159V13.6504H22.159ZM15.2184 20.5217C19.033 20.5217 22.159 17.4623 22.159 13.6504H19.159C19.159 15.7695 17.4123 17.5217 15.2184 17.5217V20.5217ZM24.4141 10.7828C22.9361 10.7828 21.7032 11.9702 21.7032 13.4786H24.7032C24.7032 13.6645 24.5553 13.7828 24.4141 13.7828V10.7828ZM27.125 13.4786C27.125 11.9702 25.8921 10.7828 24.4141 10.7828V13.7828C24.2729 13.7828 24.125 13.6645 24.125 13.4786H27.125ZM16.3797 25.3877C22.4016 24.7084 27.125 19.6473 27.125 13.4786H24.125C24.125 18.0693 20.5998 21.8926 16.0434 22.4066L16.3797 25.3877ZM17.7115 26.3042V23.8972H14.7115V26.3042H17.7115ZM15.0006 29C16.4796 29 17.7115 27.8105 17.7115 26.3042H14.7115C14.7115 26.1181 14.8584 26 15.0006 26V29ZM12.2897 26.3042C12.2897 27.8095 13.5194 29 15.0006 29V26C15.1425 26 15.2897 26.1191 15.2897 26.3042H12.2897ZM12.2897 23.8972V26.3042H15.2897V23.8972H12.2897ZM2.875 13.4786C2.875 19.6474 7.59848 24.7084 13.6216 25.3877L13.9578 22.4066C9.40014 21.8926 5.875 18.0692 5.875 13.4786H2.875ZM5.5859 10.7828C4.10789 10.7828 2.875 11.9702 2.875 13.4786H5.875C5.875 13.6645 5.72707 13.7828 5.5859 13.7828V10.7828ZM8.29679 13.4786C8.29679 11.9702 7.0639 10.7828 5.5859 10.7828V13.7828C5.44472 13.7828 5.29679 13.6645 5.29679 13.4786H8.29679ZM15.0006 20.0786C11.2871 20.0786 8.29679 17.0984 8.29679 13.4786H5.29679C5.29679 18.791 9.66627 23.0786 15.0006 23.0786V20.0786ZM21.7032 13.4786C21.7032 17.0986 18.7127 20.0786 15.0006 20.0786V23.0786C20.3339 23.0786 24.7032 18.7909 24.7032 13.4786H21.7032Z" fill="url(#paint0_linear)" mask="url(#path-1-outside-1)"/>
</g>
</g>
</g>
<defs>
<linearGradient id="paint0_linear" x1="15" y1="2.5" x2="15" y2="27.5" gradientUnits="userSpaceOnUse">
<stop stop-color="#73AEC0"/>
<stop offset="1" stop-color="#447798"/>
</linearGradient>
</defs>
</svg>
