<svg width="30" height="30" viewBox="0 0 30 30" fill="none" xmlns="http://www.w3.org/2000/svg">
<g id="9">
<g id="Delete">
<g id="Delete_2">
<mask id="path-1-outside-1" maskUnits="userSpaceOnUse" x="1.87183" y="0.35083" width="26" height="29" fill="black">
<rect fill="white" x="1.87183" y="0.35083" width="26" height="29"/>
<path fill-rule="evenodd" clip-rule="evenodd" d="M25.3921 5.94798C25.8775 5.91961 26.3052 6.29906 26.3352 6.81193L26.3629 7.28611C26.3921 7.7865 26.0123 8.22566 25.5268 8.25402L4.84551 9.46245C4.35884 9.49089 3.93043 9.09896 3.90119 8.59857L3.87348 8.12438C3.84351 7.61151 4.2241 7.18484 4.71076 7.15641L8.3492 6.94381C9.08829 6.90062 9.70081 6.33769 9.82377 5.58675L9.96458 4.72457C10.193 3.54801 11.1225 2.72114 12.2378 2.65597L17.3909 2.35487C18.494 2.29041 19.5245 3.00276 19.8739 4.08421L20.131 4.98323C20.3394 5.71607 21.0133 6.20383 21.7536 6.16057L25.3921 5.94798ZM23.5072 23.9176C23.8877 20.3713 24.5539 11.9464 24.5539 11.8614C24.5782 11.6039 24.4943 11.3602 24.3278 11.1639C24.1491 10.9802 23.9229 10.8714 23.6737 10.8714H6.33555C6.08512 10.8714 5.84684 10.9802 5.68151 11.1639C5.51374 11.3602 5.43108 11.6039 5.44323 11.8614C5.44547 11.877 5.46937 12.1738 5.50934 12.67C5.68688 14.874 6.18136 21.0127 6.50088 23.9176C6.727 26.0575 8.13112 27.4025 10.165 27.4513C11.7344 27.4875 13.3513 27.5 15.0046 27.5C16.5619 27.5 18.1436 27.4875 19.7616 27.4513C21.866 27.415 23.2689 26.0938 23.5072 23.9176Z"/>
</mask>
<path fill-rule="evenodd" clip-rule="evenodd" d="M25.3921 5.94798C25.8775 5.91961 26.3052 6.29906 26.3352 6.81193L26.3629 7.28611C26.3921 7.7865 26.0123 8.22566 25.5268 8.25402L4.84551 9.46245C4.35884 9.49089 3.93043 9.09896 3.90119 8.59857L3.87348 8.12438C3.84351 7.61151 4.2241 7.18484 4.71076 7.15641L8.3492 6.94381C9.08829 6.90062 9.70081 6.33769 9.82377 5.58675L9.96458 4.72457C10.193 3.54801 11.1225 2.72114 12.2378 2.65597L17.3909 2.35487C18.494 2.29041 19.5245 3.00276 19.8739 4.08421L20.131 4.98323C20.3394 5.71607 21.0133 6.20383 21.7536 6.16057L25.3921 5.94798ZM23.5072 23.9176C23.8877 20.3713 24.5539 11.9464 24.5539 11.8614C24.5782 11.6039 24.4943 11.3602 24.3278 11.1639C24.1491 10.9802 23.9229 10.8714 23.6737 10.8714H6.33555C6.08512 10.8714 5.84684 10.9802 5.68151 11.1639C5.51374 11.3602 5.43108 11.6039 5.44323 11.8614C5.44547 11.877 5.46937 12.1738 5.50934 12.67C5.68688 14.874 6.18136 21.0127 6.50088 23.9176C6.727 26.0575 8.13112 27.4025 10.165 27.4513C11.7344 27.4875 13.3513 27.5 15.0046 27.5C16.5619 27.5 18.1436 27.4875 19.7616 27.4513C21.866 27.415 23.2689 26.0938 23.5072 23.9176Z" fill="white"/>
<path d="M26.3352 6.81193L27.8326 6.72443V6.72443L26.3352 6.81193ZM25.3921 5.94798L25.4796 7.44542L25.3921 5.94798ZM26.3629 7.28611L24.8654 7.37361V7.37361L26.3629 7.28611ZM25.5268 8.25402L25.4393 6.75657L25.5268 8.25402ZM4.84551 9.46245L4.75801 7.965H4.75801L4.84551 9.46245ZM3.90119 8.59857L5.39863 8.51107L3.90119 8.59857ZM3.87348 8.12438L5.37093 8.03689L3.87348 8.12438ZM4.71076 7.15641L4.62326 5.65896H4.62326L4.71076 7.15641ZM8.3492 6.94381L8.2617 5.44636H8.2617L8.3492 6.94381ZM9.82377 5.58675L11.3041 5.82912L11.3042 5.82853L9.82377 5.58675ZM9.96458 4.72457L8.49206 4.43874L8.4878 4.46071L8.48419 4.48279L9.96458 4.72457ZM12.2378 2.65597L12.3253 4.15341L12.2378 2.65597ZM17.3909 2.35487L17.4784 3.85232L17.3909 2.35487ZM19.8739 4.08421L21.316 3.67175L21.309 3.6473L21.3012 3.6231L19.8739 4.08421ZM20.131 4.98323L21.5738 4.57287L21.5732 4.57078L20.131 4.98323ZM21.7536 6.16057L21.6661 4.66313L21.7536 6.16057ZM24.5539 11.8614L23.0605 11.7204L23.0539 11.7908V11.8614H24.5539ZM23.5072 23.9176L24.9983 24.0808L24.9986 24.0776L23.5072 23.9176ZM24.3278 11.1639L25.4714 10.1933L25.4385 10.1546L25.4031 10.1181L24.3278 11.1639ZM5.68151 11.1639L4.56645 10.1606L4.55371 10.1748L4.54134 10.1892L5.68151 11.1639ZM5.44323 11.8614L3.9449 11.9322L3.94826 12.0033L3.95834 12.0738L5.44323 11.8614ZM5.50934 12.67L7.00449 12.5495L5.50934 12.67ZM6.50088 23.9176L7.99259 23.7599L7.99189 23.7535L6.50088 23.9176ZM10.165 27.4513L10.129 28.9508L10.1303 28.9509L10.165 27.4513ZM19.7616 27.4513L19.7358 25.9515L19.728 25.9516L19.7616 27.4513ZM27.8326 6.72443C27.7559 5.41198 26.6442 4.37226 25.3046 4.45053L25.4796 7.44542C25.1108 7.46697 24.8545 7.18613 24.8377 6.89943L27.8326 6.72443ZM27.8603 7.19862L27.8326 6.72443L24.8377 6.89942L24.8654 7.37361L27.8603 7.19862ZM25.6143 9.75147C26.9671 9.67242 27.9355 8.48514 27.8603 7.19861L24.8654 7.37361C24.8487 7.08787 25.0574 6.77889 25.4393 6.75657L25.6143 9.75147ZM4.933 10.9599L25.6143 9.75147L25.4393 6.75657L4.75801 7.965L4.933 10.9599ZM2.40374 8.68607C2.47899 9.97393 3.58032 11.0389 4.933 10.9599L4.75801 7.965C5.13736 7.94284 5.38186 8.22399 5.39863 8.51107L2.40374 8.68607ZM2.37604 8.21188L2.40374 8.68607L5.39863 8.51107L5.37093 8.03689L2.37604 8.21188ZM4.62326 5.65896C3.28372 5.73723 2.29927 6.8981 2.37604 8.21188L5.37093 8.03689C5.38776 8.32493 5.16448 8.63245 4.79826 8.65385L4.62326 5.65896ZM8.2617 5.44636L4.62326 5.65896L4.79826 8.65385L8.43669 8.44125L8.2617 5.44636ZM8.34348 5.34437C8.32966 5.42879 8.27392 5.44565 8.2617 5.44636L8.43669 8.44125C9.90266 8.3556 11.072 7.24659 11.3041 5.82912L8.34348 5.34437ZM8.48419 4.48279L8.34338 5.34497L11.3042 5.82853L11.445 4.96635L8.48419 4.48279ZM12.1503 1.15852C10.3099 1.26606 8.8431 2.63031 8.49206 4.43874L11.4371 5.01041C11.5428 4.46571 11.9351 4.17621 12.3253 4.15341L12.1503 1.15852ZM17.3034 0.857425L12.1503 1.15852L12.3253 4.15341L17.4784 3.85232L17.3034 0.857425ZM21.3012 3.6231C20.7476 1.9093 19.1071 0.752034 17.3034 0.857425L17.4784 3.85232C17.881 3.82879 18.3014 4.09622 18.4465 4.54532L21.3012 3.6231ZM21.5732 4.57078L21.316 3.67175L18.4317 4.49667L18.6888 5.39569L21.5732 4.57078ZM21.6661 4.66313C21.6522 4.66394 21.5967 4.65351 21.5737 4.57287L18.6882 5.3936C19.0821 6.77862 20.3744 7.74372 21.8411 7.65802L21.6661 4.66313ZM25.3046 4.45053L21.6661 4.66313L21.8411 7.65802L25.4796 7.44542L25.3046 4.45053ZM23.0539 11.8614C23.0539 11.7937 23.0593 11.7408 23.0504 11.8613C23.0456 11.9261 23.0384 12.0208 23.029 12.1429C23.0101 12.3867 22.9827 12.7353 22.9486 13.1631C22.8803 14.0185 22.7853 15.1885 22.6784 16.4665C22.4642 19.0285 22.2038 22.0045 22.0157 23.7575L24.9986 24.0776C25.191 22.2845 25.454 19.2748 25.668 16.7166C25.7752 15.4344 25.8706 14.2606 25.9391 13.4017C25.9734 12.9723 26.001 12.621 26.0201 12.374C26.0296 12.2506 26.0371 12.1521 26.0422 12.0825C26.0433 12.0685 26.0539 11.9398 26.0539 11.8614H23.0539ZM23.1841 12.1345C23.1081 12.045 23.0441 11.8939 23.0605 11.7204L26.0472 12.0024C26.1122 11.314 25.8805 10.6754 25.4714 10.1933L23.1841 12.1345ZM23.6737 12.3714C23.459 12.3714 23.3123 12.2712 23.2525 12.2097L25.4031 10.1181C24.9859 9.68915 24.3869 9.37144 23.6737 9.37144V12.3714ZM6.33555 12.3714H23.6737V9.37144H6.33555V12.3714ZM6.79657 12.1673C6.68262 12.2939 6.5181 12.3714 6.33555 12.3714V9.37144C5.65213 9.37144 5.01106 9.66649 4.56645 10.1606L6.79657 12.1673ZM6.94156 11.7907C6.94726 11.9114 6.90402 12.0423 6.82168 12.1386L4.54134 10.1892C4.12347 10.6781 3.91489 11.2964 3.9449 11.9322L6.94156 11.7907ZM7.00449 12.5495C6.9692 12.1114 6.93909 11.7257 6.92812 11.6491L3.95834 12.0738C3.95456 12.0473 3.95238 12.0266 3.95221 12.0251C3.95154 12.0189 3.95111 12.0145 3.95099 12.0133C3.95073 12.0106 3.95071 12.0102 3.95103 12.0138C3.95163 12.0205 3.95265 12.0323 3.95417 12.0504C3.95717 12.086 3.96148 12.1384 3.96708 12.2072C3.97827 12.3446 3.99417 12.542 4.01418 12.7904L7.00449 12.5495ZM7.99189 23.7535C7.67538 20.8761 7.18294 14.7648 7.00449 12.5495L4.01418 12.7904C4.19081 14.9832 4.68734 21.1494 5.00988 24.0816L7.99189 23.7535ZM10.2009 25.9517C9.5178 25.9353 9.02973 25.7099 8.69529 25.388C8.35574 25.0611 8.07473 24.5374 7.99258 23.7599L5.00919 24.0752C5.15316 25.4377 5.68726 26.6565 6.61477 27.5493C7.54738 28.447 8.7783 28.9185 10.129 28.9508L10.2009 25.9517ZM15.0046 26C13.3584 26 11.7538 25.9876 10.1996 25.9517L10.1303 28.9509C11.7151 28.9875 13.3442 29 15.0046 29V26ZM19.728 25.9516C18.124 25.9876 16.554 26 15.0046 26V29C16.5699 29 18.1631 28.9875 19.7952 28.9509L19.728 25.9516ZM22.0161 23.7543C21.9283 24.5563 21.6433 25.0767 21.3051 25.3956C20.9716 25.7101 20.4703 25.9388 19.7358 25.9515L19.7875 28.951C21.1573 28.9275 22.4097 28.4774 23.3633 27.5782C24.3122 26.6834 24.8478 25.455 24.9983 24.0808L22.0161 23.7543Z" fill="url(#paint0_linear)" mask="url(#path-1-outside-1)"/>
</g>
</g>
</g>
<defs>
<linearGradient id="paint0_linear" x1="14.9999" y1="2.5" x2="14.9999" y2="27.5" gradientUnits="userSpaceOnUse">
<stop stop-color="#FD436C"/>
<stop offset="1" stop-color="#DA0E1A"/>
</linearGradient>
</defs>
</svg>
