# Blender v2.92.0 OBJ File: 'minecraft_assets.blend'
# www.blender.org
mtllib 4quad cross.mtl
o 4quad_cross_Cube.009
v -0.115969 -0.500000 -0.116201
v -0.115969 0.500000 -0.116201
v 0.116201 -0.500000 0.115969
v 0.116201 0.500000 0.115969
v -0.116201 -0.500000 -0.115969
v -0.116201 0.500000 -0.115969
v 0.115969 -0.500000 0.116201
v 0.115969 0.500000 0.116201
v 0.116201 -0.500000 -0.115969
v 0.116201 0.500000 -0.115969
v -0.115969 -0.500000 0.116201
v -0.115969 0.500000 0.116201
v 0.115969 -0.500000 -0.116201
v 0.115969 0.500000 -0.116201
v -0.116201 -0.500000 0.115969
v -0.116201 0.500000 0.115969
vt 0.000476 0.993897
vt 0.000476 0.001219
vt 0.186213 0.001219
vt 0.186213 0.993897
vt -0.028051 0.259301
vt 0.221949 0.259301
vt 0.221949 0.509301
vt -0.028051 0.509301
vt 0.001351 0.999607
vt 0.001351 0.000476
vt 0.186549 0.000476
vt 0.186549 0.999607
vt -0.028051 0.759301
vt 0.221949 0.759301
vt 0.221949 1.009301
vt -0.028051 1.009301
vt -0.278051 0.509301
vt -0.278051 0.759301
vt 0.471949 0.509301
vt 0.471949 0.759301
vt 0.000371 0.999627
vt 0.000371 0.000299
vt 0.187222 0.000299
vt 0.187222 0.999627
vt 0.375000 0.250000
vt 0.625000 0.250000
vt 0.625000 0.500000
vt 0.375000 0.500000
vt 0.000394 0.999291
vt 0.000394 0.000897
vt 0.187119 0.000896
vt 0.187119 0.999290
vt 0.375000 0.750000
vt 0.625000 0.750000
vt 0.625000 1.000000
vt 0.375000 1.000000
vt 0.125000 0.500000
vt 0.125000 0.750000
vt 0.875000 0.500000
vt 0.875000 0.750000
vn 0.7071 0.0000 -0.7071
vn 0.7071 0.0000 0.7071
vn -0.7071 0.0000 0.7071
vn -0.7071 0.0000 -0.7071
vn 0.0000 -1.0000 0.0000
vn 0.0000 1.0000 0.0000
usemtl Material
s off
f 1/1/1 2/2/1 4/3/1 3/4/1
f 3/5/2 4/6/2 8/7/2 7/8/2
f 7/9/3 8/10/3 6/11/3 5/12/3
f 5/13/4 6/14/4 2/15/4 1/16/4
f 3/17/5 7/8/5 5/13/5 1/18/5
f 8/7/6 4/19/6 2/20/6 6/14/6
f 9/21/2 10/22/2 12/23/2 11/24/2
f 11/25/3 12/26/3 16/27/3 15/28/3
f 15/29/4 16/30/4 14/31/4 13/32/4
f 13/33/1 14/34/1 10/35/1 9/36/1
f 11/37/5 15/28/5 13/33/5 9/38/5
f 16/27/6 12/39/6 10/40/6 14/34/6
