# Blender v2.91.2 OBJ File: ''
# www.blender.org
mtllib lantern.mtl
o lantern
v 0.000000 0.213723 0.006550
v 0.045000 0.213723 0.006550
v 0.045000 0.234365 0.006550
v 0.000000 0.234365 0.006550
v 0.045000 0.213723 -0.015950
v 0.000000 0.213723 -0.015950
v 0.000000 0.234365 -0.015950
v 0.045000 0.234365 -0.015950
v -0.045000 0.213723 0.006550
v -0.045000 0.234365 0.006550
v -0.045000 0.213723 -0.015950
v -0.045000 0.234365 -0.015950
v 0.045000 0.180571 -0.015950
v -0.045000 0.180571 -0.015950
v -0.045000 0.180571 0.006550
v 0.045000 0.180571 0.006550
v 0.250000 0.060581 0.256550
v 0.250000 -0.450455 0.256550
v 0.250000 -0.450455 0.006550
v 0.250000 0.060581 0.006550
v -0.090000 0.180571 0.006550
v -0.090000 0.180571 0.186550
v -0.045000 0.180571 0.186550
v -0.250000 -0.450455 0.006550
v -0.250000 -0.450455 0.256550
v -0.250000 0.060581 0.256550
v -0.250000 0.060581 0.006550
v -0.125000 -0.450455 -0.243450
v -0.125000 0.060581 -0.243450
v -0.062500 0.060581 -0.243450
v -0.062500 -0.450455 -0.243450
v -0.125000 0.060581 0.256550
v -0.125000 -0.450455 0.256550
v -0.062500 -0.450455 0.256550
v -0.062500 0.060581 0.256550
v -0.062500 -0.450455 0.006550
v -0.125000 -0.450455 0.006550
v -0.090000 0.060581 0.186550
v -0.045000 0.060581 0.186550
v 0.180000 0.060581 0.186550
v 0.180000 0.060581 0.006550
v -0.045000 0.060581 -0.173450
v -0.090000 0.060581 -0.173450
v -0.180000 0.060581 0.186550
v -0.180000 0.060581 0.006550
v 0.180000 0.180571 0.186550
v 0.180000 0.180571 0.006550
v -0.045000 0.180571 -0.173450
v -0.090000 0.180571 -0.173450
v -0.180000 0.180571 0.186550
v -0.180000 0.180571 0.006550
v -0.125000 -0.450455 -0.024700
v -0.062500 -0.450455 -0.024700
v 0.250000 -0.450455 -0.243450
v 0.250000 0.060581 -0.243450
v 0.250000 0.060581 -0.024700
v 0.250000 -0.450455 -0.024700
v 0.180000 0.060581 -0.173450
v 0.180000 0.060581 -0.015950
v 0.180000 0.180571 -0.173450
v 0.180000 0.180571 -0.015950
v -0.090000 0.180571 -0.015950
v -0.180000 0.180571 -0.173450
v -0.180000 0.060581 -0.173450
v -0.180000 0.060581 -0.015950
v -0.180000 0.180571 -0.015950
v -0.250000 0.060581 -0.243450
v -0.250000 0.060581 -0.024700
v -0.250000 -0.450455 -0.243450
v -0.250000 -0.450455 -0.024700
v -0.090000 0.234365 -0.015950
v -0.090000 0.234365 0.006550
v 0.062500 -0.450455 -0.243450
v 0.062500 0.060581 -0.243450
v 0.125000 0.060581 -0.243450
v 0.125000 -0.450455 -0.243450
v 0.125000 -0.450455 -0.024700
v 0.062500 -0.450455 -0.024700
v 0.125000 -0.450455 0.006550
v 0.062500 -0.450455 0.006550
v 0.125000 -0.450455 0.256550
v 0.062500 -0.450455 0.256550
v 0.062500 0.060581 0.256550
v 0.125000 0.060581 0.256550
v 0.045000 0.060581 0.186550
v 0.090000 0.060581 0.186550
v 0.045000 0.180571 0.186550
v 0.090000 0.180571 0.186550
v 0.090000 0.180571 0.006550
v 0.090000 0.234365 0.006550
v 0.090000 0.234365 -0.015950
v 0.090000 0.180571 -0.015950
v 0.090000 0.180571 -0.173450
v 0.045000 0.180571 -0.173450
v 0.090000 0.060581 -0.173450
v 0.045000 0.060581 -0.173450
v -0.090000 0.228156 -0.015950
v -0.090000 0.228156 0.006550
v 0.090000 0.228156 0.006550
v 0.090000 0.228156 -0.015950
vt 0.849454 0.270616
vt 0.849454 0.255345
vt 0.856460 0.255345
vt 0.856460 0.270616
vt 0.845210 0.255345
vt 0.845210 0.270616
vt 0.838205 0.270616
vt 0.838205 0.255345
vt 0.849454 0.285887
vt 0.856460 0.285887
vt 0.845210 0.285887
vt 0.838205 0.285887
vt 0.224914 0.099190
vt 0.146378 0.099190
vt 0.146378 0.092186
vt 0.224914 0.092186
vt 0.843515 0.276241
vt 0.843515 0.264991
vt 0.851150 0.264991
vt 0.851150 0.276241
vt 0.851150 0.255345
vt 0.851150 0.270616
vt 0.843515 0.270616
vt 0.843515 0.255345
vt 0.851150 0.285887
vt 0.843515 0.285887
vt 0.843515 0.276241
vt 0.843515 0.264991
vt 0.851150 0.264991
vt 0.851150 0.276241
vt 0.021284 0.615607
vt 0.021284 0.489255
vt 0.186112 0.489255
vt 0.186112 0.615607
vt 0.107109 0.092186
vt 0.107109 0.036147
vt 0.146378 0.036147
vt 0.186112 0.489255
vt 0.350939 0.489255
vt 0.350939 0.615607
vt 0.186112 0.615607
vt 0.103698 0.615607
vt 0.103698 0.489255
vt 0.144905 0.489255
vt 0.144905 0.615607
vt 0.103698 0.615607
vt 0.103698 0.489255
vt 0.144904 0.489255
vt 0.144904 0.615607
vt 0.146378 0.092186
vt 0.146378 0.036147
vt 0.107109 0.036147
vt 0.107109 0.092186
vt 0.760009 1.231151
vt 0.759921 1.230976
vt 0.760078 1.230976
vt 0.760121 1.231151
vt 0.760684 1.231151
vt 0.760859 1.230976
vt 0.760859 1.231601
vt 0.760684 1.231601
vt 0.760121 1.232051
vt 0.760078 1.232226
vt 0.759921 1.232226
vt 0.760009 1.232051
vt 0.759609 1.230976
vt 0.759784 1.231151
vt 0.759784 1.231601
vt 0.759609 1.231601
vt 0.221371 0.951693
vt 0.221472 0.983383
vt 0.200768 0.983449
vt 0.200667 0.951759
vt 0.262830 0.951825
vt 0.262830 0.983515
vt 0.180013 0.983515
vt 0.180013 0.951825
vt 0.159438 0.951657
vt 0.159181 0.983346
vt 0.138477 0.983179
vt 0.138734 0.951489
vt 0.098033 0.983515
vt 0.098033 0.951825
vt 0.180849 0.951825
vt 0.180849 0.983515
vt 0.107109 0.099190
vt 0.107109 0.148225
vt 0.146378 0.148225
vt 0.146378 0.099190
vt 0.350939 0.489255
vt 0.350939 0.615607
vt 0.206715 0.615607
vt 0.206715 0.489255
vt 0.760859 1.232226
vt 0.760684 1.232051
vt 0.760684 1.231657
vt 0.760859 1.231679
vt 0.097196 0.983515
vt 0.097196 0.951825
vt 0.169661 0.951825
vt 0.169661 0.983515
vt 0.107109 0.148225
vt 0.107109 0.099190
vt 0.146378 0.148225
vt 0.263666 0.951825
vt 0.263666 0.983515
vt 0.191201 0.983515
vt 0.191201 0.951825
vt 0.759784 1.232051
vt 0.759609 1.232226
vt 0.759609 1.231679
vt 0.759784 1.231657
vt 0.021284 0.615607
vt 0.021284 0.489255
vt 0.165508 0.489255
vt 0.165508 0.615607
vt 0.851150 0.301158
vt 0.843515 0.301158
vt 0.843515 0.285887
vt 0.851150 0.285887
vt 0.227319 0.615607
vt 0.227319 0.489255
vt 0.268525 0.489255
vt 0.268525 0.615607
vt 0.264182 0.148225
vt 0.264182 0.099190
vt 0.224914 0.099190
vt 0.224914 0.148225
vt 0.264182 0.092186
vt 0.224914 0.092186
vt 0.264182 0.036147
vt 0.224914 0.036147
vt 0.227319 0.615607
vt 0.227319 0.489255
vt 0.268525 0.489255
vt 0.268525 0.615607
vt 0.760346 1.231151
vt 0.760390 1.230976
vt 0.760546 1.230976
vt 0.760459 1.231151
vt 0.159258 0.951891
vt 0.159359 0.983581
vt 0.138655 0.983647
vt 0.138554 0.951957
vt 0.224914 0.036147
vt 0.264182 0.036147
vt 0.264182 0.092186
vt 0.851150 0.255345
vt 0.843515 0.255345
vt 0.843515 0.240074
vt 0.851150 0.240074
vt 0.264182 0.099190
vt 0.264182 0.148225
vt 0.224914 0.148225
vt 0.221549 0.952161
vt 0.221292 0.983850
vt 0.200588 0.983682
vt 0.200845 0.951993
vt 0.760459 1.232051
vt 0.760546 1.232226
vt 0.760390 1.232226
vt 0.760346 1.232051
vt 0.350939 0.489255
vt 0.350939 0.615607
vt 0.342718 0.148225
vt 0.342718 0.099190
vt 0.342718 0.092186
vt 0.342718 0.036147
vt 0.350939 0.489255
vt 0.350939 0.615607
vt 0.097247 0.983778
vt 0.097146 0.952088
vt 0.342718 0.036147
vt 0.342718 0.092186
vt 0.342718 0.099190
vt 0.342718 0.148225
vt 0.262699 0.984186
vt 0.262956 0.952497
vt 0.851150 0.270616
vt 0.843515 0.270616
vt 0.028573 0.092186
vt 0.028573 0.099190
vt 0.028573 0.148225
vt 0.021284 0.615607
vt 0.021284 0.489255
vt 0.097070 0.982843
vt 0.097327 0.951154
vt 0.028573 0.148225
vt 0.028573 0.099190
vt 0.028573 0.092186
vt 0.028573 0.036147
vt 0.262880 0.983251
vt 0.262779 0.951561
vt 0.021284 0.615607
vt 0.021284 0.489255
vt 0.028573 0.036147
vt 0.843515 0.277636
vt 0.851150 0.277636
vt 0.851150 0.279743
vt 0.843515 0.279743
vt 0.854353 0.301158
vt 0.856460 0.301158
vt 0.840312 0.301158
vt 0.838205 0.301158
vt 0.854353 0.240074
vt 0.856460 0.240074
vt 0.843515 0.277636
vt 0.851150 0.277636
vt 0.851150 0.279744
vt 0.843515 0.279744
vt 0.840312 0.240074
vt 0.838205 0.240074
vt 0.843515 0.261489
vt 0.851150 0.261489
vt 0.838205 0.301158
vt 0.838205 0.285887
vt 0.838205 0.255345
vt 0.838205 0.240074
vt 0.843515 0.261488
vt 0.851150 0.261488
vt 0.856459 0.240074
vt 0.856459 0.255345
vt 0.856459 0.285887
vt 0.856459 0.301158
vn 0.0000 -0.0000 1.0000
vn -0.0000 0.0000 -1.0000
vn 0.0000 1.0000 0.0000
vn 1.0000 0.0000 0.0000
vn 0.0000 -1.0000 0.0000
vn -1.0000 -0.0000 0.0000
usemtl lantern:lambert8SG_001
s 1
f 1/1/1 2/2/1 3/3/1 4/4/1
f 5/5/2 6/6/2 7/7/2 8/8/2
f 9/9/1 1/1/1 4/4/1 10/10/1
f 6/6/2 11/11/2 12/12/2 7/7/2
f 13/13/3 14/14/3 15/15/3 16/16/3
f 9/17/4 15/18/4 14/19/4 11/20/4
f 2/21/5 1/22/5 6/23/5 5/24/5
f 1/22/5 9/25/5 11/26/5 6/23/5
f 5/27/6 13/28/6 16/29/6 2/30/6
f 17/31/4 18/32/4 19/33/4 20/34/4
f 21/35/3 22/36/3 23/37/3 15/15/3
f 24/38/6 25/39/6 26/40/6 27/41/6
f 28/42/2 29/43/2 30/44/2 31/45/2
f 32/46/1 33/47/1 34/48/1 35/49/1
f 36/50/5 34/51/5 33/52/5 37/53/5
f 38/54/3 32/55/3 35/56/3 39/57/3
f 40/58/3 17/59/3 20/60/3 41/61/3
f 42/62/3 30/63/3 29/64/3 43/65/3
f 26/66/3 44/67/3 45/68/3 27/69/3
f 22/70/1 38/71/1 39/72/1 23/73/1
f 46/74/4 40/75/4 41/76/4 47/77/4
f 48/78/2 42/79/2 43/80/2 49/81/2
f 44/82/6 50/83/6 51/84/6 45/85/6
f 52/86/5 28/87/5 31/88/5 53/89/5
f 54/90/4 55/91/4 56/92/4 57/93/4
f 55/94/3 58/95/3 59/96/3 56/97/3
f 58/98/4 60/99/4 61/100/4 59/101/4
f 49/102/3 62/103/3 14/14/3 48/104/3
f 63/105/6 64/106/6 65/107/6 66/108/6
f 64/109/3 67/110/3 68/111/3 65/112/3
f 67/113/6 69/114/6 70/115/6 68/116/6
f 68/116/6 70/115/6 24/38/6 27/41/6
f 65/112/3 68/111/3 27/69/3 45/68/3
f 66/108/6 65/107/6 45/85/6 51/84/6
f 71/117/3 72/118/3 10/119/3 12/120/3
f 47/77/4 41/76/4 59/101/4 61/100/4
f 41/61/3 20/60/3 56/97/3 59/96/3
f 20/34/4 19/33/4 57/93/4 56/92/4
f 53/89/5 36/50/5 37/53/5 52/86/5
f 73/121/2 74/122/2 75/123/2 76/124/2
f 76/125/5 77/126/5 78/127/5 73/128/5
f 77/126/5 79/129/5 80/130/5 78/127/5
f 79/129/5 81/131/5 82/132/5 80/130/5
f 83/133/1 82/134/1 81/135/1 84/136/1
f 85/137/3 83/138/3 84/139/3 86/140/3
f 87/141/1 85/142/1 86/143/1 88/144/1
f 16/16/3 87/145/3 88/146/3 89/147/3
f 8/148/3 3/149/3 90/150/3 91/151/3
f 92/152/3 93/153/3 94/154/3 13/13/3
f 93/155/2 95/156/2 96/157/2 94/158/2
f 95/159/3 75/160/3 74/161/3 96/162/3
f 76/124/2 75/123/2 55/163/2 54/164/2
f 54/165/5 57/166/5 77/126/5 76/125/5
f 19/167/5 79/129/5 77/126/5 57/166/5
f 19/167/5 18/168/5 81/131/5 79/129/5
f 84/136/1 81/135/1 18/169/1 17/170/1
f 86/140/3 84/139/3 17/59/3 40/58/3
f 88/144/1 86/143/1 40/171/1 46/172/1
f 88/146/3 46/173/3 47/174/3 89/147/3
f 92/152/3 89/147/3 47/174/3 61/175/3
f 61/175/3 60/176/3 93/153/3 92/152/3
f 58/177/2 95/156/2 93/155/2 60/178/2
f 55/94/3 75/160/3 95/159/3 58/95/3
f 7/179/3 4/180/3 3/149/3 8/148/3
f 52/86/5 37/53/5 24/181/5 70/182/5
f 70/182/5 69/183/5 28/87/5 52/86/5
f 69/184/2 67/185/2 29/43/2 28/42/2
f 43/65/3 29/64/3 67/110/3 64/109/3
f 49/81/2 43/80/2 64/186/2 63/187/2
f 63/188/3 66/189/3 62/103/3 49/102/3
f 51/190/3 21/35/3 62/103/3 66/189/3
f 51/190/3 50/191/3 22/36/3 21/35/3
f 44/192/1 38/71/1 22/70/1 50/193/1
f 26/66/3 32/55/3 38/54/3 44/67/3
f 26/194/1 25/195/1 33/47/1 32/46/1
f 33/52/5 25/196/5 24/181/5 37/53/5
f 31/45/2 30/44/2 74/122/2 73/121/2
f 73/128/5 78/127/5 53/89/5 31/88/5
f 80/130/5 36/50/5 53/89/5 78/127/5
f 80/130/5 82/132/5 34/51/5 36/50/5
f 35/49/1 34/48/1 82/134/1 83/133/1
f 39/57/3 35/56/3 83/138/3 85/137/3
f 23/73/1 39/72/1 85/142/1 87/141/1
f 23/37/3 87/145/3 16/16/3 15/15/3
f 12/120/3 10/119/3 4/180/3 7/179/3
f 13/13/3 94/154/3 48/104/3 14/14/3
f 42/79/2 48/78/2 94/158/2 96/157/2
f 30/63/3 42/62/3 96/162/3 74/161/3
f 97/197/6 98/198/6 72/199/6 71/200/6
f 98/201/1 9/9/1 10/10/1 72/202/1
f 11/11/2 97/203/2 71/204/2 12/12/2
f 2/2/1 99/205/1 90/206/1 3/3/1
f 99/207/4 100/208/4 91/209/4 90/210/4
f 100/211/2 5/5/2 8/8/2 91/212/2
f 62/213/6 21/214/6 98/198/6 97/197/6
f 21/215/1 15/216/1 9/9/1 98/201/1
f 16/217/1 89/218/1 99/205/1 2/2/1
f 89/219/4 92/220/4 100/208/4 99/207/4
f 92/221/2 13/222/2 5/5/2 100/211/2
f 14/223/2 62/224/2 97/203/2 11/11/2
