# Blender v2.91.2 OBJ File: ''
# www.blender.org
mtllib Stairs_Uv.mtl
o Stairs_Uv
v -0.500000 0.502892 0.001236
v 0.500000 0.502892 0.001236
v 0.500000 0.502892 -0.498764
v -0.500000 0.502892 -0.498764
v -0.500000 -0.497109 0.501235
v 0.500000 -0.497109 0.501235
v 0.500000 0.002891 0.501235
v -0.500000 0.002891 0.501235
v 0.500000 0.002891 0.001235
v -0.500000 0.002891 0.001235
v 0.500000 0.002891 -0.498765
v -0.500000 0.002891 -0.498765
v -0.500000 -0.497109 -0.498765
v 0.500000 -0.497109 -0.498765
v 0.500000 -0.497109 0.001235
v -0.500000 -0.497109 0.001235
vt 0.976797 0.501323
vt 0.023203 0.501323
vt 0.023203 0.024527
vt 0.976797 0.024527
vt 0.976797 0.502234
vt 0.023203 0.502234
vt 0.023203 0.025437
vt 0.976797 0.025437
vt 0.976797 0.502500
vt 0.976797 0.979296
vt 0.023203 0.979297
vt 0.023203 0.502500
vt 0.023203 0.502234
vt 0.023203 0.025437
vt 0.976797 0.025437
vt 0.976797 0.502234
vt 0.036405 0.963640
vt 0.963595 0.963640
vt 0.963595 0.500045
vt 0.036405 0.500045
vt 0.035928 0.479958
vt 0.964072 0.479958
vt 0.964072 0.015886
vt 0.035928 0.015886
vt 0.500000 0.978004
vt 0.500000 0.501207
vt 0.976797 0.501207
vt 0.976797 0.978004
vt 0.023203 0.501207
vt 0.500000 0.501207
vt 0.500000 0.978004
vt 0.023203 0.978004
vt 0.976797 0.010642
vt 0.976797 0.487438
vt 0.023203 0.487438
vt 0.023203 0.010642
vt 0.023203 0.024410
vt 0.500000 0.024410
vt 0.023203 0.501207
vt 0.976797 0.024410
vt 0.976797 0.021422
vt 0.976797 0.498219
vt 0.023203 0.498219
vt 0.023203 0.021422
vt 0.023203 0.024410
vt 0.500000 0.024410
vt 0.976797 0.501207
vt 0.976797 0.024410
vn 0.0000 1.0000 0.0000
vn 0.0000 -0.0000 1.0000
vn 0.0000 0.0000 -1.0000
vn 0.0000 -1.0000 -0.0000
vn 1.0000 0.0000 0.0000
vn -1.0000 0.0000 0.0000
usemtl lambert3SG
s off
f 1/1/1 2/2/1 3/3/1 4/4/1
f 5/5/2 6/6/2 7/7/2 8/8/2
f 9/9/2 2/10/2 1/11/2 10/12/2
f 7/13/1 9/14/1 10/15/1 8/16/1
s 1
f 4/17/3 3/18/3 11/19/3 12/20/3
f 13/21/4 14/22/4 15/23/4 16/24/4
f 2/25/5 9/26/5 11/27/5 3/28/5
f 12/29/6 10/30/6 1/31/6 4/32/6
f 15/33/4 6/34/4 5/35/4 16/36/4
f 6/37/5 15/38/5 9/26/5 7/39/5
f 11/27/5 9/26/5 15/38/5 14/40/5
f 11/41/3 14/42/3 13/43/3 12/44/3
f 13/45/6 16/46/6 10/30/6 12/29/6
f 8/47/6 10/30/6 16/46/6 5/48/6
