# Blender v2.92.0 OBJ File: 'minecraft_assets.blend'
# www.blender.org
mtllib flower_pot_with_flower.mtl
o Flower_pot_flower
v -0.296135 -0.597169 0.292298
v 0.296837 -0.597169 0.292298
v 0.296837 -0.004195 0.292299
v -0.296135 -0.004195 0.292299
v -0.249674 -0.139181 0.245838
v 0.250378 -0.139181 0.245838
v 0.250378 -0.139181 -0.254217
v -0.249674 -0.139181 -0.254217
v -0.296135 -0.004195 -0.300676
v 0.296837 -0.004195 -0.300676
v 0.296837 -0.597169 -0.300677
v -0.296135 -0.597169 -0.300677
v -0.249674 -0.004195 0.245839
v 0.250378 -0.004195 0.245839
v 0.250378 -0.004195 -0.254216
v -0.249674 -0.004195 -0.254216
v -0.280175 -0.093638 0.004705
v 0.279471 -0.093638 0.004705
v 0.279471 0.466008 0.004705
v -0.280175 0.466008 0.004705
v -0.280175 0.466008 0.003674
v 0.279471 0.466008 0.003674
v 0.279471 -0.093638 0.003674
v -0.280175 -0.093638 0.003674
v -0.000868 -0.093638 -0.275633
v -0.000868 -0.093638 0.284012
v -0.000868 0.466008 0.284012
v -0.000868 0.466008 -0.275633
v 0.000163 0.466008 -0.275633
v 0.000163 0.466008 0.284012
v 0.000163 -0.093638 0.284012
v 0.000163 -0.093638 -0.275633
vt 0.162815 0.056592
vt 0.841713 0.056592
vt 0.841713 0.439811
vt 0.162815 0.439811
vt 0.242904 0.246651
vt 0.761625 0.246651
vt 0.761625 0.765377
vt 0.242904 0.765377
vt 0.162816 0.439811
vt 0.162816 0.056592
vt 0.841713 0.056592
vt 0.841713 0.439811
vt 0.162815 0.056592
vt 0.841713 0.439811
vt 0.162815 0.439811
vt 0.162815 0.439811
vt 0.162815 0.056592
vt 0.841713 0.056592
vt 0.162816 0.439811
vt 0.841713 0.056592
vt 0.841713 0.439811
vt 0.432250 0.765374
vt 0.432250 0.246654
vt 0.572278 0.246654
vt 0.572278 0.765374
vt 0.572277 0.246651
vt 0.572277 0.765377
vt 0.432251 0.765377
vt 0.432251 0.246651
vt 0.572278 0.246654
vt 0.572278 0.765374
vt 0.432250 0.765374
vt 0.432250 0.246654
vt 0.572277 0.246651
vt 0.572277 0.765377
vt 0.432251 0.765377
vt 0.432251 0.246651
vt 0.162816 0.056592
vt 0.841713 0.056592
vt 0.788520 0.086617
vt 0.216009 0.086617
vt 0.841713 0.439811
vt 0.788520 0.409786
vt 0.216009 0.409786
vt 0.000000 0.500907
vt 1.000000 0.500907
vt 1.000000 1.000000
vt 0.000000 1.000000
vt 0.000000 1.000000
vt 1.000000 1.000000
vt 1.000000 0.501077
vt 0.000000 0.501077
vt 0.000000 0.502264
vt 1.000000 0.502264
vt 1.000000 1.000000
vt 0.000000 1.000000
vt 0.000000 1.000000
vt 1.000000 1.000000
vt 1.000000 0.501953
vt 0.000000 0.501953
vn 0.0000 -0.0000 1.0000
vn 0.0000 1.0000 0.0000
vn 0.0000 0.0000 -1.0000
vn 0.0000 -1.0000 -0.0000
vn 1.0000 0.0000 0.0000
vn -1.0000 0.0000 0.0000
usemtl pot
s 1
f 1/1/1 2/2/1 3/3/1 4/4/1
f 5/5/2 6/6/2 7/7/2 8/8/2
f 9/9/3 10/10/3 11/11/3 12/12/3
f 12/13/4 11/11/4 2/14/4 1/15/4
f 2/16/5 11/17/5 10/18/5 3/3/5
f 12/19/6 1/1/6 4/20/6 9/21/6
f 13/22/3 14/23/3 6/24/3 5/25/3
f 14/26/6 15/27/6 7/28/6 6/29/6
f 15/30/1 16/31/1 8/32/1 7/33/1
f 16/34/5 13/35/5 5/36/5 8/37/5
f 4/38/2 3/39/2 14/40/2 13/41/2
f 3/39/2 10/42/2 15/43/2 14/40/2
f 10/42/2 9/9/2 16/44/2 15/43/2
f 9/9/2 4/38/2 13/41/2 16/44/2
f 17/45/1 18/46/1 19/47/1 20/48/1
f 21/49/3 22/50/3 23/51/3 24/52/3
f 25/53/6 26/54/6 27/55/6 28/56/6
f 29/57/5 30/58/5 31/59/5 32/60/5
