# Blender v2.91.2 OBJ File: ''
# www.blender.org
mtllib Enchanting Table.mtl
o Enchanting_Table
v -0.500000 -0.250000 0.500000
v 0.500000 -0.250000 0.500000
v 0.500000 0.250000 0.500000
v -0.500000 0.250000 0.500000
v 0.500000 0.250000 -0.500000
v -0.500000 0.250000 -0.500000
v 0.500000 -0.250000 -0.500000
v -0.500000 -0.250000 -0.500000
vt 0.010672 0.087801
vt 0.485655 0.087763
vt 0.485674 0.337763
vt 0.010690 0.337801
vt 0.514671 0.511067
vt 0.989884 0.511067
vt 0.989884 0.986280
vt 0.514671 0.986280
vt 0.485675 0.337763
vt 0.010690 0.337801
vt 0.010672 0.087801
vt 0.485656 0.087763
vt 0.010672 0.087801
vt 0.485656 0.087763
vt 0.485675 0.337763
vt 0.010690 0.337801
vt 0.010672 0.087801
vt 0.485656 0.087763
vt 0.485675 0.337763
vt 0.010690 0.337801
vt 0.476745 0.989862
vt 0.021774 0.989862
vt 0.021774 0.534890
vt 0.476745 0.534890
vn 0.0000 -0.0000 1.0000
vn 0.0000 1.0000 0.0000
vn 0.0000 0.0000 -1.0000
vn 1.0000 0.0000 0.0000
vn -1.0000 0.0000 0.0000
vn 0.0000 -1.0000 -0.0000
usemtl lambert55SG
s 1
f 1/1/1 2/2/1 3/3/1 4/4/1
f 4/5/2 3/6/2 5/7/2 6/8/2
f 6/9/3 5/10/3 7/11/3 8/12/3
f 2/13/4 7/14/4 5/15/4 3/16/4
f 8/17/5 1/18/5 4/19/5 6/20/5
f 2/21/6 1/22/6 8/23/6 7/24/6
