# Blender v2.91.2 OBJ File: ''
# www.blender.org
mtllib Lectern.mtl
o Lectern
v -0.496255 -0.444840 -0.509441
v 0.496255 -0.444840 -0.509441
v 0.496255 -0.444840 0.506970
v -0.496255 -0.444840 0.506970
v -0.255596 0.170321 -0.262987
v 0.255597 0.170321 -0.262987
v 0.255597 -0.297854 -0.262987
v -0.255596 -0.297854 -0.262987
v 0.255597 0.305668 0.260515
v 0.255597 -0.297854 0.260515
v -0.255596 0.305668 0.260515
v -0.255596 -0.297854 0.260515
v 0.496255 -0.297854 -0.509441
v -0.496255 -0.297854 -0.509441
v 0.496255 -0.297854 0.506970
v -0.496255 -0.297854 0.506970
v -0.464589 0.372822 0.390378
v 0.464590 0.372822 0.390378
v 0.464590 0.515056 0.364950
v -0.464589 0.515056 0.364950
v 0.464590 0.209624 -0.395559
v -0.464589 0.209624 -0.395559
v 0.464590 0.067390 -0.370132
v -0.464589 0.067390 -0.370132
v 0.237495 0.140159 -0.188941
v -0.237494 0.140159 -0.188941
v 0.237495 0.300053 0.209188
v -0.237494 0.300053 0.209188
vt 0.491115 0.028697
vt 0.926271 0.028697
vt 0.926271 0.474332
vt 0.491115 0.474332
vt 0.234366 0.826123
vt 0.010479 0.826123
vt 0.010479 0.546573
vt 0.234366 0.546573
vt 0.760554 0.652330
vt 0.262455 0.781108
vt 0.262455 0.211904
vt 0.760554 0.211904
vt 0.754698 0.781108
vt 0.268312 0.781108
vt 0.268312 0.211904
vt 0.754698 0.211904
vt 0.760554 0.781108
vt 0.262455 0.652330
vt 0.262455 0.211904
vt 0.760554 0.211904
vt 0.362589 0.119667
vt 0.139734 0.119676
vt 0.034814 0.014765
vt 0.467500 0.014747
vt 0.139743 0.342531
vt 0.034832 0.447451
vt 0.362598 0.342522
vt 0.467518 0.447433
vt 0.444093 0.968680
vt 0.444093 0.024333
vt 0.578917 0.024333
vt 0.578917 0.968680
vt 0.578917 0.012963
vt 0.578917 0.980050
vt 0.444093 0.980050
vt 0.444093 0.012963
vt 0.578917 0.024333
vt 0.578917 0.968680
vt 0.444093 0.968680
vt 0.444093 0.024333
vt 0.578917 0.012963
vt 0.578917 0.980050
vt 0.444093 0.980050
vt 0.444093 0.012963
vt 0.443839 0.938550
vt 0.443839 0.054462
vt 0.579170 0.054462
vt 0.579170 0.938550
vt 0.985254 0.969304
vt 0.513849 0.969575
vt 0.515398 0.500055
vt 0.986802 0.499784
vt 0.443839 0.938550
vt 0.443839 0.054462
vt 0.579170 0.054462
vt 0.579170 0.938550
vt 0.444325 0.872425
vt 0.444076 0.092644
vt 0.578684 0.120587
vt 0.578933 0.900368
vt 0.107591 0.429386
vt 0.887372 0.429038
vt 0.915418 0.563626
vt 0.135637 0.563974
vt 0.387064 0.938550
vt 0.387064 0.054462
vt 0.523236 0.270537
vt 0.523236 0.722475
vt 0.958617 0.054462
vt 0.822445 0.270537
vt 0.958617 0.938550
vt 0.822445 0.722475
vn 0.0000 -1.0000 -0.0000
vn 0.0000 0.0000 -1.0000
vn 1.0000 -0.0000 0.0000
vn 0.0000 -0.0000 1.0000
vn -1.0000 -0.0000 0.0000
vn 0.0000 1.0000 0.0000
vn 0.0000 0.1760 0.9844
vn 0.0000 0.9280 -0.3727
vn 0.0000 -0.1760 -0.9844
vn -0.0000 -0.9280 0.3727
usemtl lambert49SG
s 1
f 1/1/1 2/2/1 3/3/1 4/4/1
f 5/5/2 6/6/2 7/7/2 8/8/2
f 6/9/3 9/10/3 10/11/3 7/12/3
f 9/13/4 11/14/4 12/15/4 10/16/4
f 11/17/5 5/18/5 8/19/5 12/20/5
f 8/21/6 7/22/6 13/23/6 14/24/6
f 7/22/6 10/25/6 15/26/6 13/23/6
f 10/25/6 12/27/6 16/28/6 15/26/6
f 12/27/6 8/21/6 14/24/6 16/28/6
f 14/29/2 13/30/2 2/31/2 1/32/2
f 13/33/3 15/34/3 3/35/3 2/36/3
f 15/37/4 16/38/4 4/39/4 3/40/4
f 16/41/5 14/42/5 1/43/5 4/44/5
f 17/45/7 18/46/7 19/47/7 20/48/7
f 20/49/8 19/50/8 21/51/8 22/52/8
f 22/53/9 21/54/9 23/55/9 24/56/9
f 18/57/3 23/58/3 21/59/3 19/60/3
f 24/61/5 17/62/5 20/63/5 22/64/5
f 24/65/10 23/66/10 25/67/10 26/68/10
f 23/66/10 18/69/10 27/70/10 25/67/10
f 18/69/10 17/71/10 28/72/10 27/70/10
f 17/71/10 24/65/10 26/68/10 28/72/10
