# Blender v2.92.0 OBJ File: 'minecraft_assets.blend'
# www.blender.org
mtllib slabCube.mtl
o SlabCube_Cube.010
v -0.500000 -0.500000 0.500000
v -0.500000 0.500000 0.500000
v -0.500000 -0.500000 -0.500000
v -0.500000 0.500000 -0.500000
v 0.500000 -0.500000 0.500000
v 0.500000 0.500000 0.500000
v 0.500000 -0.500000 -0.500000
v 0.500000 0.500000 -0.500000
vt 0.997772 0.001114
vt 0.997772 0.498886
vt 0.002228 0.498886
vt 0.002228 0.001114
vt 0.996704 0.001648
vt 0.996703 0.498352
vt 0.003296 0.498352
vt 0.003297 0.001648
vt 0.999267 0.000366
vt 0.999267 0.499634
vt 0.000733 0.499634
vt 0.000733 0.000366
vt 0.999433 0.000283
vt 0.999433 0.499717
vt 0.000567 0.499717
vt 0.000567 0.000283
vt 0.000443 0.000443
vt 0.999557 0.000443
vt 0.999557 0.999557
vt 0.000443 0.999557
vt 0.001174 0.001174
vt 0.998826 0.001174
vt 0.998826 0.998826
vt 0.001174 0.998826
vn -1.0000 0.0000 0.0000
vn 0.0000 0.0000 -1.0000
vn 1.0000 0.0000 0.0000
vn 0.0000 0.0000 1.0000
vn 0.0000 -1.0000 0.0000
vn 0.0000 1.0000 0.0000
usemtl None
s off
f 1/1/1 2/2/1 4/3/1 3/4/1
f 3/5/2 4/6/2 8/7/2 7/8/2
f 7/9/3 8/10/3 6/11/3 5/12/3
f 5/13/4 6/14/4 2/15/4 1/16/4
f 3/17/5 7/18/5 5/19/5 1/20/5
f 8/21/6 4/22/6 2/23/6 6/24/6
