# Blender v2.92.0 OBJ File: ''
# www.blender.org
mtllib comparator.mtl
o unpowered_comparator
v -0.500012 -0.086185 0.492220
v 0.499988 -0.086185 0.492220
v 0.499988 0.070600 0.492220
v -0.500012 0.070600 0.492220
v 0.499988 0.070600 0.242220
v 0.499988 0.070600 -0.507780
v -0.500012 0.070600 -0.507780
v -0.500012 0.070600 0.242220
v 0.499988 -0.086185 -0.507780
v -0.500012 -0.086185 -0.507780
v 0.499988 -0.086185 0.242220
v -0.500012 -0.086185 0.242220
v 0.239988 0.335462 0.314720
v 0.134988 0.335462 0.314720
v 0.134988 0.335462 0.419720
v 0.239988 0.335462 0.419720
v 0.499988 -0.086185 0.304720
v 0.499988 0.070600 0.304720
v 0.499988 0.070600 0.429720
v 0.499988 -0.086185 0.429720
v -0.500012 -0.086185 0.429720
v -0.500012 -0.086185 0.304720
v -0.500012 0.070600 0.304720
v -0.500012 0.070600 0.429720
v 0.249988 0.070600 0.429720
v 0.124988 0.070600 0.429720
v -0.125012 0.070600 0.429720
v -0.250012 0.070600 0.429720
v 0.124988 0.070600 0.304720
v 0.249988 0.070600 0.304720
v -0.250012 0.070600 0.304720
v -0.125012 0.070600 0.304720
v -0.135012 0.335462 0.314720
v -0.240012 0.335462 0.314720
v -0.240012 0.335462 0.419720
v -0.135012 0.335462 0.419720
v 0.124988 0.031872 0.304720
v 0.249988 0.031872 0.304720
v 0.124988 0.031872 0.429720
v 0.249988 0.031872 0.429720
v -0.250012 0.031872 0.304720
v -0.250012 0.031872 0.429720
v -0.125012 0.031872 0.304720
v -0.125012 0.031872 0.429720
v 0.134988 0.031872 0.314720
v 0.134988 0.031872 0.419720
v 0.239988 0.031872 0.314720
v 0.239988 0.031872 0.419720
v -0.240012 0.031872 0.314720
v -0.240012 0.031872 0.419720
v -0.135012 0.031872 0.314720
v -0.135012 0.031872 0.419720
v 0.134988 0.253235 0.314720
v 0.134988 0.253235 0.419720
v 0.239988 0.253235 0.314720
v 0.239988 0.253235 0.419720
v -0.240012 0.253235 0.314720
v -0.240012 0.253235 0.419720
v -0.135012 0.253235 0.314720
v -0.135012 0.253235 0.419720
v 0.051533 0.169074 -0.393366
v -0.047811 0.169074 -0.393366
v -0.047811 0.169074 -0.294023
v 0.051533 0.169074 -0.294023
v -0.047811 0.060255 -0.393366
v -0.047811 0.060255 -0.294023
v 0.051533 0.060255 -0.294023
v 0.051533 0.060255 -0.393366
vt 0.459240 0.989475
vt 0.044762 0.985607
vt 0.045368 0.920624
vt 0.459847 0.924492
vt 0.966916 0.681073
vt 0.966916 0.991862
vt 0.531364 0.991862
vt 0.531364 0.681073
vt 0.448924 0.989379
vt 0.034446 0.985511
vt 0.055685 0.920720
vt 0.470163 0.924588
vt 0.209060 0.813886
vt 0.209060 0.945893
vt 0.033050 0.945893
vt 0.033050 0.813886
vt 0.055078 0.985704
vt 0.035052 0.920527
vt 0.366543 0.923621
vt 0.365936 0.988605
vt 0.439214 0.924300
vt 0.459240 0.989476
vt 0.148381 0.986574
vt 0.148988 0.921591
vt 0.791731 0.325091
vt 0.708671 0.325091
vt 0.708671 0.269496
vt 0.791731 0.269496
vt 0.391842 0.988847
vt 0.392448 0.923863
vt 0.444258 0.924346
vt 0.443651 0.989331
vt 0.033050 0.978895
vt 0.033050 0.956894
vt 0.209060 0.956894
vt 0.209060 0.978895
vt 0.123083 0.921349
vt 0.122477 0.986333
vt 0.070666 0.985849
vt 0.071273 0.920866
vt 0.966916 0.569757
vt 0.966916 0.597586
vt 0.858028 0.597586
vt 0.803584 0.597586
vt 0.694696 0.597586
vt 0.640252 0.597586
vt 0.531364 0.597586
vt 0.531364 0.569757
vt 0.469557 0.989572
vt 0.470163 0.924588
vt 0.209060 0.989896
vt 0.033050 0.989896
vt 0.044762 0.985607
vt 0.045368 0.920624
vt 0.803584 0.653244
vt 0.858028 0.653244
vt 0.966916 0.653244
vt 0.531364 0.653244
vt 0.640252 0.653244
vt 0.694696 0.653244
vt 0.799513 0.335508
vt 0.699184 0.335508
vt 0.699184 0.235179
vt 0.799513 0.235179
vt -0.644279 0.470923
vt -0.644279 0.529077
vt -0.662297 0.529077
vt -0.662297 0.470923
vt -0.667973 0.529077
vt -0.685991 0.529077
vt -0.685991 0.470923
vt -0.667973 0.470923
vt -0.657912 0.939853
vt -0.639894 0.939853
vt -0.639894 0.998008
vt -0.657912 0.998008
vt -0.632670 0.939853
vt -0.614652 0.939853
vt -0.614652 0.998008
vt -0.632670 0.998008
vt -0.662297 0.645387
vt -0.644279 0.645387
vt -0.644279 0.703542
vt -0.662297 0.703542
vt -0.685991 0.703542
vt -0.685991 0.645387
vt -0.667973 0.645387
vt -0.667973 0.703542
vt 0.803584 0.653244
vt 0.694696 0.653244
vt 0.694696 0.597586
vt 0.803584 0.597586
vt -0.696319 0.514812
vt -0.691667 0.529077
vt -0.749822 0.529077
vt -0.745169 0.514812
vt -0.691667 0.470923
vt -0.696319 0.465962
vt -0.749822 0.470923
vt -0.745169 0.465962
vt -0.696319 0.698889
vt -0.691667 0.703542
vt -0.749822 0.703542
vt -0.745169 0.698889
vt -0.691667 0.645387
vt -0.696319 0.650039
vt -0.749822 0.645387
vt -0.745169 0.650039
vt 0.704909 0.329407
vt 0.704909 0.252123
vt 0.794511 0.252123
vt 0.794511 0.339860
vt 0.704660 0.005542
vt 0.794262 0.005404
vt 0.794609 0.231148
vt 0.705007 0.231286
vt 0.704909 0.005473
vt 0.794511 0.005473
vt 0.794511 0.252123
vt 0.704909 0.252123
vt 0.794511 0.329407
vt 0.704909 0.339860
vt 0.704909 0.252123
vt 0.794511 0.252123
vt 0.699326 0.345599
vt 0.699326 0.253245
vt 0.798812 0.253245
vt 0.798812 0.345599
vt 0.699543 0.004556
vt 0.799029 0.004683
vt 0.798712 0.253309
vt 0.699226 0.253182
vt 0.699326 0.004619
vt 0.798812 0.004619
vt 0.798812 0.253245
vt 0.699326 0.253245
vt 0.798812 0.345599
vt 0.699326 0.345599
vt 0.699326 0.253245
vt 0.798812 0.253245
vt 0.704909 0.005473
vt 0.794511 0.005473
vt 0.794760 0.329338
vt 0.705158 0.329476
vt 0.794511 0.339860
vt 0.704909 0.339860
vt 0.704909 0.005473
vt 0.794511 0.005473
vt 0.699326 0.004619
vt 0.798812 0.004619
vt 0.798594 0.345663
vt 0.699109 0.345536
vt 0.798812 0.345599
vt 0.699326 0.345599
vt 0.699326 0.004619
vt 0.798812 0.004619
vt 0.799513 0.335508
vt 0.699184 0.335508
vt 0.699184 0.235179
vt 0.799513 0.235179
vt 0.699326 0.345599
vt 0.699326 0.253245
vt 0.798812 0.253245
vt 0.798812 0.345599
vt 0.798812 0.345599
vt 0.699326 0.345599
vt 0.699326 0.253245
vt 0.798812 0.253245
vt 0.699226 0.253182
vt 0.798712 0.253309
vt 0.798594 0.345663
vt 0.699109 0.345536
vt 0.699326 0.253245
vt 0.798812 0.253245
vt 0.798812 0.345599
vt 0.699326 0.345599
vn 0.0000 0.0000 1.0000
vn 0.0000 1.0000 0.0000
vn 0.0000 0.0000 -1.0000
vn 0.0000 -1.0000 -0.0000
vn 1.0000 0.0000 0.0000
vn -1.0000 0.0000 0.0000
usemtl lambert43SG
s 1
f 1/1/1 2/2/1 3/3/1 4/4/1
f 5/5/2 6/6/2 7/7/2 8/8/2
f 7/9/3 6/10/3 9/11/3 10/12/3
f 9/13/4 11/14/4 12/15/4 10/16/4
f 9/17/5 6/18/5 5/19/5 11/20/5
f 7/21/6 10/22/6 12/23/6 8/24/6
f 13/25/2 14/26/2 15/27/2 16/28/2
f 17/29/5 18/30/5 19/31/5 20/32/5
f 21/33/4 22/34/4 17/35/4 20/36/4
f 23/37/6 22/38/6 21/39/6 24/40/6
f 3/41/2 19/42/2 25/43/2 26/44/2 27/45/2 28/46/2 24/47/2 4/48/2
f 2/49/5 20/32/5 19/31/5 3/50/5
f 20/36/4 2/51/4 1/52/4 21/33/4
f 24/40/6 21/39/6 1/53/6 4/54/6
f 18/30/5 17/29/5 11/20/5 5/19/5
f 29/55/2 30/56/2 18/57/2 5/5/2 8/8/2 23/58/2 31/59/2 32/60/2
f 8/24/6 12/23/6 22/38/6 23/37/6
f 11/14/4 17/35/4 22/34/4 12/15/4
f 33/61/2 34/62/2 35/63/2 36/64/2
f 19/42/2 18/57/2 30/56/2 25/43/2
f 31/59/2 23/58/2 24/47/2 28/46/2
f 30/65/1 29/66/1 37/67/1 38/68/1
f 39/69/3 26/70/3 25/71/3 40/72/3
f 40/73/6 25/74/6 30/75/6 38/76/6
f 41/77/5 31/78/5 28/79/5 42/80/5
f 43/81/1 32/82/1 31/83/1 41/84/1
f 28/85/3 27/86/3 44/87/3 42/88/3
f 39/69/3 44/87/3 27/86/3 26/70/3
f 43/81/1 37/67/1 29/66/1 32/82/1
f 37/89/2 43/90/2 44/91/2 39/92/2
f 45/93/2 37/94/2 39/95/2 46/96/2
f 38/97/2 37/94/2 45/93/2 47/98/2
f 39/95/2 40/99/2 48/100/2 46/96/2
f 48/100/2 40/99/2 38/97/2 47/98/2
f 49/101/2 41/102/2 42/103/2 50/104/2
f 43/105/2 41/102/2 49/101/2 51/106/2
f 42/103/2 44/107/2 52/108/2 50/104/2
f 52/108/2 44/107/2 43/105/2 51/106/2
f 14/109/6 53/110/6 54/111/6 15/112/6
f 47/113/3 45/114/3 53/115/3 55/116/3
f 46/117/1 48/118/1 56/119/1 54/120/1
f 13/121/5 16/122/5 56/123/5 55/124/5
f 34/125/6 57/126/6 58/127/6 35/128/6
f 51/129/3 49/130/3 57/131/3 59/132/3
f 50/133/1 52/134/1 60/135/1 58/136/1
f 33/137/5 36/138/5 60/139/5 59/140/5
f 54/111/6 53/110/6 45/141/6 46/142/6
f 55/116/3 53/115/3 14/143/3 13/144/3
f 54/120/1 56/119/1 16/145/1 15/146/1
f 55/124/5 56/123/5 48/147/5 47/148/5
f 58/127/6 57/126/6 49/149/6 50/150/6
f 59/132/3 57/131/3 34/151/3 33/152/3
f 58/136/1 60/135/1 36/153/1 35/154/1
f 59/140/5 60/139/5 52/155/5 51/156/5
f 61/157/2 62/158/2 63/159/2 64/160/2
f 62/161/6 65/162/6 66/163/6 63/164/6
f 61/165/5 64/166/5 67/167/5 68/168/5
f 68/169/3 65/170/3 62/171/3 61/172/3
f 66/173/1 67/174/1 64/175/1 63/176/1
