# Blender v2.91.2 OBJ File: ''
# www.blender.org
mtllib 2quad (Vertical).mtl
o 2quad_(Horizontal)
v -0.500000 -0.001315 0.500000
v 0.500000 -0.001315 0.500000
v 0.500000 -0.001315 -0.500000
v -0.500000 -0.001315 -0.500000
v -0.500000 0.001315 0.500000
v -0.500000 0.001315 -0.500000
v 0.500000 0.001315 -0.500000
v 0.500000 0.001315 0.500000
vt 0.986501 0.008413
vt 0.010702 0.008413
vt 0.010702 0.984217
vt 0.986501 0.984217
vt 0.986501 0.008413
vt 0.986501 0.984217
vt 0.010702 0.984217
vt 0.010702 0.008413
vn 0.0000 1.0000 0.0000
vn 0.0000 -1.0000 -0.0000
usemtl lambert5SG.001
s 1
f 1/1/1 2/2/1 3/3/1 4/4/1
f 5/5/2 6/6/2 7/7/2 8/8/2
