# This file uses centimeters as units for non-parametric coordinates.

mtllib 2quad (Horizontal).mtl
g default
v 3.025295 0.227237 0.501852
v 3.025295 0.227237 -0.498148
v 4.025295 0.227237 -0.498148
v 4.025295 0.227237 0.501852
v 3.025295 0.229867 0.501852
v 3.025295 0.229867 -0.498148
v 4.025295 0.229867 -0.498148
v 4.025295 0.229867 0.501852
vt 0.986501 0.008413
vt 0.010702 0.008413
vt 0.010702 0.984217
vt 0.986501 0.984217
vt 0.986501 0.008413
vt 0.986501 0.984217
vt 0.010702 0.984217
vt 0.010702 0.008413
vn 0.000000 1.000000 -0.000000
vn 0.000000 1.000000 -0.000000
vn 0.000000 1.000000 -0.000000
vn 0.000000 1.000000 -0.000000
vn 0.000000 -1.000000 0.000000
vn 0.000000 -1.000000 0.000000
vn 0.000000 -1.000000 0.000000
vn 0.000000 -1.000000 0.000000
s off
g polySurface35
usemtl lambert5SG
f 1/1/1 4/2/2 3/3/3 2/4/4
f 5/5/5 6/6/6 7/7/7 8/8/8
