# Blender v2.92.0 OBJ File: 'minecraft_assets.blend'
# www.blender.org
mtllib Glass_4.mtl
o Cube.016
v -0.062500 -0.500000 -0.062399
v -0.062500 0.500000 -0.062399
v -0.062500 0.500000 -0.500000
v -0.062500 -0.500000 -0.500000
v 0.062500 0.500000 -0.500000
v 0.062500 -0.500000 -0.500000
v 0.500000 -0.500000 0.062466
v 0.500000 0.500000 0.062466
v 0.062500 -0.500000 -0.062399
v 0.062500 0.500000 -0.062399
v -0.500000 0.500000 -0.062399
v -0.500000 0.500000 0.062466
v 0.500000 -0.500000 -0.062399
v 0.500000 0.500000 -0.062399
v -0.500000 -0.500000 0.062466
v -0.500000 -0.500000 -0.062399
vt 0.500000 0.500000
vt 0.500000 1.000000
vt 0.000000 1.000000
vt 0.000000 0.500000
vt 0.956054 0.673410
vt 0.956963 0.673410
vt 0.956963 0.674319
vt 0.956054 0.674319
vt 0.000000 0.500000
vt 1.000000 0.500000
vt 1.000000 0.997667
vt 0.000000 1.000000
vt 0.953162 0.678993
vt 0.970719 0.678993
vt 0.970719 0.686902
vt 0.953162 0.686902
vt 1.000000 0.500000
vt 1.000000 0.997667
vt 0.500204 0.997667
vt 0.500204 0.500000
vt 0.953162 0.688320
vt 0.953162 0.686902
vt 0.970719 0.686902
vt 0.970719 0.688320
vt 0.956054 0.674729
vt 0.956963 0.674729
vt 0.956963 0.674802
vt 0.956054 0.674802
vt 0.970903 0.686659
vt 0.956619 0.686659
vt 0.956619 0.685505
vt 0.956619 0.685505
vt 0.956619 0.679070
vt 0.970903 0.679070
vt 0.970903 0.685505
vt 0.970903 0.685505
vt 0.500000 0.500000
vt 0.500000 1.000000
vt 0.000000 1.000000
vt 0.000000 0.500000
vt 0.956054 0.672927
vt 0.956963 0.672927
vt 0.956963 0.673000
vt 0.956054 0.673000
vt 0.500204 0.997667
vt 0.500204 0.500000
vt 1.000000 0.500000
vt 1.000000 0.997667
vn -1.0000 0.0000 0.0000
vn 0.0000 0.0000 -1.0000
vn 0.0000 -0.0000 1.0000
vn 0.0000 -1.0000 -0.0000
vn 1.0000 -0.0000 0.0000
vn 0.0000 1.0000 0.0000
usemtl Material.010
s 1
f 1/1/1 2/2/1 3/3/1 4/4/1
f 4/5/2 3/6/2 5/7/2 6/8/2
f 15/9/3 7/10/3 8/11/3 12/12/3
f 4/13/4 6/14/4 9/15/4 1/16/4
f 6/17/5 5/18/5 10/19/5 9/20/5
f 15/21/4 16/22/4 1/16/4 9/15/4 13/23/4 7/24/4
f 13/25/5 14/26/5 8/27/5 7/28/5
f 12/29/6 8/30/6 14/31/6 10/32/6 5/33/6 3/34/6 2/35/6 11/36/6
f 9/37/2 10/38/2 14/39/2 13/40/2
f 15/41/1 12/42/1 11/43/1 16/44/1
f 2/45/2 1/46/2 16/47/2 11/48/2
