# Blender v2.92.0 OBJ File: 'minecraft_assets.blend'
# www.blender.org
mtllib wall_banner.mtl
o wall_banner_Standing_Banner.001
v -0.424231 -0.930389 0.039685
v 0.424241 -0.930389 0.039685
v 0.424241 0.745791 0.039685
v -0.424231 0.745791 0.039685
v 0.424241 0.745791 -0.010251
v -0.424231 0.745791 -0.010251
v 0.424241 -0.930389 -0.010251
v -0.424231 -0.930389 -0.010251
v 0.424503 0.650734 -0.013595
v 0.424503 0.746197 -0.013595
v -0.424576 0.746197 -0.013595
v -0.424576 0.650734 -0.013595
v -0.424576 0.746197 -0.111327
v -0.424576 0.650734 -0.111327
v 0.424503 0.746197 -0.111327
v 0.424503 0.650734 -0.111327
vt 0.347827 0.644408
vt 0.354430 0.644408
vt 0.354430 0.655116
vt 0.347827 0.655116
vt 0.354848 0.578795
vt 0.354848 0.576542
vt 0.354876 0.576542
vt 0.354876 0.578795
vt 0.082873 0.443362
vt 0.371353 0.443362
vt 0.371353 0.911194
vt 0.082873 0.911194
vt 0.351183 0.673443
vt 0.351183 0.668810
vt 0.351240 0.668810
vt 0.351240 0.673443
vt 0.351183 0.667369
vt 0.351240 0.667369
vt 0.351240 0.674883
vt 0.351183 0.674883
vt 0.352136 0.645601
vt 0.352163 0.645601
vt 0.352163 0.649254
vt 0.352136 0.649254
vt 0.720766 0.343606
vt 0.784925 0.343615
vt 0.784899 0.893088
vt 0.720740 0.893080
vt 0.370679 0.341229
vt 0.333485 0.341234
vt 0.333482 0.288803
vt 0.370677 0.288798
vt 0.773297 0.902892
vt 0.709138 0.902894
vt 0.709063 0.353421
vt 0.773222 0.353418
vt 0.370679 0.341229
vt 0.333485 0.341234
vt 0.333482 0.288803
vt 0.370677 0.288798
vt 0.696325 0.345669
vt 0.748756 0.345667
vt 0.748831 0.895141
vt 0.696400 0.895143
vt 0.626817 0.288763
vt 0.626819 0.341194
vt 0.077345 0.341269
vt 0.077343 0.288838
vn 0.0000 -0.0000 1.0000
vn 0.0000 1.0000 0.0000
vn 0.0000 0.0000 -1.0000
vn 0.0000 -1.0000 0.0000
vn 1.0000 0.0000 0.0000
vn -1.0000 0.0000 0.0000
usemtl wall_banner
s 1
f 1/1/1 2/2/1 3/3/1 4/4/1
f 4/5/2 3/6/2 5/7/2 6/8/2
f 6/9/3 5/10/3 7/11/3 8/12/3
f 8/13/4 7/14/4 2/15/4 1/16/4
f 2/17/5 7/18/5 5/19/5 3/20/5
f 8/21/6 1/22/6 4/23/6 6/24/6
f 9/25/1 10/26/1 11/27/1 12/28/1
f 12/29/6 11/30/6 13/31/6 14/32/6
f 14/33/3 13/34/3 15/35/3 16/36/3
f 16/37/5 15/38/5 10/39/5 9/40/5
f 10/41/2 15/42/2 13/43/2 11/44/2
f 16/45/4 9/46/4 12/47/4 14/48/4
